G04 #@! TF.GenerationSoftware,KiCad,Pcbnew,(6.0.6-0)*
G04 #@! TF.CreationDate,2022-10-21T02:43:14+09:00*
G04 #@! TF.ProjectId,Spica,53706963-612e-46b6-9963-61645f706362,rev?*
G04 #@! TF.SameCoordinates,Original*
G04 #@! TF.FileFunction,Paste,Top*
G04 #@! TF.FilePolarity,Positive*
%FSLAX46Y46*%
G04 Gerber Fmt 4.6, Leading zero omitted, Abs format (unit mm)*
G04 Created by KiCad (PCBNEW (6.0.6-0)) date 2022-10-21 02:43:14*
%MOMM*%
%LPD*%
G01*
G04 APERTURE LIST*
G04 Aperture macros list*
%AMRoundRect*
0 Rectangle with rounded corners*
0 $1 Rounding radius*
0 $2 $3 $4 $5 $6 $7 $8 $9 X,Y pos of 4 corners*
0 Add a 4 corners polygon primitive as box body*
4,1,4,$2,$3,$4,$5,$6,$7,$8,$9,$2,$3,0*
0 Add four circle primitives for the rounded corners*
1,1,$1+$1,$2,$3*
1,1,$1+$1,$4,$5*
1,1,$1+$1,$6,$7*
1,1,$1+$1,$8,$9*
0 Add four rect primitives between the rounded corners*
20,1,$1+$1,$2,$3,$4,$5,0*
20,1,$1+$1,$4,$5,$6,$7,0*
20,1,$1+$1,$6,$7,$8,$9,0*
20,1,$1+$1,$8,$9,$2,$3,0*%
G04 Aperture macros list end*
%ADD10R,2.000000X0.600000*%
%ADD11RoundRect,0.218750X-0.218750X-0.256250X0.218750X-0.256250X0.218750X0.256250X-0.218750X0.256250X0*%
%ADD12RoundRect,0.243750X-0.243750X-0.456250X0.243750X-0.456250X0.243750X0.456250X-0.243750X0.456250X0*%
%ADD13RoundRect,0.218750X0.218750X0.256250X-0.218750X0.256250X-0.218750X-0.256250X0.218750X-0.256250X0*%
%ADD14R,1.500000X0.600000*%
%ADD15R,2.750000X3.050000*%
%ADD16R,1.200000X2.200000*%
G04 APERTURE END LIST*
D10*
X66750000Y-79375000D03*
X66750000Y-80645000D03*
X66750000Y-81915000D03*
X66750000Y-83185000D03*
X66750000Y-84455000D03*
X66750000Y-85725000D03*
X66750000Y-86995000D03*
X66750000Y-88265000D03*
X66750000Y-89535000D03*
X66750000Y-90805000D03*
X66750000Y-92075000D03*
X66750000Y-93345000D03*
X72950000Y-93345000D03*
X72950000Y-92075000D03*
X72950000Y-90805000D03*
X72950000Y-89535000D03*
X72950000Y-88265000D03*
X72950000Y-86995000D03*
X72950000Y-85725000D03*
X72950000Y-84455000D03*
X72950000Y-83185000D03*
X72950000Y-81915000D03*
X72950000Y-80645000D03*
X72950000Y-79375000D03*
D11*
X66522500Y-97790000D03*
X68097500Y-97790000D03*
X70332500Y-97790000D03*
X71907500Y-97790000D03*
X74142500Y-97790000D03*
X75717500Y-97790000D03*
X88112500Y-82550000D03*
X89687500Y-82550000D03*
X77952500Y-97790000D03*
X79527500Y-97790000D03*
X57632500Y-99060000D03*
X59207500Y-99060000D03*
X61442500Y-99060000D03*
X63017500Y-99060000D03*
X81762500Y-97790000D03*
X83337500Y-97790000D03*
X85572500Y-97790000D03*
X87147500Y-97790000D03*
X90170000Y-97790000D03*
X91745000Y-97790000D03*
D12*
X91772500Y-82550000D03*
X93647500Y-82550000D03*
D13*
X64287500Y-77470000D03*
X62712500Y-77470000D03*
D11*
X84302500Y-78740000D03*
X85877500Y-78740000D03*
X88112500Y-78740000D03*
X89687500Y-78740000D03*
X91922500Y-78740000D03*
X93497500Y-78740000D03*
D14*
X78580000Y-86360000D03*
X78580000Y-87630000D03*
X78580000Y-88900000D03*
X78580000Y-90170000D03*
X78580000Y-91440000D03*
X78580000Y-92710000D03*
X78580000Y-93980000D03*
X83980000Y-93980000D03*
X83980000Y-92710000D03*
X83980000Y-91440000D03*
X83980000Y-90170000D03*
X83980000Y-88900000D03*
X83980000Y-87630000D03*
X83980000Y-86360000D03*
D15*
X61215000Y-86395000D03*
X61215000Y-89745000D03*
X58165000Y-89745000D03*
X58165000Y-86395000D03*
D16*
X57410000Y-94370000D03*
X61970000Y-94370000D03*
D11*
X84302500Y-82550000D03*
X85877500Y-82550000D03*
M02*
