G04 #@! TF.GenerationSoftware,KiCad,Pcbnew,(6.0.6-0)*
G04 #@! TF.CreationDate,2022-10-21T02:43:14+09:00*
G04 #@! TF.ProjectId,Spica,53706963-612e-46b6-9963-61645f706362,rev?*
G04 #@! TF.SameCoordinates,Original*
G04 #@! TF.FileFunction,Copper,L2,Bot*
G04 #@! TF.FilePolarity,Positive*
%FSLAX46Y46*%
G04 Gerber Fmt 4.6, Leading zero omitted, Abs format (unit mm)*
G04 Created by KiCad (PCBNEW (6.0.6-0)) date 2022-10-21 02:43:14*
%MOMM*%
%LPD*%
G01*
G04 APERTURE LIST*
G04 Aperture macros list*
%AMRoundRect*
0 Rectangle with rounded corners*
0 $1 Rounding radius*
0 $2 $3 $4 $5 $6 $7 $8 $9 X,Y pos of 4 corners*
0 Add a 4 corners polygon primitive as box body*
4,1,4,$2,$3,$4,$5,$6,$7,$8,$9,$2,$3,0*
0 Add four circle primitives for the rounded corners*
1,1,$1+$1,$2,$3*
1,1,$1+$1,$4,$5*
1,1,$1+$1,$6,$7*
1,1,$1+$1,$8,$9*
0 Add four rect primitives between the rounded corners*
20,1,$1+$1,$2,$3,$4,$5,0*
20,1,$1+$1,$4,$5,$6,$7,0*
20,1,$1+$1,$6,$7,$8,$9,0*
20,1,$1+$1,$8,$9,$2,$3,0*%
G04 Aperture macros list end*
G04 #@! TA.AperFunction,ComponentPad*
%ADD10R,1.600000X1.600000*%
G04 #@! TD*
G04 #@! TA.AperFunction,ComponentPad*
%ADD11C,1.600000*%
G04 #@! TD*
G04 #@! TA.AperFunction,ComponentPad*
%ADD12R,1.700000X1.700000*%
G04 #@! TD*
G04 #@! TA.AperFunction,ComponentPad*
%ADD13O,1.700000X1.700000*%
G04 #@! TD*
G04 #@! TA.AperFunction,ComponentPad*
%ADD14O,4.000000X1.500000*%
G04 #@! TD*
G04 #@! TA.AperFunction,ComponentPad*
%ADD15O,1.500000X4.000000*%
G04 #@! TD*
G04 #@! TA.AperFunction,ComponentPad*
%ADD16O,1.400000X1.400000*%
G04 #@! TD*
G04 #@! TA.AperFunction,ComponentPad*
%ADD17C,3.000000*%
G04 #@! TD*
G04 #@! TA.AperFunction,ComponentPad*
%ADD18O,2.000000X3.000000*%
G04 #@! TD*
G04 #@! TA.AperFunction,ComponentPad*
%ADD19O,3.000000X2.000000*%
G04 #@! TD*
G04 #@! TA.AperFunction,ComponentPad*
%ADD20C,2.000000*%
G04 #@! TD*
G04 #@! TA.AperFunction,ComponentPad*
%ADD21C,1.500000*%
G04 #@! TD*
G04 #@! TA.AperFunction,ComponentPad*
%ADD22C,2.500000*%
G04 #@! TD*
G04 #@! TA.AperFunction,ComponentPad*
%ADD23RoundRect,0.250000X0.850000X-0.620000X0.850000X0.620000X-0.850000X0.620000X-0.850000X-0.620000X0*%
G04 #@! TD*
G04 #@! TA.AperFunction,ComponentPad*
%ADD24O,2.200000X1.740000*%
G04 #@! TD*
G04 #@! TA.AperFunction,ComponentPad*
%ADD25RoundRect,0.441000X1.059000X-1.059000X1.059000X1.059000X-1.059000X1.059000X-1.059000X-1.059000X0*%
G04 #@! TD*
G04 #@! TA.AperFunction,ComponentPad*
%ADD26O,3.000000X3.000000*%
G04 #@! TD*
G04 #@! TA.AperFunction,SMDPad,CuDef*
%ADD27R,2.000000X1.800000*%
G04 #@! TD*
G04 #@! TA.AperFunction,SMDPad,CuDef*
%ADD28R,1.900000X1.600000*%
G04 #@! TD*
G04 #@! TA.AperFunction,SMDPad,CuDef*
%ADD29R,1.350000X0.400000*%
G04 #@! TD*
G04 #@! TA.AperFunction,ViaPad*
%ADD30C,0.800000*%
G04 #@! TD*
G04 #@! TA.AperFunction,Conductor*
%ADD31C,0.750000*%
G04 #@! TD*
G04 #@! TA.AperFunction,Conductor*
%ADD32C,1.000000*%
G04 #@! TD*
G04 #@! TA.AperFunction,Conductor*
%ADD33C,0.399800*%
G04 #@! TD*
G04 APERTURE END LIST*
D10*
X58420000Y-81280000D03*
D11*
X60920000Y-81280000D03*
D10*
X78740000Y-81280000D03*
D11*
X81240000Y-81280000D03*
D12*
X58420000Y-109220000D03*
D13*
X58420000Y-106680000D03*
X58420000Y-104140000D03*
D14*
X85090000Y-67320000D03*
D15*
X91840000Y-68120000D03*
X78340000Y-68120000D03*
D16*
X81690000Y-71120000D03*
X88490000Y-71120000D03*
X81690000Y-73520000D03*
X88490000Y-73620000D03*
D17*
X73350000Y-65430000D03*
X66450000Y-65430000D03*
D18*
X69850000Y-73730000D03*
D19*
X69850000Y-67630000D03*
D20*
X73700000Y-107950000D03*
X76200000Y-102950000D03*
X78700000Y-107950000D03*
D21*
X88900000Y-87630000D03*
X88900000Y-92510000D03*
D22*
X81200000Y-126960000D03*
X71200000Y-126960000D03*
X83700000Y-117260000D03*
X76200000Y-117260000D03*
X68700000Y-117260000D03*
X81200000Y-114960000D03*
X71200000Y-114960000D03*
X83700000Y-112260000D03*
X68700000Y-112260000D03*
X76200000Y-112260000D03*
D20*
X65445000Y-107950000D03*
X67945000Y-102950000D03*
X70445000Y-107950000D03*
D12*
X61595000Y-109220000D03*
D13*
X61595000Y-106680000D03*
X61595000Y-104140000D03*
D20*
X81955000Y-107950000D03*
X84455000Y-102950000D03*
X86955000Y-107950000D03*
D23*
X59690000Y-125730000D03*
D24*
X59690000Y-123190000D03*
X59690000Y-120650000D03*
X59690000Y-118110000D03*
X59690000Y-115570000D03*
X59690000Y-113030000D03*
D25*
X92710000Y-124460000D03*
D26*
X92710000Y-119460000D03*
X92710000Y-114460000D03*
X92710000Y-109460000D03*
X92710000Y-101960000D03*
D27*
X58755000Y-93270000D03*
D28*
X56455000Y-92420000D03*
D27*
X58755000Y-99770000D03*
D28*
X56455000Y-100620000D03*
D29*
X59055000Y-95220000D03*
X59055000Y-95870000D03*
X59055000Y-96520000D03*
X59055000Y-97170000D03*
X59055000Y-97820000D03*
D30*
X63985600Y-84129500D03*
X65855200Y-94514300D03*
X68097500Y-98899000D03*
X70631700Y-96691000D03*
X68547700Y-84065000D03*
X73025000Y-97642700D03*
X63389100Y-93312700D03*
X76582100Y-98654600D03*
X71292600Y-84237100D03*
X68396600Y-95899000D03*
X85760700Y-86617800D03*
X74725700Y-90805000D03*
X70240700Y-92500200D03*
X77129600Y-93546000D03*
X85511600Y-94400000D03*
X91772500Y-80820800D03*
X93497500Y-81159100D03*
X90637900Y-80024600D03*
X68568500Y-85725000D03*
X77069800Y-86808700D03*
X70336700Y-91016000D03*
X79960800Y-92710000D03*
X63017500Y-102532900D03*
D31*
X65855200Y-85999100D02*
X65855200Y-94514300D01*
X63985600Y-84129500D02*
X65855200Y-85999100D01*
X67945000Y-99051500D02*
X68097500Y-98899000D01*
X67945000Y-102950000D02*
X67945000Y-99051500D01*
X67544600Y-85068100D02*
X67544600Y-93603900D01*
X68547700Y-84065000D02*
X67544600Y-85068100D01*
X67544600Y-93603900D02*
X70631700Y-96691000D01*
X63389100Y-93312700D02*
X63389100Y-94894900D01*
X63389100Y-94894900D02*
X66188500Y-97694300D01*
X72973400Y-97694300D02*
X73025000Y-97642700D01*
X66188500Y-97694300D02*
X72973400Y-97694300D01*
X76582100Y-98654600D02*
X80159600Y-98654600D01*
X80159600Y-98654600D02*
X84455000Y-102950000D01*
X59804700Y-82664700D02*
X58420000Y-81280000D01*
X71292600Y-84237100D02*
X69720200Y-82664700D01*
X69720200Y-82664700D02*
X59804700Y-82664700D01*
X78740000Y-81280000D02*
X77319100Y-79859100D01*
X57391800Y-79859100D02*
X57044600Y-80206300D01*
X57044600Y-80206300D02*
X57044600Y-83662000D01*
X64879900Y-91497300D02*
X64879900Y-94948700D01*
X64879900Y-94948700D02*
X65830200Y-95899000D01*
X77319100Y-79859100D02*
X57391800Y-79859100D01*
X65830200Y-95899000D02*
X68396600Y-95899000D01*
X57044600Y-83662000D02*
X64879900Y-91497300D01*
X81573500Y-90805000D02*
X74725700Y-90805000D01*
X85760700Y-86617800D02*
X81573500Y-90805000D01*
D32*
X71286500Y-93546000D02*
X77129600Y-93546000D01*
X70240700Y-92500200D02*
X71286500Y-93546000D01*
X77983600Y-94400000D02*
X85511600Y-94400000D01*
X58420000Y-106680000D02*
X61595000Y-106680000D01*
X77129600Y-93546000D02*
X77983600Y-94400000D01*
X57889600Y-116309600D02*
X59690000Y-118110000D01*
X57889600Y-111315000D02*
X57889600Y-116309600D01*
X78700000Y-107950000D02*
X80423600Y-106226400D01*
X91772500Y-74402500D02*
X91772500Y-80820800D01*
X81690000Y-71120000D02*
X88490000Y-71120000D01*
X69570000Y-107950000D02*
X66735400Y-110784600D01*
X60007600Y-98070400D02*
X60469700Y-98532500D01*
X85231400Y-106226400D02*
X86955000Y-107950000D01*
X88490000Y-71120000D02*
X91772500Y-74402500D01*
X59055000Y-98070400D02*
X60007600Y-98070400D01*
X66735400Y-110784600D02*
X58420000Y-110784600D01*
X59295200Y-102120400D02*
X58233900Y-102120400D01*
X56825400Y-107625400D02*
X58420000Y-109220000D01*
X60469700Y-100945900D02*
X59295200Y-102120400D01*
X60469700Y-98532500D02*
X60469700Y-100945900D01*
X80423600Y-106226400D02*
X85231400Y-106226400D01*
X58420000Y-110784600D02*
X58420000Y-109220000D01*
X58233900Y-102120400D02*
X56825400Y-103528900D01*
X70445000Y-107950000D02*
X69570000Y-107950000D01*
X58420000Y-110784600D02*
X57889600Y-111315000D01*
X56825400Y-103528900D02*
X56825400Y-107625400D01*
D33*
X59055000Y-98070400D02*
X59055000Y-97820000D01*
D31*
X93497500Y-83032500D02*
X93497500Y-81159100D01*
X88900000Y-87630000D02*
X93497500Y-83032500D01*
X86937700Y-90547700D02*
X86937700Y-86393400D01*
X86164500Y-84498000D02*
X86164500Y-85620200D01*
X90637900Y-80024600D02*
X86164500Y-84498000D01*
X68673300Y-85620200D02*
X68568500Y-85725000D01*
X86164500Y-85620200D02*
X68673300Y-85620200D01*
X88900000Y-92510000D02*
X86937700Y-90547700D01*
X86937700Y-86393400D02*
X86164500Y-85620200D01*
X69162100Y-90769200D02*
X73122600Y-86808700D01*
X59690000Y-115570000D02*
X63213200Y-119093200D01*
X63213200Y-119093200D02*
X77066800Y-119093200D01*
X92710000Y-101960000D02*
X86286600Y-95536600D01*
X86286600Y-95536600D02*
X71755200Y-95536600D01*
X77066800Y-119093200D02*
X81200000Y-114960000D01*
X69162100Y-92943500D02*
X69162100Y-90769200D01*
X73122600Y-86808700D02*
X77069800Y-86808700D01*
X71755200Y-95536600D02*
X69162100Y-92943500D01*
X61620000Y-114960000D02*
X71200000Y-114960000D01*
X59690000Y-113030000D02*
X61620000Y-114960000D01*
X59690000Y-125730000D02*
X60960000Y-124460000D01*
X60960000Y-124460000D02*
X92710000Y-124460000D01*
X86432700Y-105127900D02*
X68267100Y-105127900D01*
X88584500Y-108557600D02*
X88584500Y-107279700D01*
X68267100Y-105127900D02*
X65445000Y-107950000D01*
X84882100Y-112260000D02*
X88584500Y-108557600D01*
X83700000Y-112260000D02*
X84882100Y-112260000D01*
X88584500Y-107279700D02*
X86432700Y-105127900D01*
X89850900Y-122319100D02*
X60560900Y-122319100D01*
X68700000Y-112260000D02*
X69390000Y-112260000D01*
X60560900Y-122319100D02*
X59690000Y-123190000D01*
X92710000Y-119460000D02*
X89850900Y-122319100D01*
X69390000Y-112260000D02*
X73700000Y-107950000D01*
X89939500Y-117230500D02*
X86465900Y-117230500D01*
X84133800Y-115096100D02*
X83936200Y-115096100D01*
X81955000Y-107950000D02*
X81100100Y-108804900D01*
X83936200Y-115096100D02*
X81100100Y-112260000D01*
X81100100Y-112260000D02*
X76200000Y-112260000D01*
X82906800Y-120650000D02*
X59690000Y-120650000D01*
X86436800Y-117259600D02*
X86297300Y-117259600D01*
X86297300Y-117259500D02*
X82906800Y-120650000D01*
X81100100Y-108804900D02*
X81100100Y-112260000D01*
X86465900Y-117230500D02*
X86436800Y-117259600D01*
X86297300Y-117259500D02*
X84133800Y-115096100D01*
X92710000Y-114460000D02*
X89939500Y-117230500D01*
X86297300Y-117259600D02*
X86297300Y-117259500D01*
X71157600Y-91836900D02*
X79087700Y-91836900D01*
X79087700Y-91836900D02*
X79960800Y-92710000D01*
X70336700Y-91016000D02*
X71157600Y-91836900D01*
D32*
X63180500Y-107634500D02*
X63180500Y-102695900D01*
X63180500Y-102695900D02*
X63017500Y-102532900D01*
X61595000Y-109220000D02*
X63180500Y-107634500D01*
X60025500Y-94969600D02*
X59305400Y-94969600D01*
X61595000Y-104140000D02*
X61694300Y-104040700D01*
X61694300Y-104040700D02*
X61694300Y-96638400D01*
X61694300Y-96638400D02*
X60025500Y-94969600D01*
D33*
X59305400Y-94969600D02*
X59055000Y-95220000D01*
G04 #@! TA.AperFunction,Conductor*
G36*
X65375892Y-63520002D02*
G01*
X65422385Y-63573658D01*
X65432489Y-63643932D01*
X65402995Y-63708512D01*
X65372477Y-63734116D01*
X65301043Y-63776868D01*
X65087318Y-63948094D01*
X64975964Y-64065436D01*
X64909656Y-64135311D01*
X64898808Y-64146742D01*
X64739002Y-64369136D01*
X64610857Y-64611161D01*
X64609385Y-64615184D01*
X64609383Y-64615188D01*
X64548136Y-64782552D01*
X64516743Y-64868337D01*
X64458404Y-65135907D01*
X64436917Y-65408918D01*
X64452682Y-65682320D01*
X64453507Y-65686525D01*
X64453508Y-65686533D01*
X64468454Y-65762710D01*
X64505405Y-65951053D01*
X64506792Y-65955103D01*
X64506793Y-65955108D01*
X64588322Y-66193233D01*
X64594112Y-66210144D01*
X64606940Y-66235650D01*
X64704461Y-66429549D01*
X64717160Y-66454799D01*
X64719586Y-66458328D01*
X64719589Y-66458334D01*
X64781421Y-66548299D01*
X64872274Y-66680490D01*
X65056582Y-66883043D01*
X65059877Y-66885798D01*
X65059878Y-66885799D01*
X65150472Y-66961547D01*
X65266675Y-67058707D01*
X65270316Y-67060991D01*
X65495024Y-67201951D01*
X65495028Y-67201953D01*
X65498664Y-67204234D01*
X65566544Y-67234883D01*
X65744345Y-67315164D01*
X65744349Y-67315166D01*
X65748257Y-67316930D01*
X65811393Y-67335632D01*
X66006723Y-67393491D01*
X66006727Y-67393492D01*
X66010836Y-67394709D01*
X66015070Y-67395357D01*
X66015075Y-67395358D01*
X66277298Y-67435483D01*
X66277300Y-67435483D01*
X66281540Y-67436132D01*
X66420912Y-67438322D01*
X66551071Y-67440367D01*
X66551077Y-67440367D01*
X66555362Y-67440434D01*
X66827235Y-67407534D01*
X67092127Y-67338041D01*
X67096087Y-67336401D01*
X67096092Y-67336399D01*
X67244968Y-67274732D01*
X67345136Y-67233241D01*
X67541298Y-67118613D01*
X67577879Y-67097237D01*
X67577880Y-67097236D01*
X67581582Y-67095073D01*
X67689297Y-67010614D01*
X67735605Y-66974304D01*
X67801553Y-66948012D01*
X67871248Y-66961547D01*
X67922560Y-67010614D01*
X67939200Y-67079633D01*
X67930982Y-67118613D01*
X67900462Y-67198119D01*
X67897612Y-67207804D01*
X67866179Y-67358264D01*
X67867302Y-67372325D01*
X67877410Y-67376000D01*
X69577885Y-67376000D01*
X69593124Y-67371525D01*
X69594329Y-67370135D01*
X69596000Y-67362452D01*
X69596000Y-66140115D01*
X69591525Y-66124876D01*
X69590135Y-66123671D01*
X69582452Y-66122000D01*
X69291544Y-66122000D01*
X69286512Y-66122202D01*
X69113157Y-66136150D01*
X69103204Y-66137762D01*
X68877367Y-66193233D01*
X68867797Y-66196416D01*
X68653735Y-66287280D01*
X68644787Y-66291958D01*
X68472584Y-66400400D01*
X68404283Y-66419775D01*
X68336349Y-66399147D01*
X68290352Y-66345065D01*
X68280895Y-66274701D01*
X68287576Y-66249242D01*
X68290321Y-66241980D01*
X68358424Y-66061749D01*
X68375751Y-66015895D01*
X68375752Y-66015891D01*
X68377269Y-66011877D01*
X68438407Y-65744933D01*
X68442181Y-65702654D01*
X68462531Y-65474627D01*
X68462531Y-65474625D01*
X68462751Y-65472161D01*
X68463193Y-65430000D01*
X68449810Y-65233684D01*
X68444859Y-65161055D01*
X68444858Y-65161049D01*
X68444567Y-65156778D01*
X68420689Y-65041474D01*
X68396814Y-64926191D01*
X68389032Y-64888612D01*
X68297617Y-64630465D01*
X68172013Y-64387112D01*
X68162040Y-64372921D01*
X68017008Y-64166562D01*
X68014545Y-64163057D01*
X67828125Y-63962445D01*
X67824810Y-63959731D01*
X67824806Y-63959728D01*
X67694069Y-63852721D01*
X67616205Y-63788990D01*
X67558302Y-63753507D01*
X67525544Y-63733433D01*
X67477913Y-63680785D01*
X67466306Y-63610744D01*
X67494409Y-63545546D01*
X67553299Y-63505892D01*
X67591379Y-63500000D01*
X72207771Y-63500000D01*
X72275892Y-63520002D01*
X72322385Y-63573658D01*
X72332489Y-63643932D01*
X72302995Y-63708512D01*
X72272477Y-63734116D01*
X72201043Y-63776868D01*
X71987318Y-63948094D01*
X71875964Y-64065436D01*
X71809656Y-64135311D01*
X71798808Y-64146742D01*
X71639002Y-64369136D01*
X71510857Y-64611161D01*
X71509385Y-64615184D01*
X71509383Y-64615188D01*
X71448136Y-64782552D01*
X71416743Y-64868337D01*
X71358404Y-65135907D01*
X71336917Y-65408918D01*
X71352682Y-65682320D01*
X71353507Y-65686525D01*
X71353508Y-65686533D01*
X71368454Y-65762710D01*
X71405405Y-65951053D01*
X71406792Y-65955103D01*
X71406793Y-65955108D01*
X71488322Y-66193233D01*
X71494112Y-66210144D01*
X71569580Y-66360195D01*
X71575622Y-66372209D01*
X71588360Y-66442053D01*
X71561316Y-66507697D01*
X71503075Y-66548299D01*
X71432129Y-66550968D01*
X71371510Y-66515398D01*
X71365809Y-66509370D01*
X71358305Y-66502613D01*
X71173574Y-66361375D01*
X71165095Y-66355911D01*
X70960153Y-66246022D01*
X70950901Y-66241980D01*
X70731029Y-66166273D01*
X70721257Y-66163764D01*
X70491029Y-66123996D01*
X70483157Y-66123141D01*
X70459449Y-66122064D01*
X70456616Y-66122000D01*
X70122115Y-66122000D01*
X70106876Y-66126475D01*
X70105671Y-66127865D01*
X70104000Y-66135548D01*
X70104000Y-67357885D01*
X70108475Y-67373124D01*
X70109865Y-67374329D01*
X70117548Y-67376000D01*
X71820590Y-67376000D01*
X71834676Y-67371864D01*
X71836725Y-67358886D01*
X71834675Y-67341170D01*
X71832715Y-67331273D01*
X71769396Y-67107506D01*
X71765884Y-67098062D01*
X71709809Y-66977809D01*
X71699148Y-66907617D01*
X71728128Y-66842805D01*
X71787548Y-66803948D01*
X71858542Y-66803385D01*
X71917197Y-66839760D01*
X71956582Y-66883043D01*
X71959877Y-66885798D01*
X71959878Y-66885799D01*
X72050472Y-66961547D01*
X72166675Y-67058707D01*
X72170316Y-67060991D01*
X72395024Y-67201951D01*
X72395028Y-67201953D01*
X72398664Y-67204234D01*
X72466544Y-67234883D01*
X72644345Y-67315164D01*
X72644349Y-67315166D01*
X72648257Y-67316930D01*
X72711393Y-67335632D01*
X72906723Y-67393491D01*
X72906727Y-67393492D01*
X72910836Y-67394709D01*
X72915070Y-67395357D01*
X72915075Y-67395358D01*
X73177298Y-67435483D01*
X73177300Y-67435483D01*
X73181540Y-67436132D01*
X73320912Y-67438322D01*
X73451071Y-67440367D01*
X73451077Y-67440367D01*
X73455362Y-67440434D01*
X73727235Y-67407534D01*
X73992127Y-67338041D01*
X73996087Y-67336401D01*
X73996092Y-67336399D01*
X74144968Y-67274732D01*
X74245136Y-67233241D01*
X74441298Y-67118613D01*
X74477879Y-67097237D01*
X74477880Y-67097236D01*
X74481582Y-67095073D01*
X74697089Y-66926094D01*
X74700648Y-66922422D01*
X74884686Y-66732509D01*
X74887669Y-66729431D01*
X74890202Y-66725983D01*
X74890206Y-66725978D01*
X75047257Y-66512178D01*
X75049795Y-66508723D01*
X75051934Y-66504783D01*
X75178418Y-66271830D01*
X75178419Y-66271828D01*
X75180468Y-66268054D01*
X75235657Y-66122000D01*
X75275751Y-66015895D01*
X75275752Y-66015891D01*
X75277269Y-66011877D01*
X75338407Y-65744933D01*
X75342181Y-65702654D01*
X75362531Y-65474627D01*
X75362531Y-65474625D01*
X75362751Y-65472161D01*
X75363193Y-65430000D01*
X75349810Y-65233684D01*
X75344859Y-65161055D01*
X75344858Y-65161049D01*
X75344567Y-65156778D01*
X75320689Y-65041474D01*
X75296814Y-64926191D01*
X75289032Y-64888612D01*
X75197617Y-64630465D01*
X75072013Y-64387112D01*
X75062040Y-64372921D01*
X74917008Y-64166562D01*
X74914545Y-64163057D01*
X74728125Y-63962445D01*
X74724810Y-63959731D01*
X74724806Y-63959728D01*
X74594069Y-63852721D01*
X74516205Y-63788990D01*
X74458302Y-63753507D01*
X74425544Y-63733433D01*
X74377913Y-63680785D01*
X74366306Y-63610744D01*
X74394409Y-63545546D01*
X74453299Y-63505892D01*
X74491379Y-63500000D01*
X96394000Y-63500000D01*
X96462121Y-63520002D01*
X96508614Y-63573658D01*
X96520000Y-63626000D01*
X96520000Y-128144000D01*
X96499998Y-128212121D01*
X96446342Y-128258614D01*
X96394000Y-128270000D01*
X82668287Y-128270000D01*
X82600166Y-128249998D01*
X82553673Y-128196342D01*
X82543569Y-128126068D01*
X82573556Y-128060922D01*
X82605251Y-128024781D01*
X82605255Y-128024775D01*
X82608339Y-128021259D01*
X82749733Y-127801437D01*
X82857083Y-127563129D01*
X82858353Y-127558626D01*
X82926760Y-127316076D01*
X82926761Y-127316073D01*
X82928030Y-127311572D01*
X82944832Y-127179496D01*
X82960616Y-127055421D01*
X82960616Y-127055417D01*
X82961014Y-127052291D01*
X82961281Y-127042115D01*
X82963348Y-126963160D01*
X82963431Y-126960000D01*
X82959655Y-126909185D01*
X82944407Y-126704000D01*
X82944406Y-126703996D01*
X82944061Y-126699348D01*
X82939450Y-126678968D01*
X82891769Y-126468251D01*
X82886377Y-126444423D01*
X82871787Y-126406904D01*
X82793340Y-126205176D01*
X82793339Y-126205173D01*
X82791647Y-126200823D01*
X82661951Y-125973902D01*
X82500138Y-125768643D01*
X82309763Y-125589557D01*
X82285935Y-125573027D01*
X82241365Y-125517765D01*
X82233748Y-125447178D01*
X82265502Y-125383678D01*
X82326546Y-125347426D01*
X82357755Y-125343500D01*
X90575501Y-125343500D01*
X90643622Y-125363502D01*
X90690115Y-125417158D01*
X90701501Y-125469500D01*
X90701501Y-125573868D01*
X90711687Y-125688009D01*
X90713339Y-125693769D01*
X90713339Y-125693771D01*
X90726197Y-125738611D01*
X90764856Y-125873432D01*
X90854224Y-126044377D01*
X90976139Y-126193861D01*
X91125623Y-126315776D01*
X91296568Y-126405144D01*
X91481991Y-126458313D01*
X91514031Y-126461173D01*
X91593338Y-126468251D01*
X91593344Y-126468251D01*
X91596131Y-126468500D01*
X92710000Y-126468500D01*
X93823868Y-126468499D01*
X93826654Y-126468250D01*
X93826662Y-126468250D01*
X93932037Y-126458846D01*
X93932038Y-126458846D01*
X93938009Y-126458313D01*
X93943769Y-126456661D01*
X93943771Y-126456661D01*
X94117294Y-126406904D01*
X94123432Y-126405144D01*
X94294377Y-126315776D01*
X94443861Y-126193861D01*
X94565776Y-126044377D01*
X94655144Y-125873432D01*
X94708313Y-125688009D01*
X94718500Y-125573869D01*
X94718499Y-123346132D01*
X94708313Y-123231991D01*
X94699192Y-123200180D01*
X94656904Y-123052706D01*
X94655144Y-123046568D01*
X94565776Y-122875623D01*
X94443861Y-122726139D01*
X94294377Y-122604224D01*
X94123432Y-122514856D01*
X93938009Y-122461687D01*
X93905969Y-122458827D01*
X93826662Y-122451749D01*
X93826656Y-122451749D01*
X93823869Y-122451500D01*
X93821067Y-122451500D01*
X92710001Y-122451501D01*
X91596132Y-122451501D01*
X91593346Y-122451750D01*
X91593338Y-122451750D01*
X91487963Y-122461154D01*
X91487962Y-122461154D01*
X91481991Y-122461687D01*
X91476231Y-122463339D01*
X91476229Y-122463339D01*
X91372789Y-122493000D01*
X91296568Y-122514856D01*
X91228204Y-122550596D01*
X91204913Y-122562772D01*
X91135277Y-122576606D01*
X91069217Y-122550596D01*
X91027705Y-122493000D01*
X91023922Y-122422104D01*
X91057443Y-122362015D01*
X92004835Y-121414623D01*
X92067147Y-121380597D01*
X92129715Y-121382907D01*
X92270836Y-121424709D01*
X92275070Y-121425357D01*
X92275075Y-121425358D01*
X92537298Y-121465483D01*
X92537300Y-121465483D01*
X92541540Y-121466132D01*
X92680912Y-121468322D01*
X92811071Y-121470367D01*
X92811077Y-121470367D01*
X92815362Y-121470434D01*
X93087235Y-121437534D01*
X93352127Y-121368041D01*
X93356087Y-121366401D01*
X93356092Y-121366399D01*
X93536507Y-121291668D01*
X93605136Y-121263241D01*
X93841582Y-121125073D01*
X94057089Y-120956094D01*
X94247669Y-120759431D01*
X94250202Y-120755983D01*
X94250206Y-120755978D01*
X94407257Y-120542178D01*
X94409795Y-120538723D01*
X94540468Y-120298054D01*
X94605956Y-120124744D01*
X94635751Y-120045895D01*
X94635752Y-120045891D01*
X94637269Y-120041877D01*
X94698407Y-119774933D01*
X94699189Y-119766179D01*
X94722531Y-119504627D01*
X94722531Y-119504625D01*
X94722751Y-119502161D01*
X94723193Y-119460000D01*
X94713790Y-119322071D01*
X94704859Y-119191055D01*
X94704858Y-119191049D01*
X94704567Y-119186778D01*
X94693063Y-119131225D01*
X94676800Y-119052695D01*
X94649032Y-118918612D01*
X94557617Y-118660465D01*
X94518036Y-118583778D01*
X94433978Y-118420919D01*
X94433978Y-118420918D01*
X94432013Y-118417112D01*
X94429248Y-118413177D01*
X94284689Y-118207491D01*
X94274545Y-118193057D01*
X94185669Y-118097415D01*
X94091046Y-117995588D01*
X94091043Y-117995585D01*
X94088125Y-117992445D01*
X94084810Y-117989731D01*
X94084806Y-117989728D01*
X93930132Y-117863129D01*
X93876205Y-117818990D01*
X93642704Y-117675901D01*
X93638768Y-117674173D01*
X93395873Y-117567549D01*
X93395869Y-117567548D01*
X93391945Y-117565825D01*
X93128566Y-117490800D01*
X93124324Y-117490196D01*
X93124318Y-117490195D01*
X92923834Y-117461662D01*
X92857443Y-117452213D01*
X92713589Y-117451460D01*
X92587877Y-117450802D01*
X92587871Y-117450802D01*
X92583591Y-117450780D01*
X92579347Y-117451339D01*
X92579343Y-117451339D01*
X92460302Y-117467011D01*
X92312078Y-117486525D01*
X92307938Y-117487658D01*
X92307936Y-117487658D01*
X92235008Y-117507609D01*
X92047928Y-117558788D01*
X92043980Y-117560472D01*
X91799982Y-117664546D01*
X91799978Y-117664548D01*
X91796030Y-117666232D01*
X91695035Y-117726676D01*
X91564725Y-117804664D01*
X91564721Y-117804667D01*
X91561043Y-117806868D01*
X91347318Y-117978094D01*
X91253407Y-118077056D01*
X91162554Y-118172795D01*
X91158808Y-118176742D01*
X90999002Y-118399136D01*
X90870857Y-118641161D01*
X90869385Y-118645184D01*
X90869383Y-118645188D01*
X90796976Y-118843048D01*
X90776743Y-118898337D01*
X90718404Y-119165907D01*
X90696917Y-119438918D01*
X90712682Y-119712320D01*
X90713507Y-119716525D01*
X90713508Y-119716533D01*
X90724127Y-119770657D01*
X90765405Y-119981053D01*
X90766795Y-119985112D01*
X90784352Y-120036394D01*
X90787494Y-120107321D01*
X90754240Y-120166302D01*
X89521847Y-121398695D01*
X89459535Y-121432721D01*
X89432752Y-121435600D01*
X83675384Y-121435600D01*
X83607263Y-121415598D01*
X83560770Y-121361942D01*
X83550666Y-121291668D01*
X83573441Y-121235549D01*
X83574864Y-121233590D01*
X83587712Y-121218546D01*
X86655353Y-118150905D01*
X86717665Y-118116879D01*
X86744448Y-118114000D01*
X89860043Y-118114000D01*
X89879755Y-118115551D01*
X89893007Y-118117650D01*
X89899594Y-118117305D01*
X89899598Y-118117305D01*
X89959350Y-118114173D01*
X89965945Y-118114000D01*
X89985806Y-118114000D01*
X90005569Y-118111923D01*
X90012128Y-118111407D01*
X90027927Y-118110579D01*
X90071877Y-118108276D01*
X90071881Y-118108275D01*
X90078471Y-118107930D01*
X90091429Y-118104458D01*
X90110872Y-118100855D01*
X90111295Y-118100811D01*
X90124202Y-118099454D01*
X90187394Y-118078922D01*
X90193696Y-118077056D01*
X90251485Y-118061571D01*
X90257863Y-118059862D01*
X90263742Y-118056866D01*
X90263751Y-118056863D01*
X90269817Y-118053772D01*
X90288079Y-118046208D01*
X90294543Y-118044108D01*
X90294551Y-118044105D01*
X90300831Y-118042064D01*
X90306550Y-118038762D01*
X90306555Y-118038760D01*
X90358367Y-118008846D01*
X90364137Y-118005713D01*
X90423339Y-117975547D01*
X90433759Y-117967109D01*
X90450052Y-117955911D01*
X90450403Y-117955709D01*
X90461669Y-117949204D01*
X90466575Y-117944787D01*
X90466580Y-117944783D01*
X90511038Y-117904753D01*
X90516054Y-117900469D01*
X90528909Y-117890059D01*
X90528912Y-117890056D01*
X90531486Y-117887972D01*
X90545531Y-117873927D01*
X90550316Y-117869386D01*
X90594774Y-117829356D01*
X90594775Y-117829355D01*
X90599685Y-117824934D01*
X90607575Y-117814074D01*
X90620412Y-117799046D01*
X92004834Y-116414623D01*
X92067146Y-116380598D01*
X92129714Y-116382907D01*
X92150885Y-116389178D01*
X92266723Y-116423491D01*
X92266727Y-116423492D01*
X92270836Y-116424709D01*
X92275070Y-116425357D01*
X92275075Y-116425358D01*
X92537298Y-116465483D01*
X92537300Y-116465483D01*
X92541540Y-116466132D01*
X92680912Y-116468322D01*
X92811071Y-116470367D01*
X92811077Y-116470367D01*
X92815362Y-116470434D01*
X93087235Y-116437534D01*
X93352127Y-116368041D01*
X93356087Y-116366401D01*
X93356092Y-116366399D01*
X93587577Y-116270514D01*
X93605136Y-116263241D01*
X93841582Y-116125073D01*
X94057089Y-115956094D01*
X94159242Y-115850681D01*
X94244686Y-115762509D01*
X94247669Y-115759431D01*
X94250202Y-115755983D01*
X94250206Y-115755978D01*
X94407257Y-115542178D01*
X94409795Y-115538723D01*
X94411841Y-115534955D01*
X94538418Y-115301830D01*
X94538419Y-115301828D01*
X94540468Y-115298054D01*
X94611249Y-115110737D01*
X94635751Y-115045895D01*
X94635752Y-115045891D01*
X94637269Y-115041877D01*
X94683284Y-114840965D01*
X94697449Y-114779117D01*
X94697450Y-114779113D01*
X94698407Y-114774933D01*
X94709265Y-114653276D01*
X94722531Y-114504627D01*
X94722531Y-114504625D01*
X94722751Y-114502161D01*
X94722803Y-114497251D01*
X94723167Y-114462484D01*
X94723167Y-114462483D01*
X94723193Y-114460000D01*
X94721465Y-114434648D01*
X94704859Y-114191055D01*
X94704858Y-114191049D01*
X94704567Y-114186778D01*
X94698074Y-114155422D01*
X94668211Y-114011224D01*
X94649032Y-113918612D01*
X94557617Y-113660465D01*
X94485524Y-113520787D01*
X94433978Y-113420919D01*
X94433978Y-113420918D01*
X94432013Y-113417112D01*
X94429248Y-113413177D01*
X94340873Y-113287432D01*
X94274545Y-113193057D01*
X94204466Y-113117643D01*
X94091046Y-112995588D01*
X94091043Y-112995585D01*
X94088125Y-112992445D01*
X94084810Y-112989731D01*
X94084806Y-112989728D01*
X93928015Y-112861396D01*
X93876205Y-112818990D01*
X93642704Y-112675901D01*
X93638768Y-112674173D01*
X93395873Y-112567549D01*
X93395869Y-112567548D01*
X93391945Y-112565825D01*
X93128566Y-112490800D01*
X93124324Y-112490196D01*
X93124318Y-112490195D01*
X92923834Y-112461662D01*
X92857443Y-112452213D01*
X92713589Y-112451460D01*
X92587877Y-112450802D01*
X92587871Y-112450802D01*
X92583591Y-112450780D01*
X92579347Y-112451339D01*
X92579343Y-112451339D01*
X92460302Y-112467011D01*
X92312078Y-112486525D01*
X92307938Y-112487658D01*
X92307936Y-112487658D01*
X92285730Y-112493733D01*
X92047928Y-112558788D01*
X92043980Y-112560472D01*
X91799982Y-112664546D01*
X91799978Y-112664548D01*
X91796030Y-112666232D01*
X91776125Y-112678145D01*
X91564725Y-112804664D01*
X91564721Y-112804667D01*
X91561043Y-112806868D01*
X91347318Y-112978094D01*
X91241275Y-113089840D01*
X91179568Y-113154866D01*
X91158808Y-113176742D01*
X90999002Y-113399136D01*
X90870857Y-113641161D01*
X90869385Y-113645184D01*
X90869383Y-113645188D01*
X90829024Y-113755474D01*
X90776743Y-113898337D01*
X90718404Y-114165907D01*
X90696917Y-114438918D01*
X90712682Y-114712320D01*
X90713507Y-114716525D01*
X90713508Y-114716533D01*
X90724127Y-114770657D01*
X90765405Y-114981053D01*
X90766795Y-114985112D01*
X90766795Y-114985113D01*
X90784352Y-115036395D01*
X90787493Y-115107322D01*
X90754240Y-115166303D01*
X90181938Y-115738604D01*
X89610447Y-116310095D01*
X89548135Y-116344121D01*
X89521352Y-116347000D01*
X86686433Y-116347000D01*
X86618312Y-116326998D01*
X86597340Y-116310098D01*
X86523209Y-116235970D01*
X84814703Y-114527543D01*
X84801861Y-114512507D01*
X84793985Y-114501666D01*
X84744603Y-114457202D01*
X84739822Y-114452665D01*
X84728102Y-114440946D01*
X84725770Y-114438614D01*
X84710327Y-114426108D01*
X84705354Y-114421862D01*
X84655969Y-114377396D01*
X84644337Y-114370680D01*
X84628053Y-114359488D01*
X84622753Y-114355196D01*
X84622749Y-114355194D01*
X84617622Y-114351042D01*
X84558450Y-114320893D01*
X84552652Y-114317745D01*
X84500852Y-114287838D01*
X84500845Y-114287835D01*
X84495131Y-114284536D01*
X84482357Y-114280385D01*
X84464103Y-114272824D01*
X84452144Y-114266731D01*
X84445776Y-114265025D01*
X84445766Y-114265021D01*
X84387984Y-114249540D01*
X84381656Y-114247666D01*
X84344607Y-114235628D01*
X84294448Y-114204890D01*
X84225103Y-114135545D01*
X84191077Y-114073233D01*
X84196142Y-114002418D01*
X84238689Y-113945582D01*
X84272089Y-113927891D01*
X84274117Y-113927357D01*
X84278405Y-113925515D01*
X84278410Y-113925513D01*
X84509972Y-113826025D01*
X84514262Y-113824182D01*
X84736519Y-113686646D01*
X84740082Y-113683629D01*
X84740087Y-113683626D01*
X84932439Y-113520787D01*
X84932440Y-113520786D01*
X84936005Y-113517768D01*
X85005514Y-113438508D01*
X85105257Y-113324774D01*
X85105261Y-113324769D01*
X85108339Y-113321259D01*
X85116711Y-113308243D01*
X85247208Y-113105363D01*
X85247210Y-113105360D01*
X85249733Y-113101437D01*
X85253269Y-113093587D01*
X85299482Y-113039690D01*
X85310936Y-113033073D01*
X85365939Y-113005047D01*
X85376359Y-112996609D01*
X85392652Y-112985411D01*
X85393003Y-112985209D01*
X85404269Y-112978704D01*
X85409175Y-112974287D01*
X85409180Y-112974283D01*
X85453638Y-112934253D01*
X85458654Y-112929969D01*
X85471509Y-112919559D01*
X85471512Y-112919556D01*
X85474086Y-112917472D01*
X85488131Y-112903427D01*
X85492916Y-112898886D01*
X85537374Y-112858856D01*
X85537375Y-112858855D01*
X85542285Y-112854434D01*
X85550175Y-112843574D01*
X85563012Y-112828546D01*
X88658170Y-109733388D01*
X90717325Y-109733388D01*
X90765065Y-109976722D01*
X90767276Y-109984974D01*
X90853184Y-110235894D01*
X90856499Y-110243779D01*
X90975664Y-110480713D01*
X90980020Y-110488079D01*
X91130236Y-110706643D01*
X91135554Y-110713353D01*
X91314042Y-110909508D01*
X91320218Y-110915431D01*
X91523683Y-111085554D01*
X91530597Y-111090578D01*
X91755272Y-111231515D01*
X91762807Y-111235556D01*
X92004520Y-111344694D01*
X92012551Y-111347680D01*
X92266832Y-111423002D01*
X92275184Y-111424869D01*
X92438090Y-111449796D01*
X92451877Y-111447941D01*
X92456000Y-111434132D01*
X92456000Y-111433829D01*
X92964000Y-111433829D01*
X92968105Y-111447811D01*
X92981271Y-111449854D01*
X93082880Y-111437558D01*
X93091288Y-111435954D01*
X93347824Y-111368653D01*
X93355926Y-111365926D01*
X93600949Y-111264434D01*
X93608617Y-111260628D01*
X93837598Y-111126822D01*
X93844679Y-111122009D01*
X94053373Y-110958373D01*
X94059743Y-110952638D01*
X94244303Y-110762186D01*
X94249823Y-110755655D01*
X94406834Y-110541909D01*
X94411418Y-110534686D01*
X94537962Y-110301621D01*
X94541530Y-110293827D01*
X94635271Y-110045750D01*
X94637748Y-110037544D01*
X94696954Y-109779038D01*
X94698294Y-109770578D01*
X94701733Y-109732044D01*
X94698762Y-109717125D01*
X94686952Y-109714000D01*
X92982115Y-109714000D01*
X92966876Y-109718475D01*
X92965671Y-109719865D01*
X92964000Y-109727548D01*
X92964000Y-111433829D01*
X92456000Y-111433829D01*
X92456000Y-109732115D01*
X92451525Y-109716876D01*
X92450135Y-109715671D01*
X92442452Y-109714000D01*
X90731636Y-109714000D01*
X90719179Y-109717658D01*
X90717325Y-109733388D01*
X88658170Y-109733388D01*
X89153046Y-109238512D01*
X89168074Y-109225675D01*
X89178934Y-109217785D01*
X89192220Y-109203030D01*
X89205809Y-109187938D01*
X90717171Y-109187938D01*
X90720341Y-109203030D01*
X90731804Y-109206000D01*
X92437885Y-109206000D01*
X92453124Y-109201525D01*
X92454329Y-109200135D01*
X92456000Y-109192452D01*
X92456000Y-109187885D01*
X92964000Y-109187885D01*
X92968475Y-109203124D01*
X92969865Y-109204329D01*
X92977548Y-109206000D01*
X94687261Y-109206000D01*
X94702252Y-109201598D01*
X94704275Y-109190490D01*
X94703200Y-109182647D01*
X94649419Y-108922944D01*
X94647120Y-108914709D01*
X94558588Y-108664705D01*
X94555191Y-108656854D01*
X94433550Y-108421178D01*
X94429122Y-108413866D01*
X94276619Y-108196877D01*
X94271236Y-108190231D01*
X94090703Y-107995954D01*
X94084463Y-107990094D01*
X93879233Y-107822114D01*
X93872261Y-107817160D01*
X93646122Y-107678582D01*
X93638552Y-107674624D01*
X93395704Y-107568022D01*
X93387644Y-107565120D01*
X93132590Y-107492466D01*
X93124215Y-107490686D01*
X92981935Y-107470437D01*
X92967949Y-107472468D01*
X92964000Y-107485953D01*
X92964000Y-109187885D01*
X92456000Y-109187885D01*
X92456000Y-107486197D01*
X92451956Y-107472426D01*
X92438417Y-107470397D01*
X92316433Y-107486456D01*
X92308035Y-107488149D01*
X92052238Y-107558127D01*
X92044143Y-107560946D01*
X91800199Y-107664997D01*
X91792577Y-107668881D01*
X91565014Y-107805075D01*
X91557976Y-107809966D01*
X91351015Y-107975773D01*
X91344699Y-107981581D01*
X91162144Y-108173953D01*
X91156694Y-108180542D01*
X91001936Y-108395910D01*
X90997414Y-108403204D01*
X90873325Y-108637567D01*
X90869839Y-108645395D01*
X90778700Y-108894446D01*
X90776311Y-108902670D01*
X90719812Y-109161792D01*
X90718562Y-109170259D01*
X90717171Y-109187938D01*
X89205809Y-109187938D01*
X89223386Y-109168416D01*
X89227927Y-109163631D01*
X89241972Y-109149586D01*
X89244059Y-109147009D01*
X89254469Y-109134154D01*
X89258753Y-109129138D01*
X89298783Y-109084680D01*
X89298787Y-109084675D01*
X89303204Y-109079769D01*
X89309911Y-109068152D01*
X89321109Y-109051859D01*
X89325391Y-109046571D01*
X89329547Y-109041439D01*
X89359713Y-108982237D01*
X89362846Y-108976467D01*
X89392760Y-108924655D01*
X89392762Y-108924650D01*
X89396064Y-108918931D01*
X89398105Y-108912651D01*
X89398108Y-108912643D01*
X89400208Y-108906179D01*
X89407772Y-108887917D01*
X89410863Y-108881851D01*
X89410866Y-108881842D01*
X89413862Y-108875963D01*
X89424784Y-108835202D01*
X89431056Y-108811796D01*
X89432922Y-108805494D01*
X89453454Y-108742302D01*
X89454855Y-108728972D01*
X89458458Y-108709529D01*
X89461930Y-108696571D01*
X89464012Y-108656854D01*
X89465406Y-108630246D01*
X89465923Y-108623671D01*
X89467656Y-108607179D01*
X89468000Y-108603906D01*
X89468000Y-108584032D01*
X89468173Y-108577438D01*
X89471304Y-108517699D01*
X89471304Y-108517695D01*
X89471649Y-108511107D01*
X89469551Y-108497860D01*
X89468000Y-108478150D01*
X89468000Y-107359157D01*
X89469551Y-107339445D01*
X89470618Y-107332708D01*
X89471650Y-107326193D01*
X89468173Y-107259850D01*
X89468000Y-107253255D01*
X89468000Y-107233394D01*
X89465923Y-107213631D01*
X89465407Y-107207067D01*
X89462276Y-107147323D01*
X89462275Y-107147319D01*
X89461930Y-107140729D01*
X89458458Y-107127771D01*
X89454855Y-107108328D01*
X89454144Y-107101566D01*
X89453454Y-107094998D01*
X89432922Y-107031806D01*
X89431056Y-107025504D01*
X89415571Y-106967715D01*
X89413862Y-106961337D01*
X89410866Y-106955458D01*
X89410863Y-106955449D01*
X89407772Y-106949383D01*
X89400208Y-106931121D01*
X89398108Y-106924657D01*
X89398105Y-106924649D01*
X89396064Y-106918369D01*
X89392762Y-106912650D01*
X89392760Y-106912645D01*
X89362846Y-106860833D01*
X89359713Y-106855063D01*
X89329547Y-106795861D01*
X89321110Y-106785442D01*
X89309910Y-106769146D01*
X89306504Y-106763246D01*
X89306502Y-106763243D01*
X89303204Y-106757531D01*
X89298788Y-106752626D01*
X89298784Y-106752621D01*
X89258746Y-106708153D01*
X89254466Y-106703143D01*
X89244046Y-106690276D01*
X89244045Y-106690275D01*
X89241972Y-106687715D01*
X89227936Y-106673679D01*
X89223395Y-106668894D01*
X89183356Y-106624426D01*
X89183355Y-106624425D01*
X89178934Y-106619515D01*
X89173594Y-106615635D01*
X89173586Y-106615628D01*
X89168078Y-106611627D01*
X89153043Y-106598786D01*
X87113612Y-104559354D01*
X87100775Y-104544326D01*
X87092885Y-104533466D01*
X87043516Y-104489014D01*
X87038731Y-104484473D01*
X87024686Y-104470428D01*
X87022109Y-104468341D01*
X87009254Y-104457931D01*
X87004238Y-104453647D01*
X86959780Y-104413617D01*
X86959775Y-104413613D01*
X86954869Y-104409196D01*
X86943252Y-104402489D01*
X86926959Y-104391291D01*
X86926112Y-104390605D01*
X86916539Y-104382853D01*
X86857337Y-104352687D01*
X86851567Y-104349554D01*
X86799755Y-104319640D01*
X86799750Y-104319638D01*
X86794031Y-104316336D01*
X86787751Y-104314295D01*
X86787743Y-104314292D01*
X86781279Y-104312192D01*
X86763017Y-104304628D01*
X86756951Y-104301537D01*
X86756942Y-104301534D01*
X86751063Y-104298538D01*
X86740300Y-104295654D01*
X86686896Y-104281344D01*
X86680594Y-104279478D01*
X86617402Y-104258946D01*
X86604072Y-104257545D01*
X86584629Y-104253942D01*
X86571671Y-104250470D01*
X86565081Y-104250125D01*
X86565077Y-104250124D01*
X86521127Y-104247821D01*
X86505328Y-104246993D01*
X86498769Y-104246477D01*
X86479006Y-104244400D01*
X86459145Y-104244400D01*
X86452550Y-104244227D01*
X86392798Y-104241095D01*
X86392794Y-104241095D01*
X86386207Y-104240750D01*
X86372953Y-104242849D01*
X86353244Y-104244400D01*
X85603732Y-104244400D01*
X85535611Y-104224398D01*
X85489118Y-104170742D01*
X85479014Y-104100468D01*
X85508508Y-104035888D01*
X85517741Y-104026721D01*
X85517705Y-104026685D01*
X85521213Y-104023177D01*
X85524969Y-104019969D01*
X85679176Y-103839416D01*
X85681755Y-103835208D01*
X85681759Y-103835202D01*
X85800654Y-103641183D01*
X85803240Y-103636963D01*
X85809263Y-103622424D01*
X85892211Y-103422167D01*
X85892212Y-103422165D01*
X85894105Y-103417594D01*
X85932077Y-103259431D01*
X85948380Y-103191524D01*
X85948381Y-103191518D01*
X85949535Y-103186711D01*
X85968165Y-102950000D01*
X85949535Y-102713289D01*
X85947916Y-102706543D01*
X85900898Y-102510701D01*
X85894105Y-102482406D01*
X85827183Y-102320840D01*
X85805135Y-102267611D01*
X85805133Y-102267607D01*
X85803240Y-102263037D01*
X85774742Y-102216533D01*
X85681759Y-102064798D01*
X85681755Y-102064792D01*
X85679176Y-102060584D01*
X85524969Y-101880031D01*
X85344416Y-101725824D01*
X85340208Y-101723245D01*
X85340202Y-101723241D01*
X85146183Y-101604346D01*
X85141963Y-101601760D01*
X85137393Y-101599867D01*
X85137389Y-101599865D01*
X84927167Y-101512789D01*
X84927165Y-101512788D01*
X84922594Y-101510895D01*
X84842391Y-101491640D01*
X84696524Y-101456620D01*
X84696518Y-101456619D01*
X84691711Y-101455465D01*
X84455000Y-101436835D01*
X84268440Y-101451518D01*
X84198960Y-101436922D01*
X84169459Y-101415001D01*
X80840512Y-98086054D01*
X80827675Y-98071026D01*
X80819785Y-98060166D01*
X80770416Y-98015714D01*
X80765631Y-98011173D01*
X80751586Y-97997128D01*
X80749009Y-97995041D01*
X80736154Y-97984631D01*
X80731138Y-97980347D01*
X80686680Y-97940317D01*
X80686675Y-97940313D01*
X80681769Y-97935896D01*
X80670152Y-97929189D01*
X80653859Y-97917991D01*
X80648571Y-97913709D01*
X80643439Y-97909553D01*
X80584237Y-97879387D01*
X80578467Y-97876254D01*
X80526655Y-97846340D01*
X80526650Y-97846338D01*
X80520931Y-97843036D01*
X80514651Y-97840995D01*
X80514643Y-97840992D01*
X80508179Y-97838892D01*
X80489917Y-97831328D01*
X80483851Y-97828237D01*
X80483842Y-97828234D01*
X80477963Y-97825238D01*
X80460710Y-97820615D01*
X80413796Y-97808044D01*
X80407494Y-97806178D01*
X80344302Y-97785646D01*
X80330972Y-97784245D01*
X80311529Y-97780642D01*
X80298571Y-97777170D01*
X80291981Y-97776825D01*
X80291977Y-97776824D01*
X80248027Y-97774521D01*
X80232228Y-97773693D01*
X80225669Y-97773177D01*
X80205906Y-97771100D01*
X80186045Y-97771100D01*
X80179450Y-97770927D01*
X80119698Y-97767795D01*
X80119694Y-97767795D01*
X80113107Y-97767450D01*
X80099853Y-97769549D01*
X80080144Y-97771100D01*
X76808447Y-97771100D01*
X76782250Y-97768347D01*
X76684044Y-97747472D01*
X76684039Y-97747472D01*
X76677587Y-97746100D01*
X76486613Y-97746100D01*
X76480161Y-97747472D01*
X76480156Y-97747472D01*
X76393213Y-97765953D01*
X76299812Y-97785806D01*
X76293782Y-97788491D01*
X76293781Y-97788491D01*
X76131378Y-97860797D01*
X76131376Y-97860798D01*
X76125348Y-97863482D01*
X76120007Y-97867362D01*
X76120006Y-97867363D01*
X76103436Y-97879402D01*
X75970847Y-97975734D01*
X75966426Y-97980644D01*
X75966425Y-97980645D01*
X75871515Y-98086054D01*
X75843060Y-98117656D01*
X75747573Y-98283044D01*
X75688558Y-98464672D01*
X75687868Y-98471233D01*
X75687868Y-98471235D01*
X75671886Y-98623295D01*
X75668596Y-98654600D01*
X75669286Y-98661165D01*
X75683595Y-98797303D01*
X75688558Y-98844528D01*
X75747573Y-99026156D01*
X75750876Y-99031878D01*
X75750877Y-99031879D01*
X75784786Y-99090610D01*
X75843060Y-99191544D01*
X75847478Y-99196451D01*
X75847479Y-99196452D01*
X75919356Y-99276279D01*
X75970847Y-99333466D01*
X76125348Y-99445718D01*
X76131376Y-99448402D01*
X76131378Y-99448403D01*
X76210502Y-99483631D01*
X76299812Y-99523394D01*
X76381950Y-99540853D01*
X76480156Y-99561728D01*
X76480161Y-99561728D01*
X76486613Y-99563100D01*
X76677587Y-99563100D01*
X76684039Y-99561728D01*
X76684044Y-99561728D01*
X76782250Y-99540853D01*
X76808447Y-99538100D01*
X79741452Y-99538100D01*
X79809573Y-99558102D01*
X79830547Y-99575005D01*
X82920001Y-102664459D01*
X82954027Y-102726771D01*
X82956518Y-102763440D01*
X82941835Y-102950000D01*
X82960465Y-103186711D01*
X82961619Y-103191518D01*
X82961620Y-103191524D01*
X82977923Y-103259431D01*
X83015895Y-103417594D01*
X83017788Y-103422165D01*
X83017789Y-103422167D01*
X83100738Y-103622424D01*
X83106760Y-103636963D01*
X83109346Y-103641183D01*
X83228241Y-103835202D01*
X83228245Y-103835208D01*
X83230824Y-103839416D01*
X83385031Y-104019969D01*
X83388787Y-104023177D01*
X83392295Y-104026685D01*
X83391373Y-104027607D01*
X83426905Y-104082032D01*
X83427417Y-104153027D01*
X83389464Y-104213028D01*
X83325097Y-104242985D01*
X83306268Y-104244400D01*
X77348732Y-104244400D01*
X77280611Y-104224398D01*
X77234118Y-104170742D01*
X77224014Y-104100468D01*
X77253508Y-104035888D01*
X77262741Y-104026721D01*
X77262705Y-104026685D01*
X77266213Y-104023177D01*
X77269969Y-104019969D01*
X77424176Y-103839416D01*
X77426755Y-103835208D01*
X77426759Y-103835202D01*
X77545654Y-103641183D01*
X77548240Y-103636963D01*
X77554263Y-103622424D01*
X77637211Y-103422167D01*
X77637212Y-103422165D01*
X77639105Y-103417594D01*
X77677077Y-103259431D01*
X77693380Y-103191524D01*
X77693381Y-103191518D01*
X77694535Y-103186711D01*
X77713165Y-102950000D01*
X77694535Y-102713289D01*
X77692916Y-102706543D01*
X77645898Y-102510701D01*
X77639105Y-102482406D01*
X77572183Y-102320840D01*
X77550135Y-102267611D01*
X77550133Y-102267607D01*
X77548240Y-102263037D01*
X77519742Y-102216533D01*
X77426759Y-102064798D01*
X77426755Y-102064792D01*
X77424176Y-102060584D01*
X77269969Y-101880031D01*
X77089416Y-101725824D01*
X77085208Y-101723245D01*
X77085202Y-101723241D01*
X76891183Y-101604346D01*
X76886963Y-101601760D01*
X76882393Y-101599867D01*
X76882389Y-101599865D01*
X76672167Y-101512789D01*
X76672165Y-101512788D01*
X76667594Y-101510895D01*
X76587391Y-101491640D01*
X76441524Y-101456620D01*
X76441518Y-101456619D01*
X76436711Y-101455465D01*
X76200000Y-101436835D01*
X75963289Y-101455465D01*
X75958482Y-101456619D01*
X75958476Y-101456620D01*
X75812609Y-101491640D01*
X75732406Y-101510895D01*
X75727835Y-101512788D01*
X75727833Y-101512789D01*
X75517611Y-101599865D01*
X75517607Y-101599867D01*
X75513037Y-101601760D01*
X75508817Y-101604346D01*
X75314798Y-101723241D01*
X75314792Y-101723245D01*
X75310584Y-101725824D01*
X75130031Y-101880031D01*
X74975824Y-102060584D01*
X74973245Y-102064792D01*
X74973241Y-102064798D01*
X74880258Y-102216533D01*
X74851760Y-102263037D01*
X74849867Y-102267607D01*
X74849865Y-102267611D01*
X74827817Y-102320840D01*
X74760895Y-102482406D01*
X74754102Y-102510701D01*
X74707085Y-102706543D01*
X74705465Y-102713289D01*
X74686835Y-102950000D01*
X74705465Y-103186711D01*
X74706619Y-103191518D01*
X74706620Y-103191524D01*
X74722923Y-103259431D01*
X74760895Y-103417594D01*
X74762788Y-103422165D01*
X74762789Y-103422167D01*
X74845738Y-103622424D01*
X74851760Y-103636963D01*
X74854346Y-103641183D01*
X74973241Y-103835202D01*
X74973245Y-103835208D01*
X74975824Y-103839416D01*
X75130031Y-104019969D01*
X75133787Y-104023177D01*
X75137295Y-104026685D01*
X75136373Y-104027607D01*
X75171905Y-104082032D01*
X75172417Y-104153027D01*
X75134464Y-104213028D01*
X75070097Y-104242985D01*
X75051268Y-104244400D01*
X69093732Y-104244400D01*
X69025611Y-104224398D01*
X68979118Y-104170742D01*
X68969014Y-104100468D01*
X68998508Y-104035888D01*
X69007741Y-104026721D01*
X69007705Y-104026685D01*
X69011213Y-104023177D01*
X69014969Y-104019969D01*
X69169176Y-103839416D01*
X69171755Y-103835208D01*
X69171759Y-103835202D01*
X69290654Y-103641183D01*
X69293240Y-103636963D01*
X69299263Y-103622424D01*
X69382211Y-103422167D01*
X69382212Y-103422165D01*
X69384105Y-103417594D01*
X69422077Y-103259431D01*
X69438380Y-103191524D01*
X69438381Y-103191518D01*
X69439535Y-103186711D01*
X69458165Y-102950000D01*
X69439535Y-102713289D01*
X69437916Y-102706543D01*
X69390898Y-102510701D01*
X69384105Y-102482406D01*
X69317183Y-102320840D01*
X69295135Y-102267611D01*
X69295133Y-102267607D01*
X69293240Y-102263037D01*
X69264742Y-102216533D01*
X69171759Y-102064798D01*
X69171755Y-102064792D01*
X69169176Y-102060584D01*
X69014969Y-101880031D01*
X68997638Y-101865229D01*
X68872669Y-101758495D01*
X68833860Y-101699044D01*
X68828500Y-101662684D01*
X68828500Y-99483631D01*
X68845381Y-99420631D01*
X68928723Y-99276279D01*
X68928724Y-99276278D01*
X68932027Y-99270556D01*
X68991042Y-99088928D01*
X69000187Y-99001923D01*
X69010314Y-98905565D01*
X69011004Y-98899000D01*
X68991872Y-98716970D01*
X69004644Y-98647132D01*
X69053146Y-98595285D01*
X69117182Y-98577800D01*
X72893943Y-98577800D01*
X72913655Y-98579351D01*
X72926907Y-98581450D01*
X72933494Y-98581105D01*
X72933498Y-98581105D01*
X72993250Y-98577973D01*
X72999845Y-98577800D01*
X73019706Y-98577800D01*
X73039469Y-98575723D01*
X73046028Y-98575207D01*
X73061827Y-98574379D01*
X73105777Y-98572076D01*
X73105781Y-98572075D01*
X73112371Y-98571730D01*
X73125329Y-98568258D01*
X73144772Y-98564655D01*
X73145195Y-98564611D01*
X73158102Y-98563254D01*
X73221294Y-98542722D01*
X73227596Y-98540856D01*
X73285385Y-98525371D01*
X73291763Y-98523662D01*
X73297642Y-98520666D01*
X73297651Y-98520663D01*
X73303717Y-98517572D01*
X73321979Y-98510008D01*
X73328443Y-98507908D01*
X73328451Y-98507905D01*
X73334731Y-98505864D01*
X73378877Y-98480377D01*
X73390627Y-98474391D01*
X73475714Y-98436507D01*
X73475719Y-98436504D01*
X73481752Y-98433818D01*
X73636253Y-98321566D01*
X73640675Y-98316655D01*
X73759621Y-98184552D01*
X73759622Y-98184551D01*
X73764040Y-98179644D01*
X73859527Y-98014256D01*
X73918542Y-97832628D01*
X73919499Y-97823529D01*
X73937814Y-97649265D01*
X73938504Y-97642700D01*
X73921462Y-97480554D01*
X73919232Y-97459335D01*
X73919232Y-97459333D01*
X73918542Y-97452772D01*
X73859527Y-97271144D01*
X73764040Y-97105756D01*
X73636253Y-96963834D01*
X73537157Y-96891836D01*
X73487094Y-96855463D01*
X73487093Y-96855462D01*
X73481752Y-96851582D01*
X73475724Y-96848898D01*
X73475722Y-96848897D01*
X73313319Y-96776591D01*
X73313318Y-96776591D01*
X73307288Y-96773906D01*
X73213887Y-96754053D01*
X73126944Y-96735572D01*
X73126939Y-96735572D01*
X73120487Y-96734200D01*
X72929513Y-96734200D01*
X72923061Y-96735572D01*
X72923056Y-96735572D01*
X72785943Y-96764717D01*
X72742712Y-96773906D01*
X72736679Y-96776592D01*
X72736676Y-96776593D01*
X72684312Y-96799907D01*
X72633064Y-96810800D01*
X71670514Y-96810800D01*
X71602393Y-96790798D01*
X71555900Y-96737142D01*
X71545848Y-96690933D01*
X71545204Y-96691001D01*
X71544588Y-96685140D01*
X71530959Y-96555470D01*
X71543731Y-96485634D01*
X71592233Y-96433787D01*
X71662864Y-96416474D01*
X71682555Y-96417506D01*
X71689129Y-96418023D01*
X71704326Y-96419620D01*
X71708894Y-96420100D01*
X71728768Y-96420100D01*
X71735362Y-96420273D01*
X71795101Y-96423404D01*
X71795105Y-96423404D01*
X71801693Y-96423749D01*
X71808208Y-96422717D01*
X71808211Y-96422717D01*
X71814940Y-96421651D01*
X71834650Y-96420100D01*
X85868452Y-96420100D01*
X85936573Y-96440102D01*
X85957547Y-96457005D01*
X90752594Y-101252052D01*
X90786620Y-101314364D01*
X90781827Y-101384443D01*
X90776743Y-101398337D01*
X90718404Y-101665907D01*
X90696917Y-101938918D01*
X90712682Y-102212320D01*
X90713507Y-102216525D01*
X90713508Y-102216533D01*
X90734884Y-102325486D01*
X90765405Y-102481053D01*
X90766792Y-102485103D01*
X90766793Y-102485108D01*
X90849533Y-102726771D01*
X90854112Y-102740144D01*
X90874272Y-102780228D01*
X90962138Y-102954930D01*
X90977160Y-102984799D01*
X90979586Y-102988328D01*
X90979589Y-102988334D01*
X91112540Y-103181777D01*
X91132274Y-103210490D01*
X91316582Y-103413043D01*
X91319877Y-103415798D01*
X91319878Y-103415799D01*
X91386347Y-103471375D01*
X91526675Y-103588707D01*
X91530316Y-103590991D01*
X91755024Y-103731951D01*
X91755028Y-103731953D01*
X91758664Y-103734234D01*
X91826544Y-103764883D01*
X92004345Y-103845164D01*
X92004349Y-103845166D01*
X92008257Y-103846930D01*
X92012377Y-103848150D01*
X92012376Y-103848150D01*
X92266723Y-103923491D01*
X92266727Y-103923492D01*
X92270836Y-103924709D01*
X92275070Y-103925357D01*
X92275075Y-103925358D01*
X92537298Y-103965483D01*
X92537300Y-103965483D01*
X92541540Y-103966132D01*
X92680912Y-103968322D01*
X92811071Y-103970367D01*
X92811077Y-103970367D01*
X92815362Y-103970434D01*
X93087235Y-103937534D01*
X93352127Y-103868041D01*
X93356087Y-103866401D01*
X93356092Y-103866399D01*
X93478632Y-103815641D01*
X93605136Y-103763241D01*
X93841582Y-103625073D01*
X94057089Y-103456094D01*
X94098809Y-103413043D01*
X94204036Y-103304457D01*
X94247669Y-103259431D01*
X94250202Y-103255983D01*
X94250206Y-103255978D01*
X94407257Y-103042178D01*
X94409795Y-103038723D01*
X94426585Y-103007800D01*
X94538418Y-102801830D01*
X94538419Y-102801828D01*
X94540468Y-102798054D01*
X94637269Y-102541877D01*
X94698407Y-102274933D01*
X94699061Y-102267611D01*
X94722531Y-102004627D01*
X94722531Y-102004625D01*
X94722751Y-102002161D01*
X94722917Y-101986379D01*
X94723167Y-101962484D01*
X94723167Y-101962483D01*
X94723193Y-101960000D01*
X94721046Y-101928500D01*
X94704859Y-101691055D01*
X94704858Y-101691049D01*
X94704567Y-101686778D01*
X94686961Y-101601760D01*
X94659991Y-101471531D01*
X94649032Y-101418612D01*
X94557617Y-101160465D01*
X94432013Y-100917112D01*
X94274545Y-100693057D01*
X94088125Y-100492445D01*
X94084810Y-100489731D01*
X94084806Y-100489728D01*
X93879523Y-100321706D01*
X93876205Y-100318990D01*
X93642704Y-100175901D01*
X93638768Y-100174173D01*
X93395873Y-100067549D01*
X93395869Y-100067548D01*
X93391945Y-100065825D01*
X93128566Y-99990800D01*
X93124324Y-99990196D01*
X93124318Y-99990195D01*
X92923834Y-99961662D01*
X92857443Y-99952213D01*
X92713589Y-99951460D01*
X92587877Y-99950802D01*
X92587871Y-99950802D01*
X92583591Y-99950780D01*
X92579347Y-99951339D01*
X92579343Y-99951339D01*
X92460302Y-99967011D01*
X92312078Y-99986525D01*
X92307938Y-99987658D01*
X92307936Y-99987658D01*
X92126622Y-100037260D01*
X92055638Y-100035942D01*
X92004279Y-100004821D01*
X86967512Y-94968054D01*
X86954675Y-94953026D01*
X86946785Y-94942166D01*
X86897416Y-94897714D01*
X86892631Y-94893173D01*
X86878586Y-94879128D01*
X86876009Y-94877041D01*
X86863154Y-94866631D01*
X86858138Y-94862347D01*
X86813680Y-94822317D01*
X86813675Y-94822313D01*
X86808769Y-94817896D01*
X86797152Y-94811189D01*
X86780859Y-94799991D01*
X86775571Y-94795709D01*
X86770439Y-94791553D01*
X86711237Y-94761387D01*
X86705467Y-94758254D01*
X86653655Y-94728340D01*
X86653650Y-94728338D01*
X86647931Y-94725036D01*
X86641651Y-94722995D01*
X86641643Y-94722992D01*
X86635179Y-94720892D01*
X86616917Y-94713328D01*
X86610851Y-94710237D01*
X86610842Y-94710234D01*
X86604963Y-94707238D01*
X86598584Y-94705529D01*
X86592423Y-94703164D01*
X86593050Y-94701531D01*
X86539791Y-94669072D01*
X86508767Y-94605213D01*
X86507711Y-94571142D01*
X86524311Y-94413203D01*
X86524311Y-94413202D01*
X86524955Y-94407075D01*
X86514616Y-94293466D01*
X86507589Y-94216251D01*
X86507588Y-94216248D01*
X86507030Y-94210112D01*
X86485632Y-94137405D01*
X86457299Y-94041138D01*
X86451190Y-94020381D01*
X86427964Y-93975953D01*
X86362413Y-93850568D01*
X86359560Y-93845110D01*
X86235632Y-93690975D01*
X86084126Y-93563846D01*
X86078728Y-93560879D01*
X86078723Y-93560875D01*
X85916208Y-93471533D01*
X85916209Y-93471533D01*
X85910813Y-93468567D01*
X85904946Y-93466706D01*
X85904944Y-93466705D01*
X85728164Y-93410627D01*
X85728163Y-93410627D01*
X85722294Y-93408765D01*
X85568373Y-93391500D01*
X80834619Y-93391500D01*
X80766498Y-93371498D01*
X80720005Y-93317842D01*
X80709901Y-93247568D01*
X80725500Y-93202500D01*
X80792023Y-93087279D01*
X80792024Y-93087278D01*
X80795327Y-93081556D01*
X80854342Y-92899928D01*
X80857300Y-92871790D01*
X80873614Y-92716565D01*
X80874304Y-92710000D01*
X80854342Y-92520072D01*
X80795327Y-92338444D01*
X80787729Y-92325283D01*
X80703141Y-92178774D01*
X80699840Y-92173056D01*
X80572053Y-92031134D01*
X80538477Y-92006739D01*
X80431376Y-91928926D01*
X80416342Y-91916085D01*
X80403852Y-91903595D01*
X80369826Y-91841283D01*
X80374891Y-91770468D01*
X80417438Y-91713632D01*
X80483958Y-91688821D01*
X80492947Y-91688500D01*
X81494043Y-91688500D01*
X81513755Y-91690051D01*
X81527007Y-91692150D01*
X81533594Y-91691805D01*
X81533598Y-91691805D01*
X81593350Y-91688673D01*
X81599945Y-91688500D01*
X81619806Y-91688500D01*
X81639569Y-91686423D01*
X81646128Y-91685907D01*
X81661927Y-91685079D01*
X81705877Y-91682776D01*
X81705881Y-91682775D01*
X81712471Y-91682430D01*
X81725429Y-91678958D01*
X81744872Y-91675355D01*
X81745295Y-91675311D01*
X81758202Y-91673954D01*
X81821394Y-91653422D01*
X81827696Y-91651556D01*
X81885485Y-91636071D01*
X81891863Y-91634362D01*
X81897742Y-91631366D01*
X81897751Y-91631363D01*
X81903817Y-91628272D01*
X81922079Y-91620708D01*
X81928543Y-91618608D01*
X81928551Y-91618605D01*
X81934831Y-91616564D01*
X81940550Y-91613262D01*
X81940555Y-91613260D01*
X81992367Y-91583346D01*
X81998137Y-91580213D01*
X82057339Y-91550047D01*
X82067759Y-91541609D01*
X82084052Y-91530411D01*
X82084403Y-91530209D01*
X82095669Y-91523704D01*
X82100575Y-91519287D01*
X82100580Y-91519283D01*
X82145038Y-91479253D01*
X82150054Y-91474969D01*
X82162909Y-91464559D01*
X82162912Y-91464556D01*
X82165486Y-91462472D01*
X82179531Y-91448427D01*
X82184316Y-91443886D01*
X82228774Y-91403856D01*
X82228775Y-91403855D01*
X82233685Y-91399434D01*
X82241575Y-91388574D01*
X82254412Y-91373546D01*
X85839105Y-87788853D01*
X85901417Y-87754827D01*
X85972232Y-87759892D01*
X86029068Y-87802439D01*
X86053879Y-87868959D01*
X86054200Y-87877948D01*
X86054200Y-90468243D01*
X86052649Y-90487955D01*
X86050550Y-90501207D01*
X86050895Y-90507794D01*
X86050895Y-90507798D01*
X86054027Y-90567550D01*
X86054200Y-90574145D01*
X86054200Y-90594006D01*
X86054544Y-90597277D01*
X86056276Y-90613759D01*
X86056793Y-90620328D01*
X86060270Y-90686671D01*
X86063742Y-90699629D01*
X86067345Y-90719072D01*
X86068746Y-90732402D01*
X86089278Y-90795594D01*
X86091144Y-90801896D01*
X86095505Y-90818170D01*
X86108338Y-90866063D01*
X86111334Y-90871942D01*
X86111337Y-90871951D01*
X86114428Y-90878017D01*
X86121992Y-90896279D01*
X86124092Y-90902743D01*
X86124095Y-90902751D01*
X86126136Y-90909031D01*
X86129438Y-90914750D01*
X86129440Y-90914755D01*
X86159354Y-90966567D01*
X86162487Y-90972337D01*
X86192653Y-91031539D01*
X86196809Y-91036671D01*
X86201091Y-91041959D01*
X86212289Y-91058252D01*
X86218996Y-91069869D01*
X86223413Y-91074775D01*
X86223417Y-91074780D01*
X86263447Y-91119238D01*
X86267731Y-91124254D01*
X86278141Y-91137109D01*
X86280228Y-91139686D01*
X86294273Y-91153731D01*
X86298814Y-91158516D01*
X86343266Y-91207885D01*
X86354126Y-91215775D01*
X86369154Y-91228612D01*
X87602936Y-92462394D01*
X87636962Y-92524706D01*
X87639362Y-92540508D01*
X87655885Y-92729371D01*
X87712880Y-92942076D01*
X87756415Y-93035438D01*
X87803618Y-93136666D01*
X87803621Y-93136671D01*
X87805944Y-93141653D01*
X87809100Y-93146160D01*
X87809101Y-93146162D01*
X87921116Y-93306135D01*
X87932251Y-93322038D01*
X88087962Y-93477749D01*
X88092471Y-93480906D01*
X88092473Y-93480908D01*
X88167241Y-93533261D01*
X88268346Y-93604056D01*
X88467924Y-93697120D01*
X88680629Y-93754115D01*
X88900000Y-93773307D01*
X89119371Y-93754115D01*
X89332076Y-93697120D01*
X89531654Y-93604056D01*
X89632759Y-93533261D01*
X89707527Y-93480908D01*
X89707529Y-93480906D01*
X89712038Y-93477749D01*
X89867749Y-93322038D01*
X89878885Y-93306135D01*
X89990899Y-93146162D01*
X89990900Y-93146160D01*
X89994056Y-93141653D01*
X89996379Y-93136671D01*
X89996382Y-93136666D01*
X90043585Y-93035438D01*
X90087120Y-92942076D01*
X90144115Y-92729371D01*
X90163307Y-92510000D01*
X90144115Y-92290629D01*
X90087120Y-92077924D01*
X90043585Y-91984562D01*
X89996382Y-91883334D01*
X89996379Y-91883329D01*
X89994056Y-91878347D01*
X89968254Y-91841498D01*
X89870908Y-91702473D01*
X89870906Y-91702470D01*
X89867749Y-91697962D01*
X89712038Y-91542251D01*
X89702209Y-91535368D01*
X89578044Y-91448427D01*
X89531654Y-91415944D01*
X89332076Y-91322880D01*
X89119371Y-91265885D01*
X88930508Y-91249362D01*
X88864389Y-91223499D01*
X88852394Y-91212936D01*
X87858105Y-90218647D01*
X87824079Y-90156335D01*
X87821200Y-90129552D01*
X87821200Y-88635177D01*
X87841202Y-88567056D01*
X87894858Y-88520563D01*
X87965132Y-88510459D01*
X88029712Y-88539953D01*
X88036295Y-88546082D01*
X88087962Y-88597749D01*
X88268346Y-88724056D01*
X88467924Y-88817120D01*
X88680629Y-88874115D01*
X88900000Y-88893307D01*
X89119371Y-88874115D01*
X89332076Y-88817120D01*
X89531654Y-88724056D01*
X89712038Y-88597749D01*
X89867749Y-88442038D01*
X89994056Y-88261653D01*
X89996379Y-88256671D01*
X89996382Y-88256666D01*
X90084795Y-88067061D01*
X90087120Y-88062076D01*
X90144115Y-87849371D01*
X90160638Y-87660508D01*
X90186501Y-87594389D01*
X90197064Y-87582394D01*
X94066042Y-83713415D01*
X94081077Y-83700574D01*
X94086584Y-83696573D01*
X94086590Y-83696568D01*
X94091934Y-83692685D01*
X94136395Y-83643306D01*
X94140936Y-83638521D01*
X94154972Y-83624485D01*
X94167466Y-83609057D01*
X94171746Y-83604047D01*
X94211784Y-83559579D01*
X94211788Y-83559574D01*
X94216204Y-83554669D01*
X94222910Y-83543054D01*
X94234110Y-83526758D01*
X94238394Y-83521467D01*
X94242547Y-83516339D01*
X94272713Y-83457137D01*
X94275846Y-83451367D01*
X94305760Y-83399555D01*
X94305762Y-83399550D01*
X94309064Y-83393831D01*
X94311105Y-83387551D01*
X94311108Y-83387543D01*
X94313208Y-83381079D01*
X94320772Y-83362817D01*
X94323863Y-83356751D01*
X94323866Y-83356742D01*
X94326862Y-83350863D01*
X94344056Y-83286696D01*
X94345922Y-83280394D01*
X94366454Y-83217202D01*
X94367855Y-83203872D01*
X94371458Y-83184429D01*
X94374930Y-83171471D01*
X94378407Y-83105128D01*
X94378924Y-83098559D01*
X94380656Y-83082077D01*
X94381000Y-83078806D01*
X94381000Y-83058945D01*
X94381173Y-83052350D01*
X94384305Y-82992598D01*
X94384305Y-82992594D01*
X94384650Y-82986007D01*
X94382551Y-82972753D01*
X94381000Y-82953044D01*
X94381000Y-81399890D01*
X94387167Y-81360954D01*
X94389002Y-81355306D01*
X94391042Y-81349028D01*
X94398873Y-81274525D01*
X94410314Y-81165665D01*
X94411004Y-81159100D01*
X94391042Y-80969172D01*
X94332027Y-80787544D01*
X94236540Y-80622156D01*
X94108753Y-80480234D01*
X93954252Y-80367982D01*
X93948224Y-80365298D01*
X93948222Y-80365297D01*
X93785819Y-80292991D01*
X93785818Y-80292991D01*
X93779788Y-80290306D01*
X93665645Y-80266044D01*
X93599444Y-80251972D01*
X93599439Y-80251972D01*
X93592987Y-80250600D01*
X93402013Y-80250600D01*
X93395561Y-80251972D01*
X93395556Y-80251972D01*
X93329355Y-80266044D01*
X93215212Y-80290306D01*
X93209182Y-80292991D01*
X93209181Y-80292991D01*
X93046778Y-80365297D01*
X93046776Y-80365298D01*
X93040748Y-80367982D01*
X92886247Y-80480234D01*
X92758460Y-80622156D01*
X92662973Y-80787544D01*
X92603958Y-80969172D01*
X92583996Y-81159100D01*
X92584686Y-81165665D01*
X92596128Y-81274525D01*
X92603958Y-81349028D01*
X92605998Y-81355306D01*
X92607833Y-81360954D01*
X92614000Y-81399890D01*
X92614000Y-82614353D01*
X92593998Y-82682474D01*
X92577095Y-82703448D01*
X88947606Y-86332936D01*
X88885294Y-86366962D01*
X88869492Y-86369362D01*
X88834911Y-86372387D01*
X88680629Y-86385885D01*
X88467924Y-86442880D01*
X88403638Y-86472857D01*
X88273334Y-86533618D01*
X88273329Y-86533621D01*
X88268347Y-86535944D01*
X88263840Y-86539100D01*
X88263838Y-86539101D01*
X88092473Y-86659092D01*
X88092470Y-86659094D01*
X88087962Y-86662251D01*
X88036295Y-86713918D01*
X87973983Y-86747944D01*
X87903168Y-86742879D01*
X87846332Y-86700332D01*
X87821521Y-86633812D01*
X87821200Y-86624823D01*
X87821200Y-86472857D01*
X87822751Y-86453145D01*
X87823818Y-86446408D01*
X87824850Y-86439893D01*
X87822260Y-86390464D01*
X87821373Y-86373550D01*
X87821200Y-86366955D01*
X87821200Y-86347094D01*
X87819123Y-86327331D01*
X87818607Y-86320767D01*
X87815476Y-86261023D01*
X87815475Y-86261019D01*
X87815130Y-86254429D01*
X87811658Y-86241471D01*
X87808055Y-86222028D01*
X87807344Y-86215266D01*
X87806654Y-86208698D01*
X87786122Y-86145506D01*
X87784256Y-86139204D01*
X87768771Y-86081415D01*
X87767062Y-86075037D01*
X87764066Y-86069158D01*
X87764063Y-86069149D01*
X87760972Y-86063083D01*
X87753408Y-86044821D01*
X87751308Y-86038357D01*
X87751305Y-86038349D01*
X87749264Y-86032069D01*
X87745962Y-86026350D01*
X87745960Y-86026345D01*
X87716046Y-85974533D01*
X87712913Y-85968763D01*
X87682747Y-85909561D01*
X87674309Y-85899141D01*
X87663111Y-85882848D01*
X87662909Y-85882497D01*
X87656404Y-85871231D01*
X87651987Y-85866325D01*
X87651983Y-85866320D01*
X87611953Y-85821862D01*
X87607669Y-85816846D01*
X87597259Y-85803991D01*
X87597256Y-85803988D01*
X87595172Y-85801414D01*
X87581127Y-85787369D01*
X87576586Y-85782584D01*
X87536556Y-85738126D01*
X87536555Y-85738125D01*
X87532134Y-85733215D01*
X87521274Y-85725325D01*
X87506246Y-85712488D01*
X87084905Y-85291147D01*
X87050879Y-85228835D01*
X87048000Y-85202052D01*
X87048000Y-84916148D01*
X87068002Y-84848027D01*
X87084905Y-84827053D01*
X91093445Y-80818513D01*
X91108479Y-80805672D01*
X91249153Y-80703466D01*
X91376940Y-80561544D01*
X91439303Y-80453528D01*
X91469123Y-80401879D01*
X91469124Y-80401878D01*
X91472427Y-80396156D01*
X91531442Y-80214528D01*
X91537518Y-80156723D01*
X91550714Y-80031165D01*
X91551404Y-80024600D01*
X91544119Y-79955288D01*
X91532132Y-79841235D01*
X91532132Y-79841233D01*
X91531442Y-79834672D01*
X91472427Y-79653044D01*
X91376940Y-79487656D01*
X91249153Y-79345734D01*
X91094652Y-79233482D01*
X91088624Y-79230798D01*
X91088622Y-79230797D01*
X90926219Y-79158491D01*
X90926218Y-79158491D01*
X90920188Y-79155806D01*
X90826787Y-79135953D01*
X90739844Y-79117472D01*
X90739839Y-79117472D01*
X90733387Y-79116100D01*
X90542413Y-79116100D01*
X90535961Y-79117472D01*
X90535956Y-79117472D01*
X90449013Y-79135953D01*
X90355612Y-79155806D01*
X90349582Y-79158491D01*
X90349581Y-79158491D01*
X90187178Y-79230797D01*
X90187176Y-79230798D01*
X90181148Y-79233482D01*
X90026647Y-79345734D01*
X89898860Y-79487656D01*
X89874044Y-79530639D01*
X89870918Y-79536053D01*
X89850894Y-79562148D01*
X85595954Y-83817088D01*
X85580926Y-83829925D01*
X85570066Y-83837815D01*
X85565645Y-83842725D01*
X85565644Y-83842726D01*
X85525614Y-83887184D01*
X85521073Y-83891969D01*
X85507028Y-83906014D01*
X85504944Y-83908588D01*
X85504941Y-83908591D01*
X85494531Y-83921446D01*
X85490247Y-83926462D01*
X85450217Y-83970920D01*
X85450213Y-83970925D01*
X85445796Y-83975831D01*
X85439780Y-83986251D01*
X85439089Y-83987448D01*
X85427891Y-84003741D01*
X85419453Y-84014161D01*
X85389287Y-84073363D01*
X85386154Y-84079133D01*
X85356240Y-84130945D01*
X85356238Y-84130950D01*
X85352936Y-84136669D01*
X85350895Y-84142949D01*
X85350892Y-84142957D01*
X85348792Y-84149421D01*
X85341228Y-84167683D01*
X85338137Y-84173749D01*
X85338134Y-84173758D01*
X85335138Y-84179637D01*
X85333429Y-84186015D01*
X85317944Y-84243804D01*
X85316078Y-84250106D01*
X85295546Y-84313298D01*
X85294856Y-84319866D01*
X85294145Y-84326628D01*
X85290542Y-84346071D01*
X85287070Y-84359029D01*
X85286725Y-84365619D01*
X85286724Y-84365623D01*
X85283593Y-84425367D01*
X85283077Y-84431931D01*
X85281000Y-84451694D01*
X85281000Y-84471555D01*
X85280827Y-84478150D01*
X85278550Y-84521605D01*
X85277350Y-84544493D01*
X85279418Y-84557548D01*
X85279449Y-84557744D01*
X85281000Y-84577456D01*
X85281000Y-84610700D01*
X85260998Y-84678821D01*
X85207342Y-84725314D01*
X85155000Y-84736700D01*
X72258947Y-84736700D01*
X72190826Y-84716698D01*
X72144333Y-84663042D01*
X72134229Y-84592768D01*
X72139114Y-84571764D01*
X72149103Y-84541020D01*
X72186142Y-84427028D01*
X72188980Y-84400032D01*
X72205414Y-84243665D01*
X72206104Y-84237100D01*
X72200541Y-84184169D01*
X72186832Y-84053735D01*
X72186832Y-84053733D01*
X72186142Y-84047172D01*
X72127127Y-83865544D01*
X72114916Y-83844393D01*
X72061701Y-83752223D01*
X72031640Y-83700156D01*
X72025597Y-83693444D01*
X71908275Y-83563145D01*
X71908274Y-83563144D01*
X71903853Y-83558234D01*
X71763178Y-83456027D01*
X71748145Y-83443187D01*
X70401112Y-82096154D01*
X70388275Y-82081126D01*
X70380385Y-82070266D01*
X70331016Y-82025814D01*
X70326231Y-82021273D01*
X70312186Y-82007228D01*
X70309609Y-82005141D01*
X70296754Y-81994731D01*
X70291738Y-81990447D01*
X70247280Y-81950417D01*
X70247275Y-81950413D01*
X70242369Y-81945996D01*
X70230752Y-81939289D01*
X70214459Y-81928091D01*
X70209171Y-81923809D01*
X70204039Y-81919653D01*
X70144837Y-81889487D01*
X70139067Y-81886354D01*
X70087255Y-81856440D01*
X70087250Y-81856438D01*
X70081531Y-81853136D01*
X70075251Y-81851095D01*
X70075243Y-81851092D01*
X70068779Y-81848992D01*
X70050517Y-81841428D01*
X70044451Y-81838337D01*
X70044442Y-81838334D01*
X70038563Y-81835338D01*
X69985032Y-81820994D01*
X69974396Y-81818144D01*
X69968094Y-81816278D01*
X69904902Y-81795746D01*
X69891572Y-81794345D01*
X69872129Y-81790742D01*
X69859171Y-81787270D01*
X69852581Y-81786925D01*
X69852577Y-81786924D01*
X69808627Y-81784621D01*
X69792828Y-81783793D01*
X69786269Y-81783277D01*
X69766506Y-81781200D01*
X69746645Y-81781200D01*
X69740050Y-81781027D01*
X69680298Y-81777895D01*
X69680294Y-81777895D01*
X69673707Y-81777550D01*
X69660453Y-81779649D01*
X69640744Y-81781200D01*
X62304569Y-81781200D01*
X62236448Y-81761198D01*
X62189955Y-81707542D01*
X62179851Y-81637268D01*
X62182862Y-81622589D01*
X62212119Y-81513402D01*
X62212119Y-81513400D01*
X62213543Y-81508087D01*
X62233498Y-81280000D01*
X62213543Y-81051913D01*
X62173162Y-80901210D01*
X62174852Y-80830235D01*
X62214646Y-80771439D01*
X62279910Y-80743491D01*
X62294869Y-80742600D01*
X76900952Y-80742600D01*
X76969073Y-80762602D01*
X76990047Y-80779505D01*
X77394595Y-81184053D01*
X77428621Y-81246365D01*
X77431500Y-81273148D01*
X77431500Y-82128134D01*
X77438255Y-82190316D01*
X77489385Y-82326705D01*
X77576739Y-82443261D01*
X77693295Y-82530615D01*
X77829684Y-82581745D01*
X77891866Y-82588500D01*
X79588134Y-82588500D01*
X79650316Y-82581745D01*
X79786705Y-82530615D01*
X79903261Y-82443261D01*
X79990615Y-82326705D01*
X80041745Y-82190316D01*
X80043691Y-82191046D01*
X80073545Y-82138795D01*
X80136503Y-82105979D01*
X80207207Y-82112409D01*
X80250000Y-82140498D01*
X80395700Y-82286198D01*
X80400208Y-82289355D01*
X80400211Y-82289357D01*
X80441542Y-82318297D01*
X80583251Y-82417523D01*
X80588233Y-82419846D01*
X80588238Y-82419849D01*
X80785775Y-82511961D01*
X80790757Y-82514284D01*
X80796065Y-82515706D01*
X80796067Y-82515707D01*
X81006598Y-82572119D01*
X81006600Y-82572119D01*
X81011913Y-82573543D01*
X81240000Y-82593498D01*
X81468087Y-82573543D01*
X81473400Y-82572119D01*
X81473402Y-82572119D01*
X81683933Y-82515707D01*
X81683935Y-82515706D01*
X81689243Y-82514284D01*
X81694225Y-82511961D01*
X81891762Y-82419849D01*
X81891767Y-82419846D01*
X81896749Y-82417523D01*
X82038458Y-82318297D01*
X82079789Y-82289357D01*
X82079792Y-82289355D01*
X82084300Y-82286198D01*
X82246198Y-82124300D01*
X82254525Y-82112409D01*
X82339923Y-81990447D01*
X82377523Y-81936749D01*
X82379846Y-81931767D01*
X82379849Y-81931762D01*
X82471961Y-81734225D01*
X82471961Y-81734224D01*
X82474284Y-81729243D01*
X82533543Y-81508087D01*
X82553498Y-81280000D01*
X82533543Y-81051913D01*
X82513131Y-80975735D01*
X82475707Y-80836067D01*
X82475706Y-80836065D01*
X82474284Y-80830757D01*
X82442503Y-80762602D01*
X82379849Y-80628238D01*
X82379846Y-80628233D01*
X82377523Y-80623251D01*
X82274662Y-80476351D01*
X82249357Y-80440211D01*
X82249355Y-80440208D01*
X82246198Y-80435700D01*
X82084300Y-80273802D01*
X82079792Y-80270645D01*
X82079789Y-80270643D01*
X81990275Y-80207965D01*
X81896749Y-80142477D01*
X81891767Y-80140154D01*
X81891762Y-80140151D01*
X81694225Y-80048039D01*
X81694224Y-80048039D01*
X81689243Y-80045716D01*
X81683935Y-80044294D01*
X81683933Y-80044293D01*
X81473402Y-79987881D01*
X81473400Y-79987881D01*
X81468087Y-79986457D01*
X81240000Y-79966502D01*
X81011913Y-79986457D01*
X81006600Y-79987881D01*
X81006598Y-79987881D01*
X80796067Y-80044293D01*
X80796065Y-80044294D01*
X80790757Y-80045716D01*
X80785776Y-80048039D01*
X80785775Y-80048039D01*
X80588238Y-80140151D01*
X80588233Y-80140154D01*
X80583251Y-80142477D01*
X80489725Y-80207965D01*
X80400211Y-80270643D01*
X80400208Y-80270645D01*
X80395700Y-80273802D01*
X80250000Y-80419502D01*
X80187688Y-80453528D01*
X80116873Y-80448463D01*
X80060037Y-80405916D01*
X80042868Y-80369263D01*
X80041745Y-80369684D01*
X79993767Y-80241703D01*
X79990615Y-80233295D01*
X79903261Y-80116739D01*
X79786705Y-80029385D01*
X79650316Y-79978255D01*
X79588134Y-79971500D01*
X78733148Y-79971500D01*
X78665027Y-79951498D01*
X78644053Y-79934595D01*
X78000012Y-79290554D01*
X77987175Y-79275526D01*
X77979285Y-79264666D01*
X77929916Y-79220214D01*
X77925131Y-79215673D01*
X77911086Y-79201628D01*
X77908509Y-79199541D01*
X77895654Y-79189131D01*
X77890638Y-79184847D01*
X77846180Y-79144817D01*
X77846175Y-79144813D01*
X77841269Y-79140396D01*
X77829652Y-79133689D01*
X77813359Y-79122491D01*
X77808071Y-79118209D01*
X77802939Y-79114053D01*
X77743737Y-79083887D01*
X77737967Y-79080754D01*
X77686155Y-79050840D01*
X77686150Y-79050838D01*
X77680431Y-79047536D01*
X77674151Y-79045495D01*
X77674143Y-79045492D01*
X77667679Y-79043392D01*
X77649417Y-79035828D01*
X77643351Y-79032737D01*
X77643342Y-79032734D01*
X77637463Y-79029738D01*
X77626772Y-79026873D01*
X77573296Y-79012544D01*
X77566994Y-79010678D01*
X77503802Y-78990146D01*
X77490472Y-78988745D01*
X77471029Y-78985142D01*
X77458071Y-78981670D01*
X77451481Y-78981325D01*
X77451477Y-78981324D01*
X77407527Y-78979021D01*
X77391728Y-78978193D01*
X77385169Y-78977677D01*
X77365406Y-78975600D01*
X77345545Y-78975600D01*
X77338950Y-78975427D01*
X77279198Y-78972295D01*
X77279194Y-78972295D01*
X77272607Y-78971950D01*
X77259353Y-78974049D01*
X77239644Y-78975600D01*
X57471257Y-78975600D01*
X57451545Y-78974049D01*
X57444808Y-78972982D01*
X57444809Y-78972982D01*
X57438293Y-78971950D01*
X57431706Y-78972295D01*
X57431702Y-78972295D01*
X57371950Y-78975427D01*
X57365355Y-78975600D01*
X57345494Y-78975600D01*
X57325731Y-78977677D01*
X57319172Y-78978193D01*
X57303373Y-78979021D01*
X57259423Y-78981324D01*
X57259419Y-78981325D01*
X57252829Y-78981670D01*
X57239871Y-78985142D01*
X57220428Y-78988745D01*
X57207098Y-78990146D01*
X57143906Y-79010678D01*
X57137604Y-79012544D01*
X57084128Y-79026873D01*
X57073437Y-79029738D01*
X57067558Y-79032734D01*
X57067549Y-79032737D01*
X57061483Y-79035828D01*
X57043221Y-79043392D01*
X57036757Y-79045492D01*
X57036749Y-79045495D01*
X57030469Y-79047536D01*
X57024750Y-79050838D01*
X57024745Y-79050840D01*
X56972933Y-79080754D01*
X56967163Y-79083887D01*
X56907961Y-79114053D01*
X56902829Y-79118209D01*
X56897541Y-79122491D01*
X56881248Y-79133689D01*
X56869631Y-79140396D01*
X56864725Y-79144813D01*
X56864720Y-79144817D01*
X56820262Y-79184847D01*
X56815246Y-79189131D01*
X56802391Y-79199541D01*
X56799814Y-79201628D01*
X56785769Y-79215673D01*
X56780984Y-79220214D01*
X56731615Y-79264666D01*
X56723725Y-79275526D01*
X56710888Y-79290554D01*
X56476054Y-79525388D01*
X56461026Y-79538225D01*
X56450166Y-79546115D01*
X56445745Y-79551025D01*
X56445744Y-79551026D01*
X56405714Y-79595484D01*
X56401173Y-79600269D01*
X56387128Y-79614314D01*
X56385044Y-79616888D01*
X56385041Y-79616891D01*
X56374631Y-79629746D01*
X56370347Y-79634762D01*
X56330317Y-79679220D01*
X56330313Y-79679225D01*
X56325896Y-79684131D01*
X56319391Y-79695397D01*
X56319189Y-79695748D01*
X56307991Y-79712041D01*
X56299553Y-79722461D01*
X56269387Y-79781663D01*
X56266254Y-79787433D01*
X56236340Y-79839245D01*
X56236338Y-79839250D01*
X56233036Y-79844969D01*
X56230995Y-79851249D01*
X56230992Y-79851257D01*
X56228892Y-79857721D01*
X56221328Y-79875983D01*
X56218237Y-79882049D01*
X56218234Y-79882058D01*
X56215238Y-79887937D01*
X56213529Y-79894315D01*
X56198044Y-79952104D01*
X56196178Y-79958406D01*
X56175646Y-80021598D01*
X56174956Y-80028166D01*
X56174245Y-80034928D01*
X56170642Y-80054371D01*
X56167170Y-80067329D01*
X56166825Y-80073919D01*
X56166824Y-80073923D01*
X56163693Y-80133667D01*
X56163177Y-80140231D01*
X56161100Y-80159994D01*
X56161100Y-80179855D01*
X56160927Y-80186450D01*
X56157450Y-80252793D01*
X56158482Y-80259307D01*
X56159549Y-80266044D01*
X56161100Y-80285756D01*
X56161100Y-83582543D01*
X56159549Y-83602255D01*
X56157450Y-83615507D01*
X56157795Y-83622094D01*
X56157795Y-83622098D01*
X56160927Y-83681850D01*
X56161100Y-83688445D01*
X56161100Y-83708306D01*
X56161444Y-83711577D01*
X56163176Y-83728059D01*
X56163693Y-83734628D01*
X56167170Y-83800971D01*
X56170642Y-83813929D01*
X56174245Y-83833372D01*
X56175646Y-83846702D01*
X56196178Y-83909894D01*
X56198044Y-83916196D01*
X56200795Y-83926462D01*
X56215238Y-83980363D01*
X56218234Y-83986242D01*
X56218237Y-83986251D01*
X56221328Y-83992317D01*
X56228892Y-84010579D01*
X56230992Y-84017043D01*
X56230995Y-84017051D01*
X56233036Y-84023331D01*
X56236338Y-84029050D01*
X56236340Y-84029055D01*
X56266254Y-84080867D01*
X56269387Y-84086637D01*
X56299553Y-84145839D01*
X56303709Y-84150971D01*
X56307991Y-84156259D01*
X56319189Y-84172552D01*
X56325896Y-84184169D01*
X56330313Y-84189075D01*
X56330317Y-84189080D01*
X56370347Y-84233538D01*
X56374631Y-84238554D01*
X56381461Y-84246988D01*
X56387128Y-84253986D01*
X56401173Y-84268031D01*
X56405714Y-84272816D01*
X56450166Y-84322185D01*
X56461026Y-84330075D01*
X56476054Y-84342912D01*
X63959495Y-91826352D01*
X63993521Y-91888664D01*
X63996400Y-91915447D01*
X63996400Y-92394587D01*
X63976398Y-92462708D01*
X63922742Y-92509201D01*
X63852468Y-92519305D01*
X63819151Y-92509694D01*
X63677419Y-92446591D01*
X63677418Y-92446591D01*
X63671388Y-92443906D01*
X63577987Y-92424053D01*
X63491044Y-92405572D01*
X63491039Y-92405572D01*
X63484587Y-92404200D01*
X63293613Y-92404200D01*
X63287161Y-92405572D01*
X63287156Y-92405572D01*
X63200213Y-92424053D01*
X63106812Y-92443906D01*
X63100782Y-92446591D01*
X63100781Y-92446591D01*
X62938378Y-92518897D01*
X62938376Y-92518898D01*
X62932348Y-92521582D01*
X62777847Y-92633834D01*
X62650060Y-92775756D01*
X62646759Y-92781474D01*
X62574745Y-92906206D01*
X62554573Y-92941144D01*
X62495558Y-93122772D01*
X62494868Y-93129333D01*
X62494868Y-93129335D01*
X62480280Y-93268134D01*
X62475596Y-93312700D01*
X62476286Y-93319265D01*
X62492534Y-93473852D01*
X62495558Y-93502628D01*
X62497598Y-93508906D01*
X62499433Y-93514554D01*
X62505600Y-93553490D01*
X62505600Y-94815443D01*
X62504049Y-94835155D01*
X62501950Y-94848407D01*
X62502295Y-94854994D01*
X62502295Y-94854998D01*
X62505427Y-94914750D01*
X62505600Y-94921345D01*
X62505600Y-94941206D01*
X62505944Y-94944477D01*
X62507676Y-94960959D01*
X62508193Y-94967528D01*
X62511670Y-95033871D01*
X62515142Y-95046829D01*
X62518745Y-95066272D01*
X62520146Y-95079602D01*
X62540678Y-95142794D01*
X62542544Y-95149096D01*
X62559738Y-95213263D01*
X62562734Y-95219142D01*
X62562737Y-95219151D01*
X62565828Y-95225217D01*
X62573392Y-95243479D01*
X62575492Y-95249943D01*
X62575495Y-95249951D01*
X62577536Y-95256231D01*
X62580838Y-95261950D01*
X62580840Y-95261955D01*
X62610754Y-95313767D01*
X62613887Y-95319537D01*
X62644053Y-95378739D01*
X62648209Y-95383871D01*
X62652491Y-95389159D01*
X62663689Y-95405452D01*
X62670396Y-95417069D01*
X62674813Y-95421975D01*
X62674817Y-95421980D01*
X62714847Y-95466438D01*
X62719131Y-95471454D01*
X62729541Y-95484309D01*
X62731628Y-95486886D01*
X62745673Y-95500931D01*
X62750214Y-95505716D01*
X62794666Y-95555085D01*
X62805526Y-95562975D01*
X62820554Y-95575812D01*
X65507588Y-98262846D01*
X65520425Y-98277874D01*
X65528315Y-98288734D01*
X65533225Y-98293155D01*
X65533226Y-98293156D01*
X65577684Y-98333186D01*
X65582469Y-98337727D01*
X65596514Y-98351772D01*
X65611958Y-98364279D01*
X65616964Y-98368555D01*
X65661419Y-98408582D01*
X65661423Y-98408585D01*
X65666331Y-98413004D01*
X65677951Y-98419713D01*
X65694237Y-98430907D01*
X65704660Y-98439347D01*
X65763851Y-98469506D01*
X65769635Y-98472647D01*
X65821451Y-98502563D01*
X65821453Y-98502564D01*
X65827169Y-98505864D01*
X65833445Y-98507903D01*
X65833449Y-98507905D01*
X65839921Y-98510008D01*
X65858183Y-98517572D01*
X65864252Y-98520664D01*
X65864256Y-98520666D01*
X65870137Y-98523662D01*
X65876508Y-98525369D01*
X65876513Y-98525371D01*
X65934303Y-98540855D01*
X65940622Y-98542727D01*
X66003798Y-98563254D01*
X66010369Y-98563945D01*
X66010370Y-98563945D01*
X66017135Y-98564656D01*
X66036569Y-98568258D01*
X66043139Y-98570018D01*
X66043146Y-98570019D01*
X66049528Y-98571729D01*
X66056126Y-98572075D01*
X66056127Y-98572075D01*
X66115846Y-98575205D01*
X66122422Y-98575722D01*
X66142194Y-98577800D01*
X66162074Y-98577800D01*
X66168668Y-98577973D01*
X66228401Y-98581104D01*
X66228406Y-98581104D01*
X66234993Y-98581449D01*
X66248240Y-98579351D01*
X66267950Y-98577800D01*
X66993054Y-98577800D01*
X67061175Y-98597802D01*
X67107668Y-98651458D01*
X67117772Y-98721732D01*
X67114763Y-98736403D01*
X67098439Y-98797323D01*
X67096578Y-98803606D01*
X67076046Y-98866798D01*
X67075356Y-98873366D01*
X67074645Y-98880128D01*
X67071042Y-98899571D01*
X67067570Y-98912529D01*
X67067225Y-98919119D01*
X67067224Y-98919123D01*
X67064093Y-98978867D01*
X67063577Y-98985431D01*
X67061500Y-99005194D01*
X67061500Y-99025055D01*
X67061327Y-99031650D01*
X67057850Y-99097993D01*
X67058882Y-99104507D01*
X67059949Y-99111244D01*
X67061500Y-99130956D01*
X67061500Y-101662684D01*
X67041498Y-101730805D01*
X67017331Y-101758495D01*
X66892362Y-101865229D01*
X66875031Y-101880031D01*
X66720824Y-102060584D01*
X66718245Y-102064792D01*
X66718241Y-102064798D01*
X66625258Y-102216533D01*
X66596760Y-102263037D01*
X66594867Y-102267607D01*
X66594865Y-102267611D01*
X66572817Y-102320840D01*
X66505895Y-102482406D01*
X66499102Y-102510701D01*
X66452085Y-102706543D01*
X66450465Y-102713289D01*
X66431835Y-102950000D01*
X66450465Y-103186711D01*
X66451619Y-103191518D01*
X66451620Y-103191524D01*
X66467923Y-103259431D01*
X66505895Y-103417594D01*
X66507788Y-103422165D01*
X66507789Y-103422167D01*
X66590738Y-103622424D01*
X66596760Y-103636963D01*
X66599346Y-103641183D01*
X66718241Y-103835202D01*
X66718245Y-103835208D01*
X66720824Y-103839416D01*
X66875031Y-104019969D01*
X67055584Y-104174176D01*
X67059792Y-104176755D01*
X67059798Y-104176759D01*
X67229073Y-104280491D01*
X67258037Y-104298240D01*
X67262607Y-104300133D01*
X67262611Y-104300135D01*
X67472833Y-104387211D01*
X67477406Y-104389105D01*
X67482212Y-104390259D01*
X67482225Y-104390263D01*
X67483651Y-104390605D01*
X67484136Y-104390883D01*
X67486929Y-104391791D01*
X67486738Y-104392378D01*
X67545218Y-104425961D01*
X67577897Y-104488989D01*
X67571313Y-104559680D01*
X67543325Y-104602217D01*
X65730541Y-106415001D01*
X65668229Y-106449027D01*
X65631560Y-106451518D01*
X65445000Y-106436835D01*
X65208289Y-106455465D01*
X65203482Y-106456619D01*
X65203476Y-106456620D01*
X65072875Y-106487975D01*
X64977406Y-106510895D01*
X64972835Y-106512788D01*
X64972833Y-106512789D01*
X64762611Y-106599865D01*
X64762607Y-106599867D01*
X64758037Y-106601760D01*
X64753817Y-106604346D01*
X64559798Y-106723241D01*
X64559792Y-106723245D01*
X64555584Y-106725824D01*
X64551830Y-106729031D01*
X64551818Y-106729039D01*
X64396830Y-106861412D01*
X64332041Y-106890443D01*
X64261841Y-106879838D01*
X64208518Y-106832963D01*
X64189000Y-106765601D01*
X64189000Y-102757743D01*
X64189737Y-102744136D01*
X64193159Y-102712638D01*
X64193159Y-102712633D01*
X64193824Y-102706512D01*
X64189450Y-102656512D01*
X64189121Y-102651686D01*
X64189000Y-102649214D01*
X64189000Y-102646131D01*
X64187826Y-102634162D01*
X64184810Y-102603394D01*
X64184688Y-102602081D01*
X64177123Y-102515618D01*
X64176587Y-102509487D01*
X64175100Y-102504368D01*
X64174580Y-102499067D01*
X64147709Y-102410066D01*
X64147374Y-102408933D01*
X64123130Y-102325486D01*
X64123128Y-102325482D01*
X64121409Y-102319564D01*
X64118956Y-102314832D01*
X64117416Y-102309731D01*
X64092589Y-102263037D01*
X64073769Y-102227640D01*
X64073157Y-102226474D01*
X64033229Y-102149447D01*
X64030392Y-102143974D01*
X64027069Y-102139811D01*
X64024566Y-102135104D01*
X63965761Y-102063002D01*
X63964933Y-102061975D01*
X63935969Y-102025692D01*
X63935964Y-102025687D01*
X63933762Y-102022928D01*
X63931261Y-102020427D01*
X63930619Y-102019709D01*
X63926906Y-102015361D01*
X63916140Y-102002161D01*
X63899565Y-101981838D01*
X63894823Y-101977915D01*
X63894821Y-101977913D01*
X63864227Y-101952603D01*
X63855447Y-101944613D01*
X63695425Y-101784591D01*
X63663656Y-101758495D01*
X63623881Y-101725824D01*
X63581239Y-101690797D01*
X63406937Y-101597338D01*
X63298281Y-101564118D01*
X63223700Y-101541316D01*
X63223698Y-101541316D01*
X63217802Y-101539513D01*
X63159949Y-101533636D01*
X63027166Y-101520148D01*
X63027161Y-101520148D01*
X63021038Y-101519526D01*
X62919635Y-101529112D01*
X62840658Y-101536577D01*
X62770957Y-101523074D01*
X62719621Y-101474032D01*
X62702800Y-101411136D01*
X62702800Y-96700250D01*
X62703537Y-96686642D01*
X62706959Y-96655139D01*
X62707625Y-96649012D01*
X62703247Y-96598970D01*
X62702921Y-96594188D01*
X62702800Y-96591710D01*
X62702800Y-96588631D01*
X62702501Y-96585577D01*
X62702500Y-96585566D01*
X62698613Y-96545929D01*
X62698491Y-96544615D01*
X62694681Y-96501072D01*
X62690387Y-96451987D01*
X62688900Y-96446868D01*
X62688380Y-96441567D01*
X62661509Y-96352566D01*
X62661174Y-96351433D01*
X62636930Y-96267986D01*
X62636928Y-96267982D01*
X62635209Y-96262064D01*
X62632756Y-96257332D01*
X62631216Y-96252231D01*
X62600787Y-96195000D01*
X62587569Y-96170140D01*
X62586957Y-96168974D01*
X62547029Y-96091947D01*
X62544192Y-96086474D01*
X62540869Y-96082311D01*
X62538366Y-96077604D01*
X62479561Y-96005502D01*
X62478733Y-96004475D01*
X62449769Y-95968192D01*
X62449764Y-95968187D01*
X62447562Y-95965428D01*
X62445061Y-95962927D01*
X62444419Y-95962209D01*
X62440706Y-95957861D01*
X62432942Y-95948341D01*
X62413365Y-95924338D01*
X62408623Y-95920415D01*
X62408621Y-95920413D01*
X62378027Y-95895103D01*
X62369247Y-95887113D01*
X60782355Y-94300221D01*
X60773253Y-94290078D01*
X60753397Y-94265382D01*
X60749532Y-94260575D01*
X60711078Y-94228308D01*
X60707431Y-94225128D01*
X60705619Y-94223485D01*
X60703425Y-94221291D01*
X60670151Y-94193958D01*
X60669353Y-94193296D01*
X60598026Y-94133446D01*
X60593356Y-94130878D01*
X60589239Y-94127497D01*
X60507414Y-94083623D01*
X60506255Y-94082994D01*
X60430119Y-94041138D01*
X60430111Y-94041135D01*
X60424713Y-94038167D01*
X60419631Y-94036555D01*
X60414937Y-94034038D01*
X60409039Y-94032235D01*
X60409037Y-94032234D01*
X60352661Y-94014998D01*
X60293365Y-93975953D01*
X60264591Y-93911049D01*
X60263500Y-93894504D01*
X60263500Y-92321866D01*
X60256745Y-92259684D01*
X60205615Y-92123295D01*
X60118261Y-92006739D01*
X60001705Y-91919385D01*
X59865316Y-91868255D01*
X59803134Y-91861500D01*
X58039500Y-91861500D01*
X57971379Y-91841498D01*
X57924886Y-91787842D01*
X57913500Y-91735500D01*
X57913500Y-91571866D01*
X57906745Y-91509684D01*
X57855615Y-91373295D01*
X57768261Y-91256739D01*
X57651705Y-91169385D01*
X57515316Y-91118255D01*
X57453134Y-91111500D01*
X56006000Y-91111500D01*
X55937879Y-91091498D01*
X55891386Y-91037842D01*
X55880000Y-90985500D01*
X55880000Y-74291001D01*
X68341500Y-74291001D01*
X68341702Y-74293509D01*
X68341702Y-74293514D01*
X68354491Y-74452460D01*
X68356060Y-74471965D01*
X68357266Y-74476873D01*
X68357266Y-74476876D01*
X68375055Y-74549301D01*
X68413963Y-74707706D01*
X68415938Y-74712358D01*
X68415939Y-74712362D01*
X68424749Y-74733116D01*
X68508812Y-74931156D01*
X68638167Y-75136567D01*
X68641512Y-75140361D01*
X68795350Y-75314858D01*
X68795353Y-75314861D01*
X68798698Y-75318655D01*
X68802606Y-75321865D01*
X68802607Y-75321866D01*
X68909242Y-75409456D01*
X68986278Y-75472734D01*
X69196078Y-75594841D01*
X69200801Y-75596654D01*
X69417978Y-75680020D01*
X69417982Y-75680021D01*
X69422702Y-75681833D01*
X69427652Y-75682867D01*
X69427655Y-75682868D01*
X69655369Y-75730440D01*
X69655373Y-75730440D01*
X69660320Y-75731474D01*
X69902817Y-75742486D01*
X69907837Y-75741905D01*
X69907841Y-75741905D01*
X70138929Y-75715167D01*
X70138933Y-75715166D01*
X70143956Y-75714585D01*
X70148820Y-75713209D01*
X70148823Y-75713208D01*
X70372669Y-75649866D01*
X70372668Y-75649866D01*
X70377532Y-75648490D01*
X70382108Y-75646356D01*
X70382114Y-75646354D01*
X70592954Y-75548038D01*
X70592958Y-75548036D01*
X70597536Y-75545901D01*
X70798307Y-75409456D01*
X70974681Y-75242668D01*
X71052901Y-75140361D01*
X71119047Y-75053846D01*
X71119050Y-75053842D01*
X71122120Y-75049826D01*
X71236831Y-74835891D01*
X71315862Y-74606369D01*
X71343665Y-74445406D01*
X71356504Y-74371074D01*
X71356505Y-74371068D01*
X71357179Y-74367164D01*
X71358500Y-74338075D01*
X71358500Y-73520000D01*
X80476884Y-73520000D01*
X80495314Y-73730655D01*
X80496738Y-73735968D01*
X80496738Y-73735970D01*
X80520641Y-73825175D01*
X80550044Y-73934910D01*
X80552366Y-73939891D01*
X80552367Y-73939892D01*
X80594199Y-74029600D01*
X80639411Y-74126558D01*
X80760699Y-74299776D01*
X80910224Y-74449301D01*
X81083442Y-74570589D01*
X81088420Y-74572910D01*
X81088423Y-74572912D01*
X81160172Y-74606369D01*
X81275090Y-74659956D01*
X81280398Y-74661378D01*
X81280400Y-74661379D01*
X81474030Y-74713262D01*
X81474032Y-74713262D01*
X81479345Y-74714686D01*
X81690000Y-74733116D01*
X81900655Y-74714686D01*
X81905968Y-74713262D01*
X81905970Y-74713262D01*
X82099600Y-74661379D01*
X82099602Y-74661378D01*
X82104910Y-74659956D01*
X82219828Y-74606369D01*
X82291577Y-74572912D01*
X82291580Y-74572910D01*
X82296558Y-74570589D01*
X82469776Y-74449301D01*
X82619301Y-74299776D01*
X82740589Y-74126558D01*
X82785802Y-74029600D01*
X82827633Y-73939892D01*
X82827634Y-73939891D01*
X82829956Y-73934910D01*
X82859360Y-73825175D01*
X82883262Y-73735970D01*
X82883262Y-73735968D01*
X82884686Y-73730655D01*
X82894367Y-73620000D01*
X87276884Y-73620000D01*
X87295314Y-73830655D01*
X87350044Y-74034910D01*
X87352366Y-74039891D01*
X87352367Y-74039892D01*
X87390458Y-74121577D01*
X87439411Y-74226558D01*
X87560699Y-74399776D01*
X87710224Y-74549301D01*
X87883442Y-74670589D01*
X87888420Y-74672910D01*
X87888423Y-74672912D01*
X87973024Y-74712362D01*
X88075090Y-74759956D01*
X88080398Y-74761378D01*
X88080400Y-74761379D01*
X88274030Y-74813262D01*
X88274032Y-74813262D01*
X88279345Y-74814686D01*
X88490000Y-74833116D01*
X88700655Y-74814686D01*
X88705968Y-74813262D01*
X88705970Y-74813262D01*
X88899600Y-74761379D01*
X88899602Y-74761378D01*
X88904910Y-74759956D01*
X89006976Y-74712362D01*
X89091577Y-74672912D01*
X89091580Y-74672910D01*
X89096558Y-74670589D01*
X89269776Y-74549301D01*
X89419301Y-74399776D01*
X89540589Y-74226558D01*
X89589543Y-74121577D01*
X89627633Y-74039892D01*
X89627634Y-74039891D01*
X89629956Y-74034910D01*
X89684686Y-73830655D01*
X89703116Y-73620000D01*
X89684686Y-73409345D01*
X89683262Y-73404030D01*
X89631379Y-73210400D01*
X89631378Y-73210398D01*
X89629956Y-73205090D01*
X89614301Y-73171518D01*
X89542912Y-73018423D01*
X89542910Y-73018420D01*
X89540589Y-73013442D01*
X89419301Y-72840224D01*
X89269776Y-72690699D01*
X89096558Y-72569411D01*
X89091580Y-72567090D01*
X89091577Y-72567088D01*
X89000375Y-72524560D01*
X88913218Y-72483918D01*
X88859934Y-72437002D01*
X88840473Y-72368725D01*
X88861015Y-72300765D01*
X88913220Y-72255529D01*
X89091323Y-72172479D01*
X89100811Y-72167002D01*
X89264942Y-72052075D01*
X89273350Y-72045019D01*
X89415019Y-71903350D01*
X89422075Y-71894942D01*
X89537002Y-71730811D01*
X89542479Y-71721323D01*
X89627158Y-71539727D01*
X89630908Y-71529423D01*
X89667866Y-71391497D01*
X89667530Y-71377401D01*
X89659588Y-71374000D01*
X87325561Y-71374000D01*
X87312030Y-71377973D01*
X87310801Y-71386522D01*
X87349092Y-71529423D01*
X87352842Y-71539727D01*
X87437521Y-71721323D01*
X87442998Y-71730811D01*
X87557925Y-71894942D01*
X87564981Y-71903350D01*
X87706650Y-72045019D01*
X87715058Y-72052075D01*
X87879189Y-72167002D01*
X87888677Y-72172479D01*
X88066780Y-72255529D01*
X88120066Y-72302446D01*
X88139527Y-72370723D01*
X88118985Y-72438683D01*
X88066782Y-72483918D01*
X87979625Y-72524560D01*
X87888423Y-72567088D01*
X87888420Y-72567090D01*
X87883442Y-72569411D01*
X87710224Y-72690699D01*
X87560699Y-72840224D01*
X87439411Y-73013442D01*
X87437090Y-73018420D01*
X87437088Y-73018423D01*
X87365699Y-73171518D01*
X87350044Y-73205090D01*
X87348622Y-73210398D01*
X87348621Y-73210400D01*
X87296738Y-73404030D01*
X87295314Y-73409345D01*
X87276884Y-73620000D01*
X82894367Y-73620000D01*
X82903116Y-73520000D01*
X82884686Y-73309345D01*
X82855416Y-73200108D01*
X82831379Y-73110400D01*
X82831378Y-73110398D01*
X82829956Y-73105090D01*
X82827633Y-73100108D01*
X82742912Y-72918423D01*
X82742910Y-72918420D01*
X82740589Y-72913442D01*
X82619301Y-72740224D01*
X82469776Y-72590699D01*
X82296558Y-72469411D01*
X82291580Y-72467090D01*
X82291577Y-72467088D01*
X82220445Y-72433919D01*
X82167160Y-72387002D01*
X82147699Y-72318725D01*
X82168241Y-72250765D01*
X82220446Y-72205529D01*
X82291323Y-72172479D01*
X82300811Y-72167002D01*
X82464942Y-72052075D01*
X82473350Y-72045019D01*
X82615019Y-71903350D01*
X82622075Y-71894942D01*
X82737002Y-71730811D01*
X82742479Y-71721323D01*
X82827158Y-71539727D01*
X82830908Y-71529423D01*
X82867866Y-71391497D01*
X82867530Y-71377401D01*
X82859588Y-71374000D01*
X80525561Y-71374000D01*
X80512030Y-71377973D01*
X80510801Y-71386522D01*
X80549092Y-71529423D01*
X80552842Y-71539727D01*
X80637521Y-71721323D01*
X80642998Y-71730811D01*
X80757925Y-71894942D01*
X80764981Y-71903350D01*
X80906650Y-72045019D01*
X80915058Y-72052075D01*
X81079189Y-72167002D01*
X81088677Y-72172479D01*
X81159554Y-72205529D01*
X81212840Y-72252446D01*
X81232301Y-72320723D01*
X81211760Y-72388683D01*
X81159555Y-72433919D01*
X81088423Y-72467088D01*
X81088420Y-72467090D01*
X81083442Y-72469411D01*
X80910224Y-72590699D01*
X80760699Y-72740224D01*
X80639411Y-72913442D01*
X80637090Y-72918420D01*
X80637088Y-72918423D01*
X80552367Y-73100108D01*
X80550044Y-73105090D01*
X80548622Y-73110398D01*
X80548621Y-73110400D01*
X80524584Y-73200108D01*
X80495314Y-73309345D01*
X80476884Y-73520000D01*
X71358500Y-73520000D01*
X71358500Y-73168999D01*
X71358298Y-73166486D01*
X71344346Y-72993076D01*
X71344345Y-72993071D01*
X71343940Y-72988035D01*
X71325619Y-72913442D01*
X71287244Y-72757208D01*
X71286037Y-72752294D01*
X71279261Y-72736329D01*
X71193165Y-72533502D01*
X71191188Y-72528844D01*
X71113926Y-72406154D01*
X71064528Y-72327712D01*
X71064526Y-72327709D01*
X71061833Y-72323433D01*
X70997768Y-72250765D01*
X70904650Y-72145142D01*
X70904647Y-72145139D01*
X70901302Y-72141345D01*
X70794993Y-72054022D01*
X70717628Y-71990474D01*
X70717625Y-71990472D01*
X70713722Y-71987266D01*
X70584337Y-71911962D01*
X70508290Y-71867701D01*
X70508288Y-71867700D01*
X70503922Y-71865159D01*
X70369725Y-71813646D01*
X70282022Y-71779980D01*
X70282018Y-71779979D01*
X70277298Y-71778167D01*
X70272348Y-71777133D01*
X70272345Y-71777132D01*
X70044631Y-71729560D01*
X70044627Y-71729560D01*
X70039680Y-71728526D01*
X69797183Y-71717514D01*
X69792163Y-71718095D01*
X69792159Y-71718095D01*
X69561071Y-71744833D01*
X69561067Y-71744834D01*
X69556044Y-71745415D01*
X69551180Y-71746791D01*
X69551177Y-71746792D01*
X69443958Y-71777132D01*
X69322468Y-71811510D01*
X69317892Y-71813644D01*
X69317886Y-71813646D01*
X69107046Y-71911962D01*
X69107042Y-71911964D01*
X69102464Y-71914099D01*
X68901693Y-72050544D01*
X68725319Y-72217332D01*
X68722241Y-72221358D01*
X68722240Y-72221359D01*
X68580953Y-72406154D01*
X68580950Y-72406158D01*
X68577880Y-72410174D01*
X68463169Y-72624109D01*
X68384138Y-72853631D01*
X68383276Y-72858623D01*
X68357313Y-73008937D01*
X68342821Y-73092836D01*
X68342641Y-73096797D01*
X68342641Y-73096798D01*
X68342265Y-73105090D01*
X68341500Y-73121925D01*
X68341500Y-74291001D01*
X55880000Y-74291001D01*
X55880000Y-70848503D01*
X80512134Y-70848503D01*
X80512470Y-70862599D01*
X80520412Y-70866000D01*
X81417885Y-70866000D01*
X81433124Y-70861525D01*
X81434329Y-70860135D01*
X81436000Y-70852452D01*
X81436000Y-70847885D01*
X81944000Y-70847885D01*
X81948475Y-70863124D01*
X81949865Y-70864329D01*
X81957548Y-70866000D01*
X82854439Y-70866000D01*
X82867970Y-70862027D01*
X82869199Y-70853478D01*
X82867866Y-70848503D01*
X87312134Y-70848503D01*
X87312470Y-70862599D01*
X87320412Y-70866000D01*
X88217885Y-70866000D01*
X88233124Y-70861525D01*
X88234329Y-70860135D01*
X88236000Y-70852452D01*
X88236000Y-70847885D01*
X88744000Y-70847885D01*
X88748475Y-70863124D01*
X88749865Y-70864329D01*
X88757548Y-70866000D01*
X89654439Y-70866000D01*
X89667970Y-70862027D01*
X89669199Y-70853478D01*
X89630908Y-70710577D01*
X89627158Y-70700273D01*
X89542479Y-70518677D01*
X89537002Y-70509189D01*
X89422075Y-70345058D01*
X89415019Y-70336650D01*
X89273350Y-70194981D01*
X89264942Y-70187925D01*
X89100811Y-70072998D01*
X89091323Y-70067521D01*
X88909727Y-69982842D01*
X88899423Y-69979092D01*
X88761497Y-69942134D01*
X88747401Y-69942470D01*
X88744000Y-69950412D01*
X88744000Y-70847885D01*
X88236000Y-70847885D01*
X88236000Y-69955561D01*
X88232027Y-69942030D01*
X88223478Y-69940801D01*
X88080577Y-69979092D01*
X88070273Y-69982842D01*
X87888677Y-70067521D01*
X87879189Y-70072998D01*
X87715058Y-70187925D01*
X87706650Y-70194981D01*
X87564981Y-70336650D01*
X87557925Y-70345058D01*
X87442998Y-70509189D01*
X87437521Y-70518677D01*
X87352842Y-70700273D01*
X87349092Y-70710577D01*
X87312134Y-70848503D01*
X82867866Y-70848503D01*
X82830908Y-70710577D01*
X82827158Y-70700273D01*
X82742479Y-70518677D01*
X82737002Y-70509189D01*
X82622075Y-70345058D01*
X82615019Y-70336650D01*
X82473350Y-70194981D01*
X82464942Y-70187925D01*
X82300811Y-70072998D01*
X82291323Y-70067521D01*
X82109727Y-69982842D01*
X82099423Y-69979092D01*
X81961497Y-69942134D01*
X81947401Y-69942470D01*
X81944000Y-69950412D01*
X81944000Y-70847885D01*
X81436000Y-70847885D01*
X81436000Y-69955561D01*
X81432027Y-69942030D01*
X81423478Y-69940801D01*
X81280577Y-69979092D01*
X81270273Y-69982842D01*
X81088677Y-70067521D01*
X81079189Y-70072998D01*
X80915058Y-70187925D01*
X80906650Y-70194981D01*
X80764981Y-70336650D01*
X80757925Y-70345058D01*
X80642998Y-70509189D01*
X80637521Y-70518677D01*
X80552842Y-70700273D01*
X80549092Y-70710577D01*
X80512134Y-70848503D01*
X55880000Y-70848503D01*
X55880000Y-69426999D01*
X77081500Y-69426999D01*
X77081749Y-69429786D01*
X77081749Y-69429792D01*
X77088009Y-69499929D01*
X77096383Y-69593762D01*
X77155663Y-69810451D01*
X77252378Y-70013218D01*
X77383471Y-70195654D01*
X77387503Y-70199561D01*
X77537644Y-70345058D01*
X77544799Y-70351992D01*
X77731262Y-70477290D01*
X77936967Y-70567588D01*
X77942418Y-70568897D01*
X77942422Y-70568898D01*
X78149954Y-70618722D01*
X78155411Y-70620032D01*
X78239475Y-70624879D01*
X78374083Y-70632640D01*
X78374086Y-70632640D01*
X78379690Y-70632963D01*
X78602715Y-70605975D01*
X78817435Y-70539918D01*
X78822415Y-70537348D01*
X78822419Y-70537346D01*
X79012081Y-70439454D01*
X79012082Y-70439454D01*
X79017064Y-70436882D01*
X79195292Y-70300123D01*
X79346485Y-70133964D01*
X79388165Y-70067521D01*
X79462885Y-69948405D01*
X79465864Y-69943656D01*
X79549656Y-69735217D01*
X79595213Y-69515233D01*
X79598500Y-69458225D01*
X79598500Y-69426999D01*
X90581500Y-69426999D01*
X90581749Y-69429786D01*
X90581749Y-69429792D01*
X90588009Y-69499929D01*
X90596383Y-69593762D01*
X90655663Y-69810451D01*
X90752378Y-70013218D01*
X90883471Y-70195654D01*
X90887503Y-70199561D01*
X91037644Y-70345058D01*
X91044799Y-70351992D01*
X91231262Y-70477290D01*
X91436967Y-70567588D01*
X91442418Y-70568897D01*
X91442422Y-70568898D01*
X91649954Y-70618722D01*
X91655411Y-70620032D01*
X91739475Y-70624879D01*
X91874083Y-70632640D01*
X91874086Y-70632640D01*
X91879690Y-70632963D01*
X92102715Y-70605975D01*
X92317435Y-70539918D01*
X92322415Y-70537348D01*
X92322419Y-70537346D01*
X92512081Y-70439454D01*
X92512082Y-70439454D01*
X92517064Y-70436882D01*
X92695292Y-70300123D01*
X92846485Y-70133964D01*
X92888165Y-70067521D01*
X92962885Y-69948405D01*
X92965864Y-69943656D01*
X93049656Y-69735217D01*
X93095213Y-69515233D01*
X93098500Y-69458225D01*
X93098500Y-66813001D01*
X93095551Y-66779952D01*
X93091037Y-66729379D01*
X93083617Y-66646238D01*
X93024337Y-66429549D01*
X92992820Y-66363471D01*
X92970791Y-66317288D01*
X92927622Y-66226782D01*
X92796529Y-66044346D01*
X92635201Y-65888008D01*
X92448738Y-65762710D01*
X92243033Y-65672412D01*
X92237582Y-65671103D01*
X92237578Y-65671102D01*
X92030046Y-65621278D01*
X92030045Y-65621278D01*
X92024589Y-65619968D01*
X91940525Y-65615121D01*
X91805917Y-65607360D01*
X91805914Y-65607360D01*
X91800310Y-65607037D01*
X91577285Y-65634025D01*
X91362565Y-65700082D01*
X91357585Y-65702652D01*
X91357581Y-65702654D01*
X91167919Y-65800546D01*
X91162936Y-65803118D01*
X90984708Y-65939877D01*
X90833515Y-66106036D01*
X90830537Y-66110783D01*
X90830535Y-66110786D01*
X90719822Y-66287280D01*
X90714136Y-66296344D01*
X90630344Y-66504783D01*
X90584787Y-66724767D01*
X90581500Y-66781775D01*
X90581500Y-69426999D01*
X79598500Y-69426999D01*
X79598500Y-67359690D01*
X82577037Y-67359690D01*
X82604025Y-67582715D01*
X82670082Y-67797435D01*
X82672652Y-67802415D01*
X82672654Y-67802419D01*
X82737847Y-67928727D01*
X82773118Y-67997064D01*
X82909877Y-68175292D01*
X83076036Y-68326485D01*
X83080783Y-68329463D01*
X83080786Y-68329465D01*
X83209229Y-68410036D01*
X83266344Y-68445864D01*
X83474783Y-68529656D01*
X83694767Y-68575213D01*
X83699378Y-68575479D01*
X83699379Y-68575479D01*
X83749952Y-68578395D01*
X83749956Y-68578395D01*
X83751775Y-68578500D01*
X86396999Y-68578500D01*
X86399786Y-68578251D01*
X86399792Y-68578251D01*
X86469929Y-68571991D01*
X86563762Y-68563617D01*
X86569176Y-68562136D01*
X86569181Y-68562135D01*
X86696912Y-68527191D01*
X86780451Y-68504337D01*
X86785509Y-68501925D01*
X86785513Y-68501923D01*
X86903042Y-68445864D01*
X86983218Y-68407622D01*
X87165654Y-68276529D01*
X87321992Y-68115201D01*
X87447290Y-67928738D01*
X87537588Y-67723033D01*
X87590032Y-67504589D01*
X87596367Y-67394709D01*
X87602640Y-67285917D01*
X87602640Y-67285914D01*
X87602963Y-67280310D01*
X87575975Y-67057285D01*
X87509918Y-66842565D01*
X87496106Y-66815803D01*
X87409454Y-66647919D01*
X87409454Y-66647918D01*
X87406882Y-66642936D01*
X87270123Y-66464708D01*
X87103964Y-66313515D01*
X87099217Y-66310537D01*
X87099214Y-66310535D01*
X86918405Y-66197115D01*
X86913656Y-66194136D01*
X86705217Y-66110344D01*
X86485233Y-66064787D01*
X86480622Y-66064521D01*
X86480621Y-66064521D01*
X86430048Y-66061605D01*
X86430044Y-66061605D01*
X86428225Y-66061500D01*
X83783001Y-66061500D01*
X83780214Y-66061749D01*
X83780208Y-66061749D01*
X83710071Y-66068009D01*
X83616238Y-66076383D01*
X83610824Y-66077864D01*
X83610819Y-66077865D01*
X83507846Y-66106036D01*
X83399549Y-66135663D01*
X83394491Y-66138075D01*
X83394487Y-66138077D01*
X83340634Y-66163764D01*
X83196782Y-66232378D01*
X83014346Y-66363471D01*
X82978559Y-66400400D01*
X82870239Y-66512178D01*
X82858008Y-66524799D01*
X82732710Y-66711262D01*
X82642412Y-66916967D01*
X82641103Y-66922418D01*
X82641102Y-66922422D01*
X82627805Y-66977809D01*
X82589968Y-67135411D01*
X82589645Y-67141016D01*
X82584328Y-67233241D01*
X82577037Y-67359690D01*
X79598500Y-67359690D01*
X79598500Y-66813001D01*
X79595551Y-66779952D01*
X79591037Y-66729379D01*
X79583617Y-66646238D01*
X79524337Y-66429549D01*
X79492820Y-66363471D01*
X79470791Y-66317288D01*
X79427622Y-66226782D01*
X79296529Y-66044346D01*
X79135201Y-65888008D01*
X78948738Y-65762710D01*
X78743033Y-65672412D01*
X78737582Y-65671103D01*
X78737578Y-65671102D01*
X78530046Y-65621278D01*
X78530045Y-65621278D01*
X78524589Y-65619968D01*
X78440525Y-65615121D01*
X78305917Y-65607360D01*
X78305914Y-65607360D01*
X78300310Y-65607037D01*
X78077285Y-65634025D01*
X77862565Y-65700082D01*
X77857585Y-65702652D01*
X77857581Y-65702654D01*
X77667919Y-65800546D01*
X77662936Y-65803118D01*
X77484708Y-65939877D01*
X77333515Y-66106036D01*
X77330537Y-66110783D01*
X77330535Y-66110786D01*
X77219822Y-66287280D01*
X77214136Y-66296344D01*
X77130344Y-66504783D01*
X77084787Y-66724767D01*
X77081500Y-66781775D01*
X77081500Y-69426999D01*
X55880000Y-69426999D01*
X55880000Y-67901114D01*
X67863275Y-67901114D01*
X67865325Y-67918830D01*
X67867285Y-67928727D01*
X67930604Y-68152494D01*
X67934116Y-68161938D01*
X68032399Y-68372705D01*
X68037378Y-68381471D01*
X68168087Y-68573802D01*
X68174419Y-68581677D01*
X68334186Y-68750626D01*
X68341695Y-68757387D01*
X68526426Y-68898625D01*
X68534905Y-68904089D01*
X68739847Y-69013978D01*
X68749099Y-69018020D01*
X68968971Y-69093727D01*
X68978743Y-69096236D01*
X69208971Y-69136004D01*
X69216843Y-69136859D01*
X69240551Y-69137936D01*
X69243384Y-69138000D01*
X69577885Y-69138000D01*
X69593124Y-69133525D01*
X69594329Y-69132135D01*
X69596000Y-69124452D01*
X69596000Y-69119885D01*
X70104000Y-69119885D01*
X70108475Y-69135124D01*
X70109865Y-69136329D01*
X70117548Y-69138000D01*
X70408456Y-69138000D01*
X70413488Y-69137798D01*
X70586843Y-69123850D01*
X70596796Y-69122238D01*
X70822633Y-69066767D01*
X70832203Y-69063584D01*
X71046265Y-68972720D01*
X71055207Y-68968045D01*
X71251987Y-68844126D01*
X71260060Y-68838086D01*
X71434500Y-68684297D01*
X71441504Y-68677044D01*
X71589110Y-68497346D01*
X71594866Y-68489064D01*
X71711841Y-68288081D01*
X71716203Y-68278976D01*
X71799537Y-68061885D01*
X71802388Y-68052196D01*
X71833821Y-67901736D01*
X71832698Y-67887675D01*
X71822590Y-67884000D01*
X70122115Y-67884000D01*
X70106876Y-67888475D01*
X70105671Y-67889865D01*
X70104000Y-67897548D01*
X70104000Y-69119885D01*
X69596000Y-69119885D01*
X69596000Y-67902115D01*
X69591525Y-67886876D01*
X69590135Y-67885671D01*
X69582452Y-67884000D01*
X67879410Y-67884000D01*
X67865324Y-67888136D01*
X67863275Y-67901114D01*
X55880000Y-67901114D01*
X55880000Y-63626000D01*
X55900002Y-63557879D01*
X55953658Y-63511386D01*
X56006000Y-63500000D01*
X65307771Y-63500000D01*
X65375892Y-63520002D01*
G37*
G04 #@! TD.AperFunction*
G04 #@! TA.AperFunction,Conductor*
G36*
X60441239Y-96812973D02*
G01*
X60453089Y-96823423D01*
X60648895Y-97019229D01*
X60682921Y-97081541D01*
X60685800Y-97108324D01*
X60685800Y-103074469D01*
X60665798Y-103142590D01*
X60650894Y-103161520D01*
X60535629Y-103282138D01*
X60409743Y-103466680D01*
X60394003Y-103500590D01*
X60328742Y-103641183D01*
X60315688Y-103669305D01*
X60255989Y-103884570D01*
X60232251Y-104106695D01*
X60232548Y-104111848D01*
X60232548Y-104111851D01*
X60243923Y-104309128D01*
X60245110Y-104329715D01*
X60246247Y-104334761D01*
X60246248Y-104334767D01*
X60262278Y-104405896D01*
X60294222Y-104547639D01*
X60378266Y-104754616D01*
X60494987Y-104945088D01*
X60641250Y-105113938D01*
X60813126Y-105256632D01*
X60883595Y-105297811D01*
X60886445Y-105299476D01*
X60935169Y-105351114D01*
X60948240Y-105420897D01*
X60921509Y-105486669D01*
X60881055Y-105520027D01*
X60868607Y-105526507D01*
X60864474Y-105529610D01*
X60864471Y-105529612D01*
X60709111Y-105646260D01*
X60642626Y-105671166D01*
X60633458Y-105671500D01*
X59378799Y-105671500D01*
X59310678Y-105651498D01*
X59300707Y-105644382D01*
X59178414Y-105547800D01*
X59178410Y-105547798D01*
X59174359Y-105544598D01*
X59133053Y-105521796D01*
X59083084Y-105471364D01*
X59068312Y-105401921D01*
X59093428Y-105335516D01*
X59120780Y-105308909D01*
X59164603Y-105277650D01*
X59299860Y-105181173D01*
X59458096Y-105023489D01*
X59517594Y-104940689D01*
X59585435Y-104846277D01*
X59588453Y-104842077D01*
X59687430Y-104641811D01*
X59752370Y-104428069D01*
X59781529Y-104206590D01*
X59782321Y-104174176D01*
X59783074Y-104143365D01*
X59783074Y-104143361D01*
X59783156Y-104140000D01*
X59764852Y-103917361D01*
X59710431Y-103700702D01*
X59621354Y-103495840D01*
X59500014Y-103308277D01*
X59349670Y-103143051D01*
X59345619Y-103139852D01*
X59345615Y-103139848D01*
X59178414Y-103007800D01*
X59178410Y-103007798D01*
X59174359Y-103004598D01*
X58978789Y-102896638D01*
X58973920Y-102894914D01*
X58973916Y-102894912D01*
X58773087Y-102823795D01*
X58773083Y-102823794D01*
X58768212Y-102822069D01*
X58763119Y-102821162D01*
X58763116Y-102821161D01*
X58553373Y-102783800D01*
X58553367Y-102783799D01*
X58548284Y-102782894D01*
X58474452Y-102781992D01*
X58330081Y-102780228D01*
X58330079Y-102780228D01*
X58324911Y-102780165D01*
X58104091Y-102813955D01*
X57891756Y-102883357D01*
X57693607Y-102986507D01*
X57689474Y-102989610D01*
X57689471Y-102989612D01*
X57619460Y-103042178D01*
X57514965Y-103120635D01*
X57496605Y-103139848D01*
X57432478Y-103206953D01*
X57360629Y-103282138D01*
X57234743Y-103466680D01*
X57219003Y-103500590D01*
X57153742Y-103641183D01*
X57140688Y-103669305D01*
X57080989Y-103884570D01*
X57057251Y-104106695D01*
X57057548Y-104111848D01*
X57057548Y-104111851D01*
X57068923Y-104309128D01*
X57070110Y-104329715D01*
X57071247Y-104334761D01*
X57071248Y-104334767D01*
X57087278Y-104405896D01*
X57119222Y-104547639D01*
X57203266Y-104754616D01*
X57319987Y-104945088D01*
X57466250Y-105113938D01*
X57638126Y-105256632D01*
X57708595Y-105297811D01*
X57711445Y-105299476D01*
X57760169Y-105351114D01*
X57773240Y-105420897D01*
X57746509Y-105486669D01*
X57706055Y-105520027D01*
X57693607Y-105526507D01*
X57689474Y-105529610D01*
X57689471Y-105529612D01*
X57527134Y-105651498D01*
X57514965Y-105660635D01*
X57360629Y-105822138D01*
X57234743Y-106006680D01*
X57140688Y-106209305D01*
X57080989Y-106424570D01*
X57057251Y-106646695D01*
X57057548Y-106651848D01*
X57057548Y-106651851D01*
X57067991Y-106832963D01*
X57070110Y-106869715D01*
X57071247Y-106874761D01*
X57071248Y-106874767D01*
X57086074Y-106940553D01*
X57119222Y-107087639D01*
X57203266Y-107294616D01*
X57226609Y-107332708D01*
X57312228Y-107472426D01*
X57319987Y-107485088D01*
X57466250Y-107653938D01*
X57470225Y-107657238D01*
X57470231Y-107657244D01*
X57475425Y-107661556D01*
X57515059Y-107720460D01*
X57516555Y-107791441D01*
X57479439Y-107851962D01*
X57439168Y-107876480D01*
X57331946Y-107916676D01*
X57316351Y-107925214D01*
X57214276Y-108001715D01*
X57201715Y-108014276D01*
X57125214Y-108116351D01*
X57116676Y-108131946D01*
X57071522Y-108252394D01*
X57067895Y-108267649D01*
X57062369Y-108318514D01*
X57062000Y-108325328D01*
X57062000Y-108947885D01*
X57066475Y-108963124D01*
X57067865Y-108964329D01*
X57075548Y-108966000D01*
X59759884Y-108966000D01*
X59775123Y-108961525D01*
X59776328Y-108960135D01*
X59777999Y-108952452D01*
X59777999Y-108325331D01*
X59777629Y-108318510D01*
X59772105Y-108267648D01*
X59768479Y-108252396D01*
X59723324Y-108131946D01*
X59714786Y-108116351D01*
X59638285Y-108014276D01*
X59625724Y-108001715D01*
X59523646Y-107925212D01*
X59523295Y-107925020D01*
X59523014Y-107924739D01*
X59516462Y-107919828D01*
X59517171Y-107918882D01*
X59473149Y-107874762D01*
X59458135Y-107805371D01*
X59483020Y-107738879D01*
X59539903Y-107696395D01*
X59583804Y-107688500D01*
X60430144Y-107688500D01*
X60498265Y-107708502D01*
X60544758Y-107762158D01*
X60554862Y-107832432D01*
X60525368Y-107897012D01*
X60498047Y-107919054D01*
X60498295Y-107919385D01*
X60381739Y-108006739D01*
X60294385Y-108123295D01*
X60243255Y-108259684D01*
X60236500Y-108321866D01*
X60236500Y-110118134D01*
X60243255Y-110180316D01*
X60294385Y-110316705D01*
X60381739Y-110433261D01*
X60498295Y-110520615D01*
X60634684Y-110571745D01*
X60696866Y-110578500D01*
X62493134Y-110578500D01*
X62555316Y-110571745D01*
X62691705Y-110520615D01*
X62808261Y-110433261D01*
X62895615Y-110316705D01*
X62946745Y-110180316D01*
X62953500Y-110118134D01*
X62953500Y-109339926D01*
X62973502Y-109271805D01*
X62990404Y-109250831D01*
X63819172Y-108422062D01*
X63881485Y-108388037D01*
X63952300Y-108393101D01*
X64009136Y-108435648D01*
X64024677Y-108462939D01*
X64094772Y-108632163D01*
X64096760Y-108636963D01*
X64099346Y-108641183D01*
X64218241Y-108835202D01*
X64218245Y-108835208D01*
X64220824Y-108839416D01*
X64375031Y-109019969D01*
X64555584Y-109174176D01*
X64559792Y-109176755D01*
X64559798Y-109176759D01*
X64660570Y-109238512D01*
X64758037Y-109298240D01*
X64762607Y-109300133D01*
X64762611Y-109300135D01*
X64972833Y-109387211D01*
X64977406Y-109389105D01*
X65057609Y-109408360D01*
X65203476Y-109443380D01*
X65203482Y-109443381D01*
X65208289Y-109444535D01*
X65445000Y-109463165D01*
X65681711Y-109444535D01*
X65686518Y-109443381D01*
X65686524Y-109443380D01*
X65832391Y-109408360D01*
X65912594Y-109389105D01*
X65917167Y-109387211D01*
X66127389Y-109300135D01*
X66127393Y-109300133D01*
X66131963Y-109298240D01*
X66229430Y-109238512D01*
X66330202Y-109176759D01*
X66330208Y-109176755D01*
X66334416Y-109174176D01*
X66514969Y-109019969D01*
X66669176Y-108839416D01*
X66671755Y-108835208D01*
X66671759Y-108835202D01*
X66790654Y-108641183D01*
X66793240Y-108636963D01*
X66795229Y-108632163D01*
X66882211Y-108422167D01*
X66882212Y-108422165D01*
X66884105Y-108417594D01*
X66907087Y-108321866D01*
X66938380Y-108191524D01*
X66938381Y-108191518D01*
X66939535Y-108186711D01*
X66957777Y-107954930D01*
X68932725Y-107954930D01*
X68950572Y-108181699D01*
X68952115Y-108191446D01*
X69005217Y-108412627D01*
X69008266Y-108422012D01*
X69095313Y-108632163D01*
X69099795Y-108640958D01*
X69202432Y-108808445D01*
X69212890Y-108817907D01*
X69221666Y-108814124D01*
X70072978Y-107962812D01*
X70080592Y-107948868D01*
X70080461Y-107947035D01*
X70076210Y-107940420D01*
X69224710Y-107088920D01*
X69212330Y-107082160D01*
X69204680Y-107087887D01*
X69099795Y-107259042D01*
X69095313Y-107267837D01*
X69008266Y-107477988D01*
X69005217Y-107487373D01*
X68952115Y-107708554D01*
X68950572Y-107718301D01*
X68932725Y-107945070D01*
X68932725Y-107954930D01*
X66957777Y-107954930D01*
X66958165Y-107950000D01*
X66943482Y-107763440D01*
X66958078Y-107693960D01*
X66979999Y-107664459D01*
X67926568Y-106717890D01*
X69577093Y-106717890D01*
X69580876Y-106726666D01*
X70432188Y-107577978D01*
X70446132Y-107585592D01*
X70447965Y-107585461D01*
X70454580Y-107581210D01*
X71306080Y-106729710D01*
X71312840Y-106717330D01*
X71307113Y-106709680D01*
X71135958Y-106604795D01*
X71127163Y-106600313D01*
X70917012Y-106513266D01*
X70907627Y-106510217D01*
X70686446Y-106457115D01*
X70676699Y-106455572D01*
X70449930Y-106437725D01*
X70440070Y-106437725D01*
X70213301Y-106455572D01*
X70203554Y-106457115D01*
X69982373Y-106510217D01*
X69972988Y-106513266D01*
X69762837Y-106600313D01*
X69754042Y-106604795D01*
X69586555Y-106707432D01*
X69577093Y-106717890D01*
X67926568Y-106717890D01*
X68596153Y-106048305D01*
X68658465Y-106014279D01*
X68685248Y-106011400D01*
X86014552Y-106011400D01*
X86082673Y-106031402D01*
X86103647Y-106048305D01*
X86410190Y-106354848D01*
X86444216Y-106417160D01*
X86439151Y-106487975D01*
X86396604Y-106544811D01*
X86369313Y-106560352D01*
X86272837Y-106600313D01*
X86264042Y-106604795D01*
X86096555Y-106707432D01*
X86087093Y-106717890D01*
X86090876Y-106726666D01*
X87225115Y-107860905D01*
X87259141Y-107923217D01*
X87254076Y-107994032D01*
X87225115Y-108039095D01*
X86093920Y-109170290D01*
X86087160Y-109182670D01*
X86092887Y-109190320D01*
X86264042Y-109295205D01*
X86272837Y-109299687D01*
X86324977Y-109321284D01*
X86380258Y-109365833D01*
X86402679Y-109433196D01*
X86385121Y-109501987D01*
X86365854Y-109526788D01*
X84995792Y-110896850D01*
X84933480Y-110930876D01*
X84862665Y-110925811D01*
X84820366Y-110899531D01*
X84813172Y-110892764D01*
X84813171Y-110892763D01*
X84809763Y-110889557D01*
X84764865Y-110858410D01*
X84598851Y-110743241D01*
X84598848Y-110743239D01*
X84595009Y-110740576D01*
X84590816Y-110738508D01*
X84364781Y-110627040D01*
X84364776Y-110627038D01*
X84360593Y-110624975D01*
X84314449Y-110610204D01*
X84116123Y-110546720D01*
X84111665Y-110545293D01*
X83853693Y-110503279D01*
X83739942Y-110501790D01*
X83597022Y-110499919D01*
X83597019Y-110499919D01*
X83592345Y-110499858D01*
X83333362Y-110535104D01*
X83082433Y-110608243D01*
X83078180Y-110610203D01*
X83078179Y-110610204D01*
X83041659Y-110627040D01*
X82845072Y-110717668D01*
X82806067Y-110743241D01*
X82630404Y-110858410D01*
X82630399Y-110858414D01*
X82626491Y-110860976D01*
X82431494Y-111035018D01*
X82264363Y-111235970D01*
X82261934Y-111239973D01*
X82217319Y-111313496D01*
X82164880Y-111361357D01*
X82094889Y-111373269D01*
X82029570Y-111345451D01*
X81989659Y-111286734D01*
X81983600Y-111248131D01*
X81983600Y-109577387D01*
X82003602Y-109509266D01*
X82057258Y-109462773D01*
X82099713Y-109451776D01*
X82191711Y-109444535D01*
X82196518Y-109443381D01*
X82196524Y-109443380D01*
X82342391Y-109408360D01*
X82422594Y-109389105D01*
X82427167Y-109387211D01*
X82637389Y-109300135D01*
X82637393Y-109300133D01*
X82641963Y-109298240D01*
X82739430Y-109238512D01*
X82840202Y-109176759D01*
X82840208Y-109176755D01*
X82844416Y-109174176D01*
X83024969Y-109019969D01*
X83179176Y-108839416D01*
X83181755Y-108835208D01*
X83181759Y-108835202D01*
X83300654Y-108641183D01*
X83303240Y-108636963D01*
X83305229Y-108632163D01*
X83392211Y-108422167D01*
X83392212Y-108422165D01*
X83394105Y-108417594D01*
X83417087Y-108321866D01*
X83448380Y-108191524D01*
X83448381Y-108191518D01*
X83449535Y-108186711D01*
X83467777Y-107954930D01*
X85442725Y-107954930D01*
X85460572Y-108181699D01*
X85462115Y-108191446D01*
X85515217Y-108412627D01*
X85518266Y-108422012D01*
X85605313Y-108632163D01*
X85609795Y-108640958D01*
X85712432Y-108808445D01*
X85722890Y-108817907D01*
X85731666Y-108814124D01*
X86582978Y-107962812D01*
X86590592Y-107948868D01*
X86590461Y-107947035D01*
X86586210Y-107940420D01*
X85734710Y-107088920D01*
X85722330Y-107082160D01*
X85714680Y-107087887D01*
X85609795Y-107259042D01*
X85605313Y-107267837D01*
X85518266Y-107477988D01*
X85515217Y-107487373D01*
X85462115Y-107708554D01*
X85460572Y-107718301D01*
X85442725Y-107945070D01*
X85442725Y-107954930D01*
X83467777Y-107954930D01*
X83468165Y-107950000D01*
X83449535Y-107713289D01*
X83447916Y-107706543D01*
X83396093Y-107490686D01*
X83394105Y-107482406D01*
X83389971Y-107472426D01*
X83305135Y-107267611D01*
X83305133Y-107267607D01*
X83303240Y-107263037D01*
X83272970Y-107213641D01*
X83181759Y-107064798D01*
X83181755Y-107064792D01*
X83179176Y-107060584D01*
X83024969Y-106880031D01*
X82844416Y-106725824D01*
X82840208Y-106723245D01*
X82840202Y-106723241D01*
X82646183Y-106604346D01*
X82641963Y-106601760D01*
X82637393Y-106599867D01*
X82637389Y-106599865D01*
X82427167Y-106512789D01*
X82427165Y-106512788D01*
X82422594Y-106510895D01*
X82327125Y-106487975D01*
X82196524Y-106456620D01*
X82196518Y-106456619D01*
X82191711Y-106455465D01*
X81955000Y-106436835D01*
X81718289Y-106455465D01*
X81713482Y-106456619D01*
X81713476Y-106456620D01*
X81582875Y-106487975D01*
X81487406Y-106510895D01*
X81482835Y-106512788D01*
X81482833Y-106512789D01*
X81272611Y-106599865D01*
X81272607Y-106599867D01*
X81268037Y-106601760D01*
X81263817Y-106604346D01*
X81069798Y-106723241D01*
X81069792Y-106723245D01*
X81065584Y-106725824D01*
X80885031Y-106880031D01*
X80730824Y-107060584D01*
X80728245Y-107064792D01*
X80728241Y-107064798D01*
X80637030Y-107213641D01*
X80606760Y-107263037D01*
X80604867Y-107267607D01*
X80604865Y-107267611D01*
X80520029Y-107472426D01*
X80515895Y-107482406D01*
X80513907Y-107490686D01*
X80462085Y-107706543D01*
X80460465Y-107713289D01*
X80459901Y-107720460D01*
X80452861Y-107809901D01*
X80427575Y-107876243D01*
X80370437Y-107918382D01*
X80299587Y-107922941D01*
X80237519Y-107888472D01*
X80203940Y-107825918D01*
X80201637Y-107809900D01*
X80194428Y-107718302D01*
X80192885Y-107708554D01*
X80139783Y-107487373D01*
X80136734Y-107477988D01*
X80049687Y-107267837D01*
X80045205Y-107259042D01*
X79942568Y-107091555D01*
X79932110Y-107082093D01*
X79923334Y-107085876D01*
X79072022Y-107937188D01*
X79064408Y-107951132D01*
X79064539Y-107952965D01*
X79068790Y-107959580D01*
X79920290Y-108811080D01*
X79932670Y-108817840D01*
X79940318Y-108812114D01*
X79981472Y-108744958D01*
X80034120Y-108697327D01*
X80104162Y-108685720D01*
X80169359Y-108713823D01*
X80209013Y-108772714D01*
X80214732Y-108817387D01*
X80213381Y-108843175D01*
X80212950Y-108851393D01*
X80213982Y-108857907D01*
X80215049Y-108864644D01*
X80216600Y-108884356D01*
X80216600Y-111250500D01*
X80196598Y-111318621D01*
X80142942Y-111365114D01*
X80090600Y-111376500D01*
X77793704Y-111376500D01*
X77725583Y-111356498D01*
X77684311Y-111313023D01*
X77664275Y-111277967D01*
X77664271Y-111277961D01*
X77661951Y-111273902D01*
X77500138Y-111068643D01*
X77309763Y-110889557D01*
X77095009Y-110740576D01*
X77090816Y-110738508D01*
X76864781Y-110627040D01*
X76864776Y-110627038D01*
X76860593Y-110624975D01*
X76814449Y-110610204D01*
X76616123Y-110546720D01*
X76611665Y-110545293D01*
X76353693Y-110503279D01*
X76239942Y-110501790D01*
X76097022Y-110499919D01*
X76097019Y-110499919D01*
X76092345Y-110499858D01*
X75833362Y-110535104D01*
X75582433Y-110608243D01*
X75578180Y-110610203D01*
X75578179Y-110610204D01*
X75541659Y-110627040D01*
X75345072Y-110717668D01*
X75306067Y-110743241D01*
X75130404Y-110858410D01*
X75130399Y-110858414D01*
X75126491Y-110860976D01*
X74931494Y-111035018D01*
X74764363Y-111235970D01*
X74761934Y-111239973D01*
X74635815Y-111447811D01*
X74628771Y-111459419D01*
X74527697Y-111700455D01*
X74463359Y-111953783D01*
X74437173Y-112213839D01*
X74449713Y-112474908D01*
X74500704Y-112731256D01*
X74589026Y-112977252D01*
X74619015Y-113033065D01*
X74708975Y-113200489D01*
X74712737Y-113207491D01*
X74715532Y-113211234D01*
X74715534Y-113211237D01*
X74866330Y-113413177D01*
X74866335Y-113413183D01*
X74869122Y-113416915D01*
X74872431Y-113420195D01*
X74872436Y-113420201D01*
X75011857Y-113558410D01*
X75054743Y-113600923D01*
X75058505Y-113603681D01*
X75058508Y-113603684D01*
X75261750Y-113752707D01*
X75265524Y-113755474D01*
X75269667Y-113757654D01*
X75269669Y-113757655D01*
X75492684Y-113874989D01*
X75492689Y-113874991D01*
X75496834Y-113877172D01*
X75557441Y-113898337D01*
X75726979Y-113957543D01*
X75743590Y-113963344D01*
X75748183Y-113964216D01*
X75995785Y-114011224D01*
X75995788Y-114011224D01*
X76000374Y-114012095D01*
X76130958Y-114017226D01*
X76256875Y-114022174D01*
X76256881Y-114022174D01*
X76261543Y-114022357D01*
X76340977Y-114013657D01*
X76516707Y-113994412D01*
X76516712Y-113994411D01*
X76521360Y-113993902D01*
X76525884Y-113992711D01*
X76769594Y-113928548D01*
X76769596Y-113928547D01*
X76774117Y-113927357D01*
X76794472Y-113918612D01*
X76897204Y-113874474D01*
X77014262Y-113824182D01*
X77236519Y-113686646D01*
X77240082Y-113683629D01*
X77240087Y-113683626D01*
X77432439Y-113520787D01*
X77432440Y-113520786D01*
X77436005Y-113517768D01*
X77505514Y-113438508D01*
X77605257Y-113324774D01*
X77605261Y-113324769D01*
X77608339Y-113321259D01*
X77617555Y-113306932D01*
X77685475Y-113201337D01*
X77739149Y-113154866D01*
X77791446Y-113143500D01*
X80365513Y-113143500D01*
X80433634Y-113163502D01*
X80480127Y-113217158D01*
X80490231Y-113287432D01*
X80460737Y-113352012D01*
X80418264Y-113383926D01*
X80345072Y-113417668D01*
X80306067Y-113443241D01*
X80130404Y-113558410D01*
X80130399Y-113558414D01*
X80126491Y-113560976D01*
X79931494Y-113735018D01*
X79764363Y-113935970D01*
X79761934Y-113939973D01*
X79712260Y-114021834D01*
X79628771Y-114159419D01*
X79527697Y-114400455D01*
X79463359Y-114653783D01*
X79437173Y-114913839D01*
X79437397Y-114918505D01*
X79437397Y-114918511D01*
X79443060Y-115036395D01*
X79449713Y-115174908D01*
X79473410Y-115294036D01*
X79484012Y-115347337D01*
X79477684Y-115418051D01*
X79449528Y-115461014D01*
X78099141Y-116811401D01*
X78036829Y-116845427D01*
X77966014Y-116840362D01*
X77909178Y-116797815D01*
X77888704Y-116753476D01*
X77888297Y-116753600D01*
X77887388Y-116750627D01*
X77887154Y-116750120D01*
X77886929Y-116749124D01*
X77884205Y-116740215D01*
X77792888Y-116505392D01*
X77788877Y-116496983D01*
X77663854Y-116278240D01*
X77658643Y-116270514D01*
X77621391Y-116223261D01*
X77609466Y-116214790D01*
X77597934Y-116221276D01*
X76289095Y-117530115D01*
X76226783Y-117564141D01*
X76155968Y-117559076D01*
X76110905Y-117530115D01*
X74801321Y-116220531D01*
X74788013Y-116213264D01*
X74777974Y-116220386D01*
X74767761Y-116232666D01*
X74762346Y-116240258D01*
X74631646Y-116455646D01*
X74627408Y-116463963D01*
X74529981Y-116696299D01*
X74527020Y-116705149D01*
X74465006Y-116949331D01*
X74463384Y-116958528D01*
X74438143Y-117209198D01*
X74437898Y-117218523D01*
X74449987Y-117470175D01*
X74451124Y-117479435D01*
X74500274Y-117726535D01*
X74502768Y-117735528D01*
X74587900Y-117972639D01*
X74591697Y-117981168D01*
X74614745Y-118024061D01*
X74629369Y-118093535D01*
X74604110Y-118159887D01*
X74546989Y-118202050D01*
X74503753Y-118209700D01*
X70395917Y-118209700D01*
X70327796Y-118189698D01*
X70281303Y-118136042D01*
X70271199Y-118065768D01*
X70281035Y-118031949D01*
X70292860Y-118005698D01*
X70357083Y-117863129D01*
X70373572Y-117804664D01*
X70426760Y-117616076D01*
X70426761Y-117616073D01*
X70428030Y-117611572D01*
X70444840Y-117479435D01*
X70460616Y-117355421D01*
X70460616Y-117355417D01*
X70461014Y-117352291D01*
X70463431Y-117260000D01*
X70444061Y-116999348D01*
X70434825Y-116958528D01*
X70386377Y-116744423D01*
X70388134Y-116744025D01*
X70387421Y-116680645D01*
X70425130Y-116620491D01*
X70489375Y-116590273D01*
X70550250Y-116595826D01*
X70643951Y-116628548D01*
X70743590Y-116663344D01*
X70748183Y-116664216D01*
X70995785Y-116711224D01*
X70995788Y-116711224D01*
X71000374Y-116712095D01*
X71130959Y-116717226D01*
X71256875Y-116722174D01*
X71256881Y-116722174D01*
X71261543Y-116722357D01*
X71348751Y-116712806D01*
X71516707Y-116694412D01*
X71516712Y-116694411D01*
X71521360Y-116693902D01*
X71571714Y-116680645D01*
X71769594Y-116628548D01*
X71769596Y-116628547D01*
X71774117Y-116627357D01*
X72014262Y-116524182D01*
X72044627Y-116505392D01*
X72232547Y-116389104D01*
X72232548Y-116389104D01*
X72236519Y-116386646D01*
X72240082Y-116383629D01*
X72240087Y-116383626D01*
X72432439Y-116220787D01*
X72432440Y-116220786D01*
X72436005Y-116217768D01*
X72464614Y-116185146D01*
X72605257Y-116024774D01*
X72605261Y-116024769D01*
X72608339Y-116021259D01*
X72650255Y-115956094D01*
X72709230Y-115864406D01*
X72719266Y-115848803D01*
X75153216Y-115848803D01*
X75157789Y-115858579D01*
X76187188Y-116887978D01*
X76201132Y-116895592D01*
X76202965Y-116895461D01*
X76209580Y-116891210D01*
X77238419Y-115862371D01*
X77244803Y-115850681D01*
X77235391Y-115838570D01*
X77098593Y-115743670D01*
X77090565Y-115738942D01*
X76864593Y-115627505D01*
X76855960Y-115624017D01*
X76615998Y-115547205D01*
X76606938Y-115545029D01*
X76358260Y-115504529D01*
X76348973Y-115503717D01*
X76097053Y-115500419D01*
X76087742Y-115500989D01*
X75838097Y-115534964D01*
X75828978Y-115536902D01*
X75587098Y-115607404D01*
X75578367Y-115610667D01*
X75349558Y-115716151D01*
X75341406Y-115720670D01*
X75162353Y-115838062D01*
X75153216Y-115848803D01*
X72719266Y-115848803D01*
X72749733Y-115801437D01*
X72857083Y-115563129D01*
X72872022Y-115510160D01*
X72926760Y-115316076D01*
X72926761Y-115316073D01*
X72928030Y-115311572D01*
X72944832Y-115179493D01*
X72960616Y-115055421D01*
X72960616Y-115055417D01*
X72961014Y-115052291D01*
X72961397Y-115037689D01*
X72963348Y-114963160D01*
X72963431Y-114960000D01*
X72959655Y-114909185D01*
X72944407Y-114704000D01*
X72944406Y-114703996D01*
X72944061Y-114699348D01*
X72932804Y-114649597D01*
X72889340Y-114457519D01*
X72886377Y-114444423D01*
X72851679Y-114355196D01*
X72793340Y-114205176D01*
X72793339Y-114205173D01*
X72791647Y-114200823D01*
X72774132Y-114170177D01*
X72743626Y-114116804D01*
X72661951Y-113973902D01*
X72500138Y-113768643D01*
X72309763Y-113589557D01*
X72095009Y-113440576D01*
X72090816Y-113438508D01*
X71864781Y-113327040D01*
X71864778Y-113327039D01*
X71860593Y-113324975D01*
X71848985Y-113321259D01*
X71616123Y-113246720D01*
X71611665Y-113245293D01*
X71353693Y-113203279D01*
X71239942Y-113201790D01*
X71097022Y-113199919D01*
X71097019Y-113199919D01*
X71092345Y-113199858D01*
X70833362Y-113235104D01*
X70582433Y-113308243D01*
X70578180Y-113310203D01*
X70578179Y-113310204D01*
X70541659Y-113327040D01*
X70345072Y-113417668D01*
X70329986Y-113427559D01*
X70324202Y-113431351D01*
X70256266Y-113451973D01*
X70187966Y-113432592D01*
X70140986Y-113379363D01*
X70130242Y-113309184D01*
X70149147Y-113257815D01*
X70157202Y-113245293D01*
X70249733Y-113101437D01*
X70357083Y-112863129D01*
X70364858Y-112835561D01*
X70426760Y-112616076D01*
X70426761Y-112616073D01*
X70428030Y-112611572D01*
X70443021Y-112493733D01*
X70471460Y-112428681D01*
X70478919Y-112420539D01*
X73414459Y-109484999D01*
X73476771Y-109450973D01*
X73513440Y-109448482D01*
X73700000Y-109463165D01*
X73936711Y-109444535D01*
X73941518Y-109443381D01*
X73941524Y-109443380D01*
X74087391Y-109408360D01*
X74167594Y-109389105D01*
X74172167Y-109387211D01*
X74382389Y-109300135D01*
X74382393Y-109300133D01*
X74386963Y-109298240D01*
X74484430Y-109238512D01*
X74575556Y-109182670D01*
X77832160Y-109182670D01*
X77837887Y-109190320D01*
X78009042Y-109295205D01*
X78017837Y-109299687D01*
X78227988Y-109386734D01*
X78237373Y-109389783D01*
X78458554Y-109442885D01*
X78468301Y-109444428D01*
X78695070Y-109462275D01*
X78704930Y-109462275D01*
X78931699Y-109444428D01*
X78941446Y-109442885D01*
X79162627Y-109389783D01*
X79172012Y-109386734D01*
X79382163Y-109299687D01*
X79390958Y-109295205D01*
X79558445Y-109192568D01*
X79567907Y-109182110D01*
X79564124Y-109173334D01*
X78712812Y-108322022D01*
X78698868Y-108314408D01*
X78697035Y-108314539D01*
X78690420Y-108318790D01*
X77838920Y-109170290D01*
X77832160Y-109182670D01*
X74575556Y-109182670D01*
X74585202Y-109176759D01*
X74585208Y-109176755D01*
X74589416Y-109174176D01*
X74769969Y-109019969D01*
X74924176Y-108839416D01*
X74926755Y-108835208D01*
X74926759Y-108835202D01*
X75045654Y-108641183D01*
X75048240Y-108636963D01*
X75050229Y-108632163D01*
X75137211Y-108422167D01*
X75137212Y-108422165D01*
X75139105Y-108417594D01*
X75162087Y-108321866D01*
X75193380Y-108191524D01*
X75193381Y-108191518D01*
X75194535Y-108186711D01*
X75212777Y-107954930D01*
X77187725Y-107954930D01*
X77205572Y-108181699D01*
X77207115Y-108191446D01*
X77260217Y-108412627D01*
X77263266Y-108422012D01*
X77350313Y-108632163D01*
X77354795Y-108640958D01*
X77457432Y-108808445D01*
X77467890Y-108817907D01*
X77476666Y-108814124D01*
X78327978Y-107962812D01*
X78335592Y-107948868D01*
X78335461Y-107947035D01*
X78331210Y-107940420D01*
X77479710Y-107088920D01*
X77467330Y-107082160D01*
X77459680Y-107087887D01*
X77354795Y-107259042D01*
X77350313Y-107267837D01*
X77263266Y-107477988D01*
X77260217Y-107487373D01*
X77207115Y-107708554D01*
X77205572Y-107718301D01*
X77187725Y-107945070D01*
X77187725Y-107954930D01*
X75212777Y-107954930D01*
X75213165Y-107950000D01*
X75194535Y-107713289D01*
X75192916Y-107706543D01*
X75141093Y-107490686D01*
X75139105Y-107482406D01*
X75134971Y-107472426D01*
X75050135Y-107267611D01*
X75050133Y-107267607D01*
X75048240Y-107263037D01*
X75017970Y-107213641D01*
X74926759Y-107064798D01*
X74926755Y-107064792D01*
X74924176Y-107060584D01*
X74769969Y-106880031D01*
X74589416Y-106725824D01*
X74585208Y-106723245D01*
X74585202Y-106723241D01*
X74576470Y-106717890D01*
X77832093Y-106717890D01*
X77835876Y-106726666D01*
X78687188Y-107577978D01*
X78701132Y-107585592D01*
X78702965Y-107585461D01*
X78709580Y-107581210D01*
X79561080Y-106729710D01*
X79567840Y-106717330D01*
X79562113Y-106709680D01*
X79390958Y-106604795D01*
X79382163Y-106600313D01*
X79172012Y-106513266D01*
X79162627Y-106510217D01*
X78941446Y-106457115D01*
X78931699Y-106455572D01*
X78704930Y-106437725D01*
X78695070Y-106437725D01*
X78468301Y-106455572D01*
X78458554Y-106457115D01*
X78237373Y-106510217D01*
X78227988Y-106513266D01*
X78017837Y-106600313D01*
X78009042Y-106604795D01*
X77841555Y-106707432D01*
X77832093Y-106717890D01*
X74576470Y-106717890D01*
X74391183Y-106604346D01*
X74386963Y-106601760D01*
X74382393Y-106599867D01*
X74382389Y-106599865D01*
X74172167Y-106512789D01*
X74172165Y-106512788D01*
X74167594Y-106510895D01*
X74072125Y-106487975D01*
X73941524Y-106456620D01*
X73941518Y-106456619D01*
X73936711Y-106455465D01*
X73700000Y-106436835D01*
X73463289Y-106455465D01*
X73458482Y-106456619D01*
X73458476Y-106456620D01*
X73327875Y-106487975D01*
X73232406Y-106510895D01*
X73227835Y-106512788D01*
X73227833Y-106512789D01*
X73017611Y-106599865D01*
X73017607Y-106599867D01*
X73013037Y-106601760D01*
X73008817Y-106604346D01*
X72814798Y-106723241D01*
X72814792Y-106723245D01*
X72810584Y-106725824D01*
X72630031Y-106880031D01*
X72475824Y-107060584D01*
X72473245Y-107064792D01*
X72473241Y-107064798D01*
X72382030Y-107213641D01*
X72351760Y-107263037D01*
X72349867Y-107267607D01*
X72349865Y-107267611D01*
X72265029Y-107472426D01*
X72260895Y-107482406D01*
X72258907Y-107490686D01*
X72207085Y-107706543D01*
X72205465Y-107713289D01*
X72204901Y-107720460D01*
X72197861Y-107809901D01*
X72172575Y-107876243D01*
X72115437Y-107918382D01*
X72044587Y-107922941D01*
X71982519Y-107888472D01*
X71948940Y-107825918D01*
X71946637Y-107809900D01*
X71939428Y-107718302D01*
X71937885Y-107708554D01*
X71884783Y-107487373D01*
X71881734Y-107477988D01*
X71794687Y-107267837D01*
X71790205Y-107259042D01*
X71687568Y-107091555D01*
X71677110Y-107082093D01*
X71668334Y-107085876D01*
X69583920Y-109170290D01*
X69577160Y-109182670D01*
X69582887Y-109190320D01*
X69754042Y-109295205D01*
X69762837Y-109299687D01*
X69972988Y-109386734D01*
X69982373Y-109389783D01*
X70203554Y-109442885D01*
X70213301Y-109444428D01*
X70440070Y-109462275D01*
X70449930Y-109462275D01*
X70639498Y-109447356D01*
X70708978Y-109461952D01*
X70759538Y-109511795D01*
X70775124Y-109581059D01*
X70750789Y-109647755D01*
X70738479Y-109662063D01*
X69702357Y-110698185D01*
X69640045Y-110732211D01*
X69569230Y-110727146D01*
X69557551Y-110722104D01*
X69360593Y-110624975D01*
X69314449Y-110610204D01*
X69116123Y-110546720D01*
X69111665Y-110545293D01*
X68853693Y-110503279D01*
X68739942Y-110501790D01*
X68597022Y-110499919D01*
X68597019Y-110499919D01*
X68592345Y-110499858D01*
X68333362Y-110535104D01*
X68082433Y-110608243D01*
X68078180Y-110610203D01*
X68078179Y-110610204D01*
X68041659Y-110627040D01*
X67845072Y-110717668D01*
X67806067Y-110743241D01*
X67630404Y-110858410D01*
X67630399Y-110858414D01*
X67626491Y-110860976D01*
X67431494Y-111035018D01*
X67264363Y-111235970D01*
X67261934Y-111239973D01*
X67135815Y-111447811D01*
X67128771Y-111459419D01*
X67027697Y-111700455D01*
X66963359Y-111953783D01*
X66937173Y-112213839D01*
X66949713Y-112474908D01*
X67000704Y-112731256D01*
X67089026Y-112977252D01*
X67119015Y-113033065D01*
X67208975Y-113200489D01*
X67212737Y-113207491D01*
X67215532Y-113211234D01*
X67215534Y-113211237D01*
X67366330Y-113413177D01*
X67366335Y-113413183D01*
X67369122Y-113416915D01*
X67372431Y-113420195D01*
X67372436Y-113420201D01*
X67511857Y-113558410D01*
X67554743Y-113600923D01*
X67558505Y-113603681D01*
X67558508Y-113603684D01*
X67761750Y-113752707D01*
X67765524Y-113755474D01*
X67924269Y-113838994D01*
X67975239Y-113888411D01*
X67991402Y-113957543D01*
X67967623Y-114024439D01*
X67911453Y-114067860D01*
X67865599Y-114076500D01*
X62038148Y-114076500D01*
X61970027Y-114056498D01*
X61949053Y-114039595D01*
X61311139Y-113401681D01*
X61277113Y-113339369D01*
X61275326Y-113296031D01*
X61301248Y-113100455D01*
X61301248Y-113100451D01*
X61301948Y-113095171D01*
X61293172Y-112861396D01*
X61254251Y-112675901D01*
X61246229Y-112637668D01*
X61246228Y-112637665D01*
X61245132Y-112632441D01*
X61159203Y-112414854D01*
X61037841Y-112214856D01*
X60884517Y-112038166D01*
X60703614Y-111889835D01*
X60500305Y-111774104D01*
X60280404Y-111694284D01*
X60275155Y-111693335D01*
X60275152Y-111693334D01*
X60193960Y-111678652D01*
X60050197Y-111652656D01*
X60046058Y-111652461D01*
X60046051Y-111652460D01*
X60027172Y-111651570D01*
X60027165Y-111651570D01*
X60025684Y-111651500D01*
X59401262Y-111651500D01*
X59333359Y-111657262D01*
X59232209Y-111665844D01*
X59232205Y-111665845D01*
X59226898Y-111666295D01*
X59221741Y-111667633D01*
X59221738Y-111667634D01*
X59005629Y-111723725D01*
X59005625Y-111723726D01*
X59000460Y-111725067D01*
X58995594Y-111727259D01*
X58995591Y-111727260D01*
X58885739Y-111776745D01*
X58787163Y-111821150D01*
X58593104Y-111951798D01*
X58589247Y-111955477D01*
X58589245Y-111955479D01*
X58518760Y-112022719D01*
X58423832Y-112113276D01*
X58284187Y-112300965D01*
X58281771Y-112305716D01*
X58281769Y-112305720D01*
X58187071Y-112491977D01*
X58178162Y-112509500D01*
X58108790Y-112732917D01*
X58108089Y-112738204D01*
X58108089Y-112738205D01*
X58082105Y-112934253D01*
X58078052Y-112964829D01*
X58078252Y-112970158D01*
X58078252Y-112970160D01*
X58078673Y-112981376D01*
X58086828Y-113198604D01*
X58087923Y-113203822D01*
X58132793Y-113417668D01*
X58134868Y-113427559D01*
X58220797Y-113645146D01*
X58230093Y-113660465D01*
X58327949Y-113821726D01*
X58342159Y-113845144D01*
X58495483Y-114021834D01*
X58676386Y-114170165D01*
X58681016Y-114172801D01*
X58681021Y-114172804D01*
X58713516Y-114191301D01*
X58762822Y-114242384D01*
X58776683Y-114312015D01*
X58750699Y-114378085D01*
X58721550Y-114405323D01*
X58593104Y-114491798D01*
X58589247Y-114495477D01*
X58589245Y-114495479D01*
X58518760Y-114562719D01*
X58423832Y-114653276D01*
X58284187Y-114840965D01*
X58281771Y-114845716D01*
X58281769Y-114845720D01*
X58215101Y-114976846D01*
X58178162Y-115049500D01*
X58108790Y-115272917D01*
X58108089Y-115278204D01*
X58108089Y-115278205D01*
X58089554Y-115418051D01*
X58078052Y-115504829D01*
X58078252Y-115510158D01*
X58078252Y-115510160D01*
X58080241Y-115563129D01*
X58086828Y-115738604D01*
X58091198Y-115759431D01*
X58133019Y-115958745D01*
X58134868Y-115967559D01*
X58220797Y-116185146D01*
X58238462Y-116214257D01*
X58331781Y-116368041D01*
X58342159Y-116385144D01*
X58495483Y-116561834D01*
X58676386Y-116710165D01*
X58681022Y-116712804D01*
X58681025Y-116712806D01*
X58714001Y-116731577D01*
X58763307Y-116782659D01*
X58777169Y-116852289D01*
X58751186Y-116918360D01*
X58722036Y-116945599D01*
X58597845Y-117029210D01*
X58589559Y-117035871D01*
X58428070Y-117189924D01*
X58421021Y-117197892D01*
X58287797Y-117376952D01*
X58282198Y-117385982D01*
X58181047Y-117584931D01*
X58177044Y-117594792D01*
X58110862Y-117807929D01*
X58108580Y-117818309D01*
X58105964Y-117838043D01*
X58108160Y-117852207D01*
X58121345Y-117856000D01*
X59818000Y-117856000D01*
X59886121Y-117876002D01*
X59932614Y-117929658D01*
X59944000Y-117982000D01*
X59944000Y-118238000D01*
X59923998Y-118306121D01*
X59870342Y-118352614D01*
X59818000Y-118364000D01*
X58123373Y-118364000D01*
X58109842Y-118367973D01*
X58108317Y-118378580D01*
X58134252Y-118502188D01*
X58137312Y-118512384D01*
X58219284Y-118719952D01*
X58224018Y-118729489D01*
X58339796Y-118920285D01*
X58346062Y-118928878D01*
X58492333Y-119097441D01*
X58499964Y-119104861D01*
X58672542Y-119246368D01*
X58681309Y-119252393D01*
X58713978Y-119270989D01*
X58763285Y-119322071D01*
X58777146Y-119391702D01*
X58751163Y-119457773D01*
X58722013Y-119485011D01*
X58655399Y-119529858D01*
X58593104Y-119571798D01*
X58589247Y-119575477D01*
X58589245Y-119575479D01*
X58518760Y-119642719D01*
X58423832Y-119733276D01*
X58420649Y-119737554D01*
X58410889Y-119750672D01*
X58284187Y-119920965D01*
X58281771Y-119925716D01*
X58281769Y-119925720D01*
X58224841Y-120037689D01*
X58178162Y-120129500D01*
X58108790Y-120352917D01*
X58078052Y-120584829D01*
X58086828Y-120818604D01*
X58087923Y-120823822D01*
X58115677Y-120956094D01*
X58134868Y-121047559D01*
X58220797Y-121265146D01*
X58236891Y-121291668D01*
X58318831Y-121426700D01*
X58342159Y-121465144D01*
X58495483Y-121641834D01*
X58676386Y-121790165D01*
X58681016Y-121792801D01*
X58681021Y-121792804D01*
X58713516Y-121811301D01*
X58762822Y-121862384D01*
X58776683Y-121932015D01*
X58750699Y-121998085D01*
X58721550Y-122025323D01*
X58593104Y-122111798D01*
X58423832Y-122273276D01*
X58284187Y-122460965D01*
X58281771Y-122465716D01*
X58281769Y-122465720D01*
X58180580Y-122664744D01*
X58178162Y-122669500D01*
X58108790Y-122892917D01*
X58108089Y-122898204D01*
X58108089Y-122898205D01*
X58081900Y-123095800D01*
X58078052Y-123124829D01*
X58078252Y-123130158D01*
X58078252Y-123130160D01*
X58078939Y-123148462D01*
X58086828Y-123358604D01*
X58087923Y-123363822D01*
X58132548Y-123576500D01*
X58134868Y-123587559D01*
X58220797Y-123805146D01*
X58342159Y-124005144D01*
X58495483Y-124181834D01*
X58499609Y-124185217D01*
X58532770Y-124212407D01*
X58572764Y-124271067D01*
X58574695Y-124342038D01*
X58537950Y-124402786D01*
X58515610Y-124417733D01*
X58516054Y-124418450D01*
X58365652Y-124511522D01*
X58240695Y-124636697D01*
X58147885Y-124787262D01*
X58092203Y-124955139D01*
X58081500Y-125059600D01*
X58081500Y-126400400D01*
X58081837Y-126403646D01*
X58081837Y-126403650D01*
X58090903Y-126491024D01*
X58092474Y-126506166D01*
X58094655Y-126512702D01*
X58094655Y-126512704D01*
X58128074Y-126612873D01*
X58148450Y-126673946D01*
X58241522Y-126824348D01*
X58366697Y-126949305D01*
X58372927Y-126953145D01*
X58372928Y-126953146D01*
X58510090Y-127037694D01*
X58517262Y-127042115D01*
X58538427Y-127049135D01*
X58678611Y-127095632D01*
X58678613Y-127095632D01*
X58685139Y-127097797D01*
X58691975Y-127098497D01*
X58691978Y-127098498D01*
X58735031Y-127102909D01*
X58789600Y-127108500D01*
X60590400Y-127108500D01*
X60593646Y-127108163D01*
X60593650Y-127108163D01*
X60689308Y-127098238D01*
X60689312Y-127098237D01*
X60696166Y-127097526D01*
X60702702Y-127095345D01*
X60702704Y-127095345D01*
X60841211Y-127049135D01*
X60863946Y-127041550D01*
X61014348Y-126948478D01*
X61139305Y-126823303D01*
X61212845Y-126704000D01*
X61228275Y-126678968D01*
X61228276Y-126678966D01*
X61232115Y-126672738D01*
X61287797Y-126504861D01*
X61298500Y-126400400D01*
X61298500Y-125469500D01*
X61318502Y-125401379D01*
X61372158Y-125354886D01*
X61424500Y-125343500D01*
X70039759Y-125343500D01*
X70107880Y-125363502D01*
X70154373Y-125417158D01*
X70164477Y-125487432D01*
X70134983Y-125552012D01*
X70123662Y-125563501D01*
X69931494Y-125735018D01*
X69764363Y-125935970D01*
X69761934Y-125939973D01*
X69702012Y-126038722D01*
X69628771Y-126159419D01*
X69527697Y-126400455D01*
X69463359Y-126653783D01*
X69462891Y-126658434D01*
X69462890Y-126658438D01*
X69460823Y-126678968D01*
X69437173Y-126913839D01*
X69437397Y-126918505D01*
X69437397Y-126918511D01*
X69442381Y-127022263D01*
X69449713Y-127174908D01*
X69500704Y-127431256D01*
X69589026Y-127677252D01*
X69591242Y-127681376D01*
X69655753Y-127801437D01*
X69712737Y-127907491D01*
X69715532Y-127911234D01*
X69715534Y-127911237D01*
X69833052Y-128068611D01*
X69857784Y-128135160D01*
X69842610Y-128204516D01*
X69792348Y-128254659D01*
X69732094Y-128270000D01*
X56006000Y-128270000D01*
X55937879Y-128249998D01*
X55891386Y-128196342D01*
X55880000Y-128144000D01*
X55880000Y-110114669D01*
X57062001Y-110114669D01*
X57062371Y-110121490D01*
X57067895Y-110172352D01*
X57071521Y-110187604D01*
X57116676Y-110308054D01*
X57125214Y-110323649D01*
X57201715Y-110425724D01*
X57214276Y-110438285D01*
X57316351Y-110514786D01*
X57331946Y-110523324D01*
X57452394Y-110568478D01*
X57467649Y-110572105D01*
X57518514Y-110577631D01*
X57525328Y-110578000D01*
X58147885Y-110578000D01*
X58163124Y-110573525D01*
X58164329Y-110572135D01*
X58166000Y-110564452D01*
X58166000Y-110559884D01*
X58674000Y-110559884D01*
X58678475Y-110575123D01*
X58679865Y-110576328D01*
X58687548Y-110577999D01*
X59314669Y-110577999D01*
X59321490Y-110577629D01*
X59372352Y-110572105D01*
X59387604Y-110568479D01*
X59508054Y-110523324D01*
X59523649Y-110514786D01*
X59625724Y-110438285D01*
X59638285Y-110425724D01*
X59714786Y-110323649D01*
X59723324Y-110308054D01*
X59768478Y-110187606D01*
X59772105Y-110172351D01*
X59777631Y-110121486D01*
X59778000Y-110114672D01*
X59778000Y-109492115D01*
X59773525Y-109476876D01*
X59772135Y-109475671D01*
X59764452Y-109474000D01*
X58692115Y-109474000D01*
X58676876Y-109478475D01*
X58675671Y-109479865D01*
X58674000Y-109487548D01*
X58674000Y-110559884D01*
X58166000Y-110559884D01*
X58166000Y-109492115D01*
X58161525Y-109476876D01*
X58160135Y-109475671D01*
X58152452Y-109474000D01*
X57080116Y-109474000D01*
X57064877Y-109478475D01*
X57063672Y-109479865D01*
X57062001Y-109487548D01*
X57062001Y-110114669D01*
X55880000Y-110114669D01*
X55880000Y-102054500D01*
X55900002Y-101986379D01*
X55953658Y-101939886D01*
X56006000Y-101928500D01*
X57453134Y-101928500D01*
X57515316Y-101921745D01*
X57651705Y-101870615D01*
X57768261Y-101783261D01*
X57855615Y-101666705D01*
X57906745Y-101530316D01*
X57913500Y-101468134D01*
X57913500Y-101304500D01*
X57933502Y-101236379D01*
X57987158Y-101189886D01*
X58039500Y-101178500D01*
X59803134Y-101178500D01*
X59865316Y-101171745D01*
X60001705Y-101120615D01*
X60118261Y-101033261D01*
X60205615Y-100916705D01*
X60256745Y-100780316D01*
X60263500Y-100718134D01*
X60263500Y-98821866D01*
X60256745Y-98759684D01*
X60205615Y-98623295D01*
X60118261Y-98506739D01*
X60120440Y-98505106D01*
X60093165Y-98455156D01*
X60098230Y-98384341D01*
X60115459Y-98352809D01*
X60174787Y-98273648D01*
X60183324Y-98258054D01*
X60228478Y-98137606D01*
X60232105Y-98122351D01*
X60237631Y-98071486D01*
X60238000Y-98064672D01*
X60238000Y-98038115D01*
X60233525Y-98022876D01*
X60232135Y-98021671D01*
X60224452Y-98020000D01*
X60088884Y-98020000D01*
X60020763Y-97999998D01*
X59974270Y-97946342D01*
X59964166Y-97876068D01*
X59993660Y-97811488D01*
X60013319Y-97793174D01*
X60024285Y-97784956D01*
X60093261Y-97733261D01*
X60141242Y-97669240D01*
X60198101Y-97626725D01*
X60206570Y-97623909D01*
X60235123Y-97615525D01*
X60236328Y-97614135D01*
X60237999Y-97606452D01*
X60237999Y-97575331D01*
X60237629Y-97568510D01*
X60231252Y-97509793D01*
X60233998Y-97509495D01*
X60233940Y-97480554D01*
X60231745Y-97480316D01*
X60238131Y-97421531D01*
X60238500Y-97418134D01*
X60238500Y-96921866D01*
X60238210Y-96919194D01*
X60254469Y-96850226D01*
X60305533Y-96800901D01*
X60375158Y-96787014D01*
X60441239Y-96812973D01*
G37*
G04 #@! TD.AperFunction*
M02*
