G04 #@! TF.GenerationSoftware,KiCad,Pcbnew,(6.0.6-0)*
G04 #@! TF.CreationDate,2022-10-21T02:43:14+09:00*
G04 #@! TF.ProjectId,Spica,53706963-612e-46b6-9963-61645f706362,rev?*
G04 #@! TF.SameCoordinates,Original*
G04 #@! TF.FileFunction,Soldermask,Top*
G04 #@! TF.FilePolarity,Negative*
%FSLAX46Y46*%
G04 Gerber Fmt 4.6, Leading zero omitted, Abs format (unit mm)*
G04 Created by KiCad (PCBNEW (6.0.6-0)) date 2022-10-21 02:43:14*
%MOMM*%
%LPD*%
G01*
G04 APERTURE LIST*
G04 Aperture macros list*
%AMRoundRect*
0 Rectangle with rounded corners*
0 $1 Rounding radius*
0 $2 $3 $4 $5 $6 $7 $8 $9 X,Y pos of 4 corners*
0 Add a 4 corners polygon primitive as box body*
4,1,4,$2,$3,$4,$5,$6,$7,$8,$9,$2,$3,0*
0 Add four circle primitives for the rounded corners*
1,1,$1+$1,$2,$3*
1,1,$1+$1,$4,$5*
1,1,$1+$1,$6,$7*
1,1,$1+$1,$8,$9*
0 Add four rect primitives between the rounded corners*
20,1,$1+$1,$2,$3,$4,$5,0*
20,1,$1+$1,$4,$5,$6,$7,0*
20,1,$1+$1,$6,$7,$8,$9,0*
20,1,$1+$1,$8,$9,$2,$3,0*%
G04 Aperture macros list end*
%ADD10RoundRect,0.051000X-0.800000X-0.800000X0.800000X-0.800000X0.800000X0.800000X-0.800000X0.800000X0*%
%ADD11C,1.702000*%
%ADD12RoundRect,0.051000X-1.000000X-0.300000X1.000000X-0.300000X1.000000X0.300000X-1.000000X0.300000X0*%
%ADD13RoundRect,0.051000X0.850000X0.850000X-0.850000X0.850000X-0.850000X-0.850000X0.850000X-0.850000X0*%
%ADD14O,1.802000X1.802000*%
%ADD15RoundRect,0.269750X-0.218750X-0.256250X0.218750X-0.256250X0.218750X0.256250X-0.218750X0.256250X0*%
%ADD16O,4.102000X1.602000*%
%ADD17O,1.602000X4.102000*%
%ADD18O,1.502000X1.502000*%
%ADD19C,3.102000*%
%ADD20O,2.102000X3.102000*%
%ADD21O,3.102000X2.102000*%
%ADD22RoundRect,0.294750X-0.243750X-0.456250X0.243750X-0.456250X0.243750X0.456250X-0.243750X0.456250X0*%
%ADD23RoundRect,0.269750X0.218750X0.256250X-0.218750X0.256250X-0.218750X-0.256250X0.218750X-0.256250X0*%
%ADD24C,2.102000*%
%ADD25RoundRect,0.051000X-0.750000X-0.300000X0.750000X-0.300000X0.750000X0.300000X-0.750000X0.300000X0*%
%ADD26RoundRect,0.051000X0.600000X-1.100000X0.600000X1.100000X-0.600000X1.100000X-0.600000X-1.100000X0*%
%ADD27RoundRect,0.051000X2.900000X-3.200000X2.900000X3.200000X-2.900000X3.200000X-2.900000X-3.200000X0*%
%ADD28C,1.602000*%
%ADD29C,2.602000*%
%ADD30RoundRect,0.301000X0.850000X-0.620000X0.850000X0.620000X-0.850000X0.620000X-0.850000X-0.620000X0*%
%ADD31O,2.302000X1.842000*%
%ADD32RoundRect,0.492000X1.059000X-1.059000X1.059000X1.059000X-1.059000X1.059000X-1.059000X-1.059000X0*%
%ADD33O,3.102000X3.102000*%
G04 APERTURE END LIST*
D10*
X58420000Y-81280000D03*
D11*
X60920000Y-81280000D03*
D10*
X78740000Y-81280000D03*
D11*
X81240000Y-81280000D03*
D12*
X66750000Y-79375000D03*
X66750000Y-80645000D03*
X66750000Y-81915000D03*
X66750000Y-83185000D03*
X66750000Y-84455000D03*
X66750000Y-85725000D03*
X66750000Y-86995000D03*
X66750000Y-88265000D03*
X66750000Y-89535000D03*
X66750000Y-90805000D03*
X66750000Y-92075000D03*
X66750000Y-93345000D03*
X72950000Y-93345000D03*
X72950000Y-92075000D03*
X72950000Y-90805000D03*
X72950000Y-89535000D03*
X72950000Y-88265000D03*
X72950000Y-86995000D03*
X72950000Y-85725000D03*
X72950000Y-84455000D03*
X72950000Y-83185000D03*
X72950000Y-81915000D03*
X72950000Y-80645000D03*
X72950000Y-79375000D03*
D13*
X58420000Y-109220000D03*
D14*
X58420000Y-106680000D03*
X58420000Y-104140000D03*
D15*
X66522500Y-97790000D03*
X68097500Y-97790000D03*
X70332500Y-97790000D03*
X71907500Y-97790000D03*
X74142500Y-97790000D03*
X75717500Y-97790000D03*
X88112500Y-82550000D03*
X89687500Y-82550000D03*
X77952500Y-97790000D03*
X79527500Y-97790000D03*
X57632500Y-99060000D03*
X59207500Y-99060000D03*
X61442500Y-99060000D03*
X63017500Y-99060000D03*
X81762500Y-97790000D03*
X83337500Y-97790000D03*
X85572500Y-97790000D03*
X87147500Y-97790000D03*
X90170000Y-97790000D03*
X91745000Y-97790000D03*
D16*
X85090000Y-67320000D03*
D17*
X91840000Y-68120000D03*
X78340000Y-68120000D03*
D18*
X81690000Y-71120000D03*
X88490000Y-71120000D03*
X81690000Y-73520000D03*
X88490000Y-73620000D03*
D19*
X73350000Y-65430000D03*
X66450000Y-65430000D03*
D20*
X69850000Y-73730000D03*
D21*
X69850000Y-67630000D03*
D22*
X91772500Y-82550000D03*
X93647500Y-82550000D03*
D23*
X64287500Y-77470000D03*
X62712500Y-77470000D03*
D15*
X84302500Y-78740000D03*
X85877500Y-78740000D03*
X88112500Y-78740000D03*
X89687500Y-78740000D03*
X91922500Y-78740000D03*
X93497500Y-78740000D03*
D24*
X73700000Y-107950000D03*
X76200000Y-102950000D03*
X78700000Y-107950000D03*
D25*
X78580000Y-86360000D03*
X78580000Y-87630000D03*
X78580000Y-88900000D03*
X78580000Y-90170000D03*
X78580000Y-91440000D03*
X78580000Y-92710000D03*
X78580000Y-93980000D03*
X83980000Y-93980000D03*
X83980000Y-92710000D03*
X83980000Y-91440000D03*
X83980000Y-90170000D03*
X83980000Y-88900000D03*
X83980000Y-87630000D03*
X83980000Y-86360000D03*
D26*
X57410000Y-94370000D03*
D27*
X59690000Y-88070000D03*
D26*
X61970000Y-94370000D03*
D28*
X88900000Y-87630000D03*
X88900000Y-92510000D03*
D29*
X81200000Y-126960000D03*
X71200000Y-126960000D03*
X83700000Y-117260000D03*
X76200000Y-117260000D03*
X68700000Y-117260000D03*
X81200000Y-114960000D03*
X71200000Y-114960000D03*
X83700000Y-112260000D03*
X68700000Y-112260000D03*
X76200000Y-112260000D03*
D24*
X65445000Y-107950000D03*
X67945000Y-102950000D03*
X70445000Y-107950000D03*
D13*
X61595000Y-109220000D03*
D14*
X61595000Y-106680000D03*
X61595000Y-104140000D03*
D24*
X81955000Y-107950000D03*
X84455000Y-102950000D03*
X86955000Y-107950000D03*
D30*
X59690000Y-125730000D03*
D31*
X59690000Y-123190000D03*
X59690000Y-120650000D03*
X59690000Y-118110000D03*
X59690000Y-115570000D03*
X59690000Y-113030000D03*
D32*
X92710000Y-124460000D03*
D33*
X92710000Y-119460000D03*
X92710000Y-114460000D03*
X92710000Y-109460000D03*
X92710000Y-101960000D03*
D15*
X84302500Y-82550000D03*
X85877500Y-82550000D03*
M02*
