M48
; DRILL file {KiCad (6.0.6-0)} date Friday, 21 October 2022 at 02:43:18
; FORMAT={-:-/ absolute / inch / decimal}
; #@! TF.CreationDate,2022-10-21T02:43:18+09:00
; #@! TF.GenerationSoftware,Kicad,Pcbnew,(6.0.6-0)
; #@! TF.FileFunction,MixedPlating,1,2
FMAT,2
INCH
; #@! TA.AperFunction,Plated,PTH,ViaDrill
T1C0.0157
; #@! TA.AperFunction,Plated,PTH,ComponentDrill
T2C0.0157
; #@! TA.AperFunction,Plated,PTH,ComponentDrill
T3C0.0197
; #@! TA.AperFunction,Plated,PTH,ComponentDrill
T4C0.0276
; #@! TA.AperFunction,Plated,PTH,ComponentDrill
T5C0.0315
; #@! TA.AperFunction,Plated,PTH,ComponentDrill
T6C0.0394
; #@! TA.AperFunction,Plated,PTH,ComponentDrill
T7C0.0472
; #@! TA.AperFunction,Plated,PTH,ComponentDrill
T8C0.0591
; #@! TA.AperFunction,Plated,PTH,ComponentDrill
T9C0.0630
%
G90
G05
T1
X2.481Y-4.0367
X2.4956Y-3.6737
X2.5191Y-3.3122
X2.5927Y-3.721
X2.681Y-3.8937
X2.6928Y-3.7756
X2.6987Y-3.3096
X2.6995Y-3.375
X2.7654Y-3.6417
X2.7692Y-3.5833
X2.7808Y-3.8067
X2.8068Y-3.3164
X2.875Y-3.8442
X2.942Y-3.575
X3.015Y-3.884
X3.0342Y-3.4177
X3.0366Y-3.6829
X3.1481Y-3.65
X3.3666Y-3.7165
X3.3764Y-3.4101
X3.5684Y-3.1506
X3.6131Y-3.1819
X3.681Y-3.1952
T5
X2.3Y-3.2
X2.3984Y-3.2
X3.1Y-3.2
X3.1984Y-3.2
X3.5Y-3.45
X3.5Y-3.6421
T6
X2.3Y-4.1
X2.3Y-4.2
X2.3Y-4.3
X2.425Y-4.1
X2.425Y-4.2
X2.425Y-4.3
T7
X2.35Y-4.45
X2.35Y-4.55
X2.35Y-4.65
X2.35Y-4.75
X2.35Y-4.85
X2.35Y-4.95
X2.5766Y-4.25
X2.675Y-4.0531
X2.7734Y-4.25
X2.9016Y-4.25
X3.0Y-4.0531
X3.0984Y-4.25
X3.2266Y-4.25
X3.325Y-4.0531
X3.4234Y-4.25
T8
X2.7047Y-4.4197
X2.7047Y-4.6165
X2.8031Y-4.526
X2.8031Y-4.9984
X3.0Y-4.4197
X3.0Y-4.6165
X3.1969Y-4.526
X3.1969Y-4.9984
X3.2953Y-4.4197
X3.2953Y-4.6165
T9
X2.6161Y-2.576
X2.8878Y-2.576
X3.65Y-4.0142
X3.65Y-4.3094
X3.65Y-4.5063
X3.65Y-4.7031
X3.65Y-4.9
T2
G00X3.2161Y-2.7882
M15
G01X3.2161Y-2.8118
M16
G05
G00X3.2161Y-2.8827
M15
G01X3.2161Y-2.9063
M16
G05
G00X3.4839Y-2.7882
M15
G01X3.4839Y-2.8118
M16
G05
G00X3.4839Y-2.8866
M15
G01X3.4839Y-2.9102
M16
G05
T3
G00X3.0843Y-2.6327
M15
G01X3.0843Y-2.7311
M16
G05
G00X3.3008Y-2.6504
M15
G01X3.3992Y-2.6504
M16
G05
G00X3.6157Y-2.6327
M15
G01X3.6157Y-2.7311
M16
G05
T4
G00X2.7795Y-2.6626
M15
G01X2.7205Y-2.6626
M16
G05
G00X2.75Y-2.9323
M15
G01X2.75Y-2.8732
M16
G05
T0
M30
